STARTFONT 2.1
COMMENT
COMMENT Converted from OpenType font "Vollda-Bold.otf" by "otf2bdf 3.0".
COMMENT
FONT -FreeType-Vollda-Bold-R-Normal--77-560-100-100-P-425-ISO10646-1
SIZE 56 100 100
FONTBOUNDINGBOX 248 108 -14 -23
STARTPROPERTIES 19
FOUNDRY "FreeType"
FAMILY_NAME "Vollda"
WEIGHT_NAME "Bold"
SLANT "R"
SETWIDTH_NAME "Normal"
ADD_STYLE_NAME ""
PIXEL_SIZE 77
POINT_SIZE 560
RESOLUTION_X 100
RESOLUTION_Y 100
SPACING "P"
AVERAGE_WIDTH 425
CHARSET_REGISTRY "ISO10646"
CHARSET_ENCODING "1"
FONT_ASCENT 74
FONT_DESCENT 34
COPYRIGHT "Copyright 2023 Vollda (https://github.com/alexburba/vollda)"
_OTF_FONTFILE "Vollda-Bold.otf"
_OTF_PSNAME "Vollda-Bold"
ENDPROPERTIES
CHARS 1220
STARTCHAR 0000
ENCODING 0
SWIDTH 0 0
DWIDTH 0 0
BBX 0 0 0 0
BITMAP
ENDCHAR
STARTCHAR 000D
ENCODING 13
SWIDTH 192 0
DWIDTH 15 0
BBX 0 0 0 0
BITMAP
ENDCHAR
STARTCHAR 0020
ENCODING 32
SWIDTH 192 0
DWIDTH 15 0
BBX 0 0 0 0
BITMAP
ENDCHAR
STARTCHAR 0021
ENCODING 33
SWIDTH 398 0
DWIDTH 31 0
BBX 12 57 10 -1
BITMAP
0020
01F0
1FF0
FFF0
FFF0
FFF0
FFF0
FFF0
FFF0
FFE0
FFE0
7FE0
7FE0
7FE0
7FE0
7FE0
7FE0
7FE0
7FC0
3FC0
3FC0
3FC0
3FC0
3FC0
3FC0
3FC0
3FC0
3FC0
3FC0
1FC0
1F80
1F80
1F80
1F80
1F80
1F80
1F80
1E00
0000
0000
0000
0000
0000
0000
0300
3FC0
7FE0
FFF0
FFF0
FFF0
FFF0
FFF0
FFF0
FFF0
7FE0
3FC0
0E00
ENDCHAR
STARTCHAR 0022
ENCODING 34
SWIDTH 372 0
DWIDTH 29 0
BBX 20 22 5 34
BITMAP
000040
1E01E0
FF0FF0
FF0FF0
FF0FF0
FF0FF0
FE0FE0
FE0FE0
7E07E0
7E07E0
7E07E0
7E07E0
7E07E0
7E07E0
7E07E0
7C07E0
7C07C0
7C07C0
7C07C0
7C07C0
3C07C0
000040
ENDCHAR
STARTCHAR 0023
ENCODING 35
SWIDTH 604 0
DWIDTH 47 0
BBX 43 57 2 -1
BITMAP
0000C0004000
0000F8007C00
0000F8007C00
0000F8007C00
0001F800FC00
0001F800FC00
0001F000F800
0001F000F800
0001F000F800
0003F001F800
0003F001F800
0003E001F000
0003E001F000
0003E001F000
0007E001F000
0007E003F000
07FFFFFFFFE0
0FFFFFFFFFE0
0FFFFFFFFFE0
0FFFFFFFFFE0
0FFFFFFFFFE0
0FFFFFFFFFE0
000F8007C000
000F8007C000
000F8007C000
001F800FC000
001F000F8000
001F000F8000
001F000F8000
001F000F8000
003F001F8000
003F001F0000
003E001F0000
003E001F0000
003E001F0000
7FFFFFFFFF00
FFFFFFFFFF00
FFFFFFFFFF00
FFFFFFFFFF00
FFFFFFFFFF00
FFFFFFFFFE00
00FC007E0000
00F8007C0000
00F8007C0000
00F8007C0000
01F800FC0000
01F800FC0000
01F000F80000
01F000F80000
01F000F80000
03F001F80000
03F001F80000
03E001F00000
03E001F00000
03E001F00000
01E001F00000
006000300000
ENDCHAR
STARTCHAR 0024
ENCODING 36
SWIDTH 552 0
DWIDTH 43 0
BBX 37 65 4 -7
BITMAP
0001F00000
0001F80000
0001F80000
0001F80000
0001F80000
000FFF8000
007FFFF800
01FFFFFF00
03FFFFFF80
0FFFFFFF80
0FF9FFFF80
1FF1F9FF80
3FE1F8FF80
3FE1F8FF80
7FC1F87F80
7FC1F87F80
7FC1F83F80
7FC1F83F80
7FE1F83F80
7FE1F83F80
7FF1F80000
7FF9F80000
7FFFF80000
7FFFF80000
7FFFF80000
3FFFF80000
3FFFFE0000
1FFFFF8000
1FFFFFE000
0FFFFFF000
07FFFFFC00
03FFFFFE00
01FFFFFF00
00FFFFFF80
003FFFFFC0
000FFFFFE0
0003FFFFE0
0001FFFFF0
0001FFFFF0
0001FFFFF0
0001F3FFF0
3F01F1FFF8
7F01F0FFF8
7F01F07FF8
7F01F03FF8
7F01F03FF8
FF01F03FF0
FF81F03FF0
FF81F03FF0
FF81F03FE0
FFC1F07FE0
FFE1F0FFC0
FFF1F1FFC0
FFFFFFFF80
FFFFFFFF00
1FFFFFFC00
07FFFFF000
00FFFFC000
0003FC0000
0001F00000
0001F00000
0001F00000
0001F00000
0001F00000
0000700000
ENDCHAR
STARTCHAR 0025
ENCODING 37
SWIDTH 861 0
DWIDTH 67 0
BBX 53 54 7 -1
BITMAP
001C0000000780
01FFC000000FC0
07FFF000001FC0
0FFFF800001F80
1FFFFC00003F80
3FC3FE00007F00
7F81FE0000FE00
7F00FF0001FC00
7F00FF0003F800
FF007F0003F000
FE007F0007F000
FE007F800FE000
FE007F801FC000
FE007F803F8000
FF007F007F0000
FF007F007E0000
FF007F00FE0000
7F00FF01FC0000
7F80FE03F80000
7FC1FE07F00000
3FFFFC0FE00000
1FFFF80FC00000
0FFFF01FC00000
03FFE03F800000
00FF007F000000
000000FE000000
000001FC000000
000001F8000000
000003F8000000
000007F007FC00
00000FE01FFF00
00001FC07FFF80
00003F80FFFFC0
00003F01FF7FE0
00007F01FC1FF0
0000FE03FC0FF0
0001FC03F807F8
0003F807F807F8
0007F007F007F8
0007E007F003F8
000FE007F003F8
001FC007F003F8
003F8007F003F8
007F0007F003F8
00FE0007F807F8
01FC0007F807F8
01FC0007F807F0
03F80003FC0FF0
07F00001FE1FE0
0FE00001FFFFC0
1FC00000FFFF80
0F8000003FFF00
078000001FFE00
0100000000C000
ENDCHAR
STARTCHAR 0026
ENCODING 38
SWIDTH 771 0
DWIDTH 60 0
BBX 52 57 4 -1
BITMAP
00000FF0000000
0000FFFF800000
0007FFFFF00000
000FFFFFF80000
001FFFFFF80000
003FF83FF80000
007FF01FF80000
007FE00FF80000
00FFE007F80000
00FFE007F80000
00FFE007F80000
00FFE003F80000
00FFE003F80000
00FFE003F80000
00FFE000000000
00FFE000000000
00FFF000000000
007FF000000000
007FF800000000
007FF800000000
003FFC003FFFE0
003FFE003FFFE0
001FFE003FFFE0
001FFF001FFFE0
003FFF801FFFC0
00FFFFC003FF00
01FFFFE001FE00
03FFFFE000FC00
07FDFFF000F800
0FF9FFF800F800
1FF8FFFC00F800
1FF07FFE01F000
3FF03FFE01F000
7FE01FFF01F000
7FE01FFF83E000
7FE00FFFC3E000
7FE007FFE7E000
FFE003FFF7C000
FFE001FFFFC000
FFE000FFFF8000
FFE0007FFF8000
FFE0007FFF0000
FFF0003FFF0000
FFF0001FFF8000
FFF0000FFFC000
7FF80007FFE000
7FF80003FFF000
7FFC0007FFF800
3FFE000FFFFC00
3FFF803FFFFF80
1FFFF3FFFFFFF0
0FFFFFFF3FFFF0
07FFFFFE1FFFF0
03FFFFFC1FFFF0
00FFFFF00FFFE0
003FFFC007FE00
0003FC00020000
ENDCHAR
STARTCHAR 0027
ENCODING 39
SWIDTH 218 0
DWIDTH 17 0
BBX 8 20 5 35
BITMAP
1F
FF
FF
FF
FF
FF
FE
7E
7E
7E
7E
7E
7E
7E
7E
7E
7C
7C
3C
3C
ENDCHAR
STARTCHAR 0028
ENCODING 40
SWIDTH 321 0
DWIDTH 25 0
BBX 19 79 3 -21
BITMAP
000300
0003C0
0007C0
000F80
001F80
001F00
003F00
007E00
007E00
00FC00
00FC00
01F800
03F800
03F800
07F000
07F000
0FF000
0FE000
0FE000
1FE000
1FE000
3FC000
3FC000
3FC000
3FC000
7FC000
7FC000
7F8000
7F8000
FF8000
FF8000
FF8000
FF8000
FF8000
FF8000
FF8000
FF8000
FF8000
FF8000
FF8000
FF8000
FF8000
FF8000
FF8000
FF8000
FF8000
FF8000
FF8000
FF8000
7FC000
7FC000
7FC000
7FC000
7FC000
3FC000
3FC000
3FE000
1FE000
1FE000
1FE000
0FF000
0FF000
07F000
07F000
07F800
03F800
03F800
01FC00
00FC00
00FC00
007E00
007E00
003F00
001F00
001F80
000F80
0007C0
0003C0
0003E0
ENDCHAR
STARTCHAR 0029
ENCODING 41
SWIDTH 321 0
DWIDTH 25 0
BBX 18 79 4 -21
BITMAP
100000
F00000
F80000
7C0000
7E0000
3E0000
3F0000
1F8000
1F8000
0FC000
0FE000
07E000
07F000
07F000
03F800
03F800
03FC00
01FC00
01FE00
01FE00
01FE00
00FF00
00FF00
00FF00
00FF80
00FF80
00FF80
007F80
007FC0
007FC0
007FC0
007FC0
007FC0
007FC0
007FC0
007FC0
007FC0
007FC0
007FC0
007FC0
007FC0
007FC0
007FC0
007FC0
007FC0
007FC0
007FC0
007FC0
007FC0
007F80
007F80
00FF80
00FF80
00FF00
00FF00
00FF00
00FF00
00FE00
01FE00
01FE00
01FC00
01FC00
03F800
03F800
03F800
07F000
07F000
07E000
0FC000
0FC000
1F8000
1F8000
3F0000
3E0000
7E0000
7C0000
F80000
F80000
F00000
ENDCHAR
STARTCHAR 002A
ENCODING 42
SWIDTH 475 0
DWIDTH 37 0
BBX 27 28 5 32
BITMAP
000C0000
000FE000
000FF000
000FE000
100FE000
380FC000
3C0FC000
7E0F8000
7F0F8000
FF8F8060
FFEF03E0
3FFF3FE0
07FFFFE0
00FFFFE0
003FFFE0
007FFFE0
01FF03E0
07F78000
1FE7C000
7FE7C000
7FC7E000
7F87F000
3F03F800
3F03F800
1E03FC00
0403FC00
0003F000
0003C000
ENDCHAR
STARTCHAR 002B
ENCODING 43
SWIDTH 540 0
DWIDTH 42 0
BBX 36 39 3 0
BITMAP
0000F80000
0000F80000
0000F80000
0000F80000
0000F80000
0000F80000
0000F80000
0000F80000
0000F80000
0000F80000
0000F80000
0000F80000
0000F80000
0000F80000
0000F80000
0000F80000
7FFFFFFFF0
7FFFFFFFF0
7FFFFFFFF0
FFFFFFFFF0
FFFFFFFFF0
FFFFFFFFF0
0000F80000
0000F80000
0000F80000
0000F80000
0000F80000
0000F80000
0000F80000
0000F80000
0000F80000
0000F80000
0000F80000
0000F80000
0000F80000
0000F80000
0000F80000
0000F80000
0000F00000
ENDCHAR
STARTCHAR 002C
ENCODING 44
SWIDTH 282 0
DWIDTH 22 0
BBX 13 24 5 -14
BITMAP
00E0
03F0
7FF0
7FF0
7FF8
7FF8
FFF8
FFF8
FFF8
3FF8
0FF0
07F0
07F0
07F0
07E0
07E0
0FC0
0FC0
1F80
3F80
3F00
7E00
FC00
7800
ENDCHAR
STARTCHAR 002D
ENCODING 45
SWIDTH 411 0
DWIDTH 32 0
BBX 23 6 5 16
BITMAP
7FFFFE
FFFFFE
FFFFFE
FFFFFE
FFFFFC
FFFFFC
ENDCHAR
STARTCHAR 002E
ENCODING 46
SWIDTH 282 0
DWIDTH 22 0
BBX 14 13 4 -1
BITMAP
0FE0
3FF0
7FF8
7FF8
FFFC
FFFC
FFFC
FFFC
FFF8
7FF8
3FF0
1FE0
0300
ENDCHAR
STARTCHAR 002F
ENCODING 47
SWIDTH 372 0
DWIDTH 29 0
BBX 25 56 3 0
BITMAP
00001E00
00001F80
00001F00
00003F00
00003E00
00003E00
00007E00
00007C00
0000FC00
0000FC00
0000F800
0001F800
0001F800
0001F000
0003F000
0003E000
0007E000
0007E000
0007C000
000FC000
000FC000
000F8000
001F8000
001F0000
003F0000
003F0000
003E0000
007E0000
007E0000
007C0000
00FC0000
00FC0000
01F80000
01F80000
01F00000
03F00000
03F00000
03E00000
07E00000
07E00000
0FC00000
0FC00000
0F800000
1F800000
1F800000
1F000000
3F000000
3F000000
7E000000
7E000000
7C000000
FC000000
FC000000
F8000000
F8000000
18000000
ENDCHAR
STARTCHAR 0030
ENCODING 48
SWIDTH 604 0
DWIDTH 47 0
BBX 42 40 3 -1
BITMAP
0003FFF00000
001FFFFE0000
007FFFFF8000
00FFFFFFE000
03FFFFFFF000
07FF01FFF800
0FFE007FFC00
1FFC003FFE00
1FF8001FFE00
3FF0001FFF00
3FF0000FFF00
7FF00007FF80
7FE00007FF80
FFE00007FF80
FFE00003FFC0
FFE00003FFC0
FFE00003FFC0
FFE00001FFC0
FFE00001FFC0
FFE00001FFC0
FFE00001FFC0
FFE00001FFC0
FFE00001FFC0
FFF00001FFC0
FFF00001FFC0
7FF00001FF80
7FF80003FF80
7FF80003FF80
3FFC0003FF00
3FFC0007FF00
1FFE0007FE00
0FFF000FFC00
0FFF801FFC00
07FFE03FF800
03FFFFFFF000
01FFFFFFE000
007FFFFF8000
001FFFFE0000
0007FFF80000
00001F000000
ENDCHAR
STARTCHAR 0031
ENCODING 49
SWIDTH 398 0
DWIDTH 31 0
BBX 23 39 4 0
BITMAP
FFFFFE
FFFFFE
FFFFFE
FFFFFE
7FFFFE
0FFFE0
07FFC0
03FFC0
03FF80
03FF80
03FF80
03FF80
03FF80
03FF80
03FF80
03FF80
03FF80
03FF80
03FF80
03FF80
03FF80
03FF80
03FF80
03FF80
03FF80
03FF80
03FF80
03FF80
03FF80
03FF80
03FF80
03FFC0
07FFC0
0FFFE0
7FFFFE
FFFFFE
FFFFFE
FFFFFE
FFFFFE
ENDCHAR
STARTCHAR 0032
ENCODING 50
SWIDTH 514 0
DWIDTH 40 0
BBX 33 39 4 0
BITMAP
007FFF0000
07FFFFC000
1FFFFFF000
7FFFFFF800
7FFFFFFC00
3FE07FFC00
3FC03FFC00
3F801FFE00
3F801FFE00
3F001FFE00
3F001FFE00
3F001FFE00
3F001FFC00
3F001FFC00
07001FFC00
00003FF800
00003FF000
00007FE000
0000FFC000
0001FF8000
0003FF0000
0007FC0000
000FF80000
001FF00000
003FC00000
007F801F00
01FF001F00
03FE003F00
07F8007F00
0FFFFFFF00
1FFFFFFF00
3FFFFFFF00
7FFFFFFF00
FFFFFFFF80
FFFFFFFF80
FFFFFFFF80
FFFFFFFF80
FFFFFFFF80
7FFFFFFF00
ENDCHAR
STARTCHAR 0033
ENCODING 51
SWIDTH 501 0
DWIDTH 39 0
BBX 34 52 3 -13
BITMAP
3FFFFFFE00
3FFFFFFF00
3FFFFFFF00
3FFFFFFF00
3FFFFFFF00
3FFFFFFF00
3FFFFFFE00
3FFFFFFC00
3FFFFFF800
3FFFFFF000
3F800FF000
3F000FE000
7E001FC000
7E003F8000
3C007F0000
00007F0000
0000FE0000
0001FC0000
0003F80000
0007F80000
0007F00000
000FF80000
001FFFC000
003FFFF000
007FFFF800
007FFFFC00
003FFFFE00
003FFFFF00
0019FFFF00
00003FFF80
00000FFF80
00000FFF80
000007FF80
000003FFC0
000003FFC0
000003FFC0
000003FFC0
000003FFC0
000003FF80
000003FF80
000007FF80
000007FF00
00000FFF00
00000FFE00
00001FFE00
60007FFC00
FC01FFF800
FFFFFFF000
FFFFFFE000
7FFFFF8000
1FFFFE0000
03FFF00000
ENDCHAR
STARTCHAR 0034
ENCODING 52
SWIDTH 604 0
DWIDTH 47 0
BBX 42 52 2 -13
BITMAP
0000003FC000
0000007FC000
000000FFC000
000001FFC000
000001FFC000
000003FFC000
000007FFC000
00000FFFC000
00001FFFC000
00001FFFC000
00003FFFC000
00007FFFC000
0000FDFFC000
0001F9FFC000
0001F9FFC000
0003F1FFC000
0007E1FFC000
000FE1FFC000
001FC1FFC000
001F81FFC000
003F01FFC000
007F01FFC000
00FE01FFC000
01FC01FFC000
01FC01FFC000
03F801FFC000
07F001FFC000
0FE001FFC000
0FE001FFC000
1FC001FFC000
3FFFFFFFFFC0
7FFFFFFFFFC0
FFFFFFFFFFC0
FFFFFFFFFFC0
FFFFFFFFFFC0
7FFFFFFFFF80
7FFFFFFFFF80
7FFFFFFFFF80
3FFFFFFFFF80
200001FFC000
000001FFC000
000001FFC000
000001FFC000
000001FFC000
000001FFC000
000001FFC000
000001FFC000
000001FFC000
000001FFC000
000001FFC000
000001FF0000
000001E00000
ENDCHAR
STARTCHAR 0035
ENCODING 53
SWIDTH 475 0
DWIDTH 37 0
BBX 31 56 3 -13
BITMAP
0000007C
0000007C
000000FC
000001FC
03FFFFFC
03FFFFFC
07FFFFFC
07FFFFF8
07FFFFF8
07FFFFF8
07FFFFF8
0FFFFFF8
0FFFFFF8
0FFFFFE0
0F800000
1F800000
1F000000
1F000000
1F000000
1F000000
3FC00000
3FFC0000
3FFFC000
3FFFF000
7FFFFC00
7FFFFF00
3FFFFF80
3FFFFFE0
1FFFFFF0
07FFFFF0
007FFFF8
000FFFFC
0003FFFC
0000FFFC
00007FFE
00003FFE
00003FFE
00001FFE
00001FFE
00001FFE
00000FFE
00000FFE
00000FFE
00001FFC
00001FFC
00001FFC
00003FF8
00007FF8
0000FFF0
0001FFE0
6007FFC0
7FFFFF80
7FFFFF00
FFFFFC00
7FFFF000
1FFF8000
ENDCHAR
STARTCHAR 0036
ENCODING 54
SWIDTH 540 0
DWIDTH 42 0
BBX 37 51 3 -1
BITMAP
0000000600
000001FE00
00000FFE00
00007FFF00
0001FFFF00
0007FFF000
000FFF8000
003FFE0000
007FF80000
00FFE00000
01FFC00000
03FF800000
07FF000000
07FE000000
0FFE000000
1FFC000000
1FFC000000
3FF8000000
3FF8000000
3FF01F0000
7FF1FFF800
7FFFFFFE00
7FFFFFFF00
FFFFFFFF80
FFFFFFFFC0
FFF80FFFE0
FFE003FFE0
FFE001FFF0
FFE000FFF0
FFE000FFF8
FFE0007FF8
FFE0007FF8
FFE0003FF8
FFE0003FF8
FFE0003FF8
FFE0003FF8
FFE0003FF8
FFF0003FF8
FFF0003FF0
7FF0003FF0
7FF8007FF0
3FF8007FE0
3FFC00FFE0
1FFE00FFC0
1FFF01FF80
0FFFFFFF00
07FFFFFE00
03FFFFFC00
00FFFFF000
003FFFC000
0000F80000
ENDCHAR
STARTCHAR 0037
ENCODING 55
SWIDTH 475 0
DWIDTH 37 0
BBX 32 53 3 -14
BITMAP
7FFFFFFE
7FFFFFFE
7FFFFFFE
7FFFFFFF
7FFFFFFF
7FFFFFFE
7FFFFFFC
7FFFFFFC
7FFFFFF8
FFFFFFF8
FF8003F0
FF0003E0
FE0007E0
FC000FC0
FC000FC0
1C001F80
00003F00
00003F00
00007E00
00007E00
0000FC00
0001FC00
0001FC00
0003F800
0003F800
0007F000
0007F000
000FF000
000FE000
001FE000
001FE000
003FE000
003FC000
007FC000
007FC000
00FFC000
00FFC000
00FFC000
01FFC000
01FFC000
01FFC000
01FFC000
03FFC000
03FF8000
03FF8000
03FF8000
03FF8000
03FF8000
03FF0000
03F80000
03E00000
01C00000
00800000
ENDCHAR
STARTCHAR 0038
ENCODING 56
SWIDTH 540 0
DWIDTH 42 0
BBX 35 51 4 -1
BITMAP
0000400000
003FFF8000
00FFFFF000
03FFFFF800
07FFFFFC00
0FFC0FFE00
1FF807FF00
3FF803FF00
3FF003FF80
3FF001FF80
7FF001FF80
7FF001FF80
7FF001FF80
7FF801FF80
7FF801FF80
3FFC03FF00
3FFF03FF00
3FFF87FE00
1FFFE7FC00
0FFFFFF800
0FFFFFF000
07FFFFC000
03FFFF8000
00FFFFE000
007FFFF000
01FFFFF800
03FFFFFC00
07FFFFFE00
0FF8FFFF00
1FF07FFF80
3FF01FFF80
7FE00FFFC0
7FE007FFC0
FFE003FFC0
FFC003FFE0
FFC001FFE0
FFC001FFE0
FFC000FFE0
FFC000FFE0
FFE000FFE0
FFE000FFC0
FFE000FFC0
FFF001FFC0
7FF001FF80
7FF803FF80
3FFE07FF00
1FFFFFFE00
0FFFFFFC00
03FFFFF000
007FFFC000
0007F80000
ENDCHAR
STARTCHAR 0039
ENCODING 57
SWIDTH 540 0
DWIDTH 42 0
BBX 37 52 3 -13
BITMAP
000FFFC000
007FFFF000
01FFFFFC00
03FFFFFF00
07FFFFFF80
0FFE07FFC0
1FFC03FFC0
3FF801FFE0
3FF000FFE0
7FF000FFF0
7FE0007FF0
FFE0007FF0
FFE0007FF8
FFE0003FF8
FFE0003FF8
FFE0003FF8
FFE0003FF8
FFE0003FF8
FFE0003FF8
FFF0003FF8
FFF0003FF8
FFF8003FF8
7FF8003FF8
7FFC003FF8
3FFE003FF8
3FFF80FFF8
1FFFFFFFF8
0FFFFFFFF0
07FFFFFFF0
01FFFFFFF0
007FFE7FF0
000FE0FFE0
000000FFE0
000001FFC0
000001FFC0
000003FF80
000003FF00
000007FF00
00000FFE00
00001FFC00
00003FF800
00007FF000
0001FFE000
0003FFC000
000FFF8000
003FFE0000
00FFFC0000
07FFF00000
0FFFC00000
0FFF000000
0FF8000000
0F80000000
ENDCHAR
STARTCHAR 003A
ENCODING 58
SWIDTH 282 0
DWIDTH 22 0
BBX 12 34 5 1
BITMAP
0200
3FC0
7FE0
FFF0
FFF0
FFF0
FFF0
FFF0
FFF0
FFF0
7FE0
3FC0
0400
0000
0000
0000
0000
0000
0000
0000
0000
0000
0F00
3FC0
7FE0
FFF0
FFF0
FFF0
FFF0
FFF0
FFF0
FFE0
7FE0
3F80
ENDCHAR
STARTCHAR 003B
ENCODING 59
SWIDTH 282 0
DWIDTH 22 0
BBX 13 49 5 -14
BITMAP
0100
1FE0
3FF0
7FF8
7FF8
7FF8
7FF8
7FF8
7FF8
7FF0
3FF0
1FE0
0600
0000
0000
0000
0000
0000
0000
0000
0000
0000
0000
0000
0000
0060
03F0
7FF0
7FF8
7FF8
7FF8
7FF8
7FF8
7FF8
3FF8
0FF8
07F8
07F0
07F0
07F0
07E0
0FE0
0FC0
1F80
1F80
3F00
7E00
FC00
7C00
ENDCHAR
STARTCHAR 003C
ENCODING 60
SWIDTH 540 0
DWIDTH 42 0
BBX 32 38 5 0
BITMAP
0000001C
0000007E
000001FF
000003FF
00000FFE
00003FF8
0000FFE0
0001FF80
0007FF00
001FFC00
003FF000
00FFE000
03FF8000
07FE0000
1FF80000
7FF00000
FFC00000
FF000000
FC000000
FE000000
FF800000
FFE00000
7FF80000
1FFE0000
07FF8000
01FFE000
007FF800
001FFC00
0007FF00
0003FFC0
0000FFF0
00003FFC
00000FFE
000003FE
000001FE
0000007E
0000001E
0000000E
ENDCHAR
STARTCHAR 003D
ENCODING 61
SWIDTH 540 0
DWIDTH 42 0
BBX 35 19 4 10
BITMAP
7FFFFFFFE0
FFFFFFFFE0
FFFFFFFFE0
FFFFFFFFC0
FFFFFFFFC0
0000000000
0000000000
0000000000
0000000000
0000000000
0000000000
0000000000
0000000000
7FFFFFFFE0
FFFFFFFFE0
FFFFFFFFE0
FFFFFFFFE0
FFFFFFFFC0
FFFFFFFFC0
ENDCHAR
STARTCHAR 003E
ENCODING 62
SWIDTH 540 0
DWIDTH 42 0
BBX 32 39 6 1
BITMAP
08000000
3C000000
7F000000
FF800000
FFE00000
3FF00000
1FFC0000
07FF0000
01FF8000
00FFE000
003FF000
000FFC00
0007FE00
0001FF80
00007FE0
00003FF0
00000FFC
000003FE
000001FF
0000007F
0000007F
000001FF
000007FE
00001FFC
00007FF0
0000FFC0
0003FF80
000FFE00
003FF800
007FE000
01FF8000
07FF0000
1FFC0000
7FF00000
7FE00000
7F800000
7E000000
7C000000
30000000
ENDCHAR
STARTCHAR 003F
ENCODING 63
SWIDTH 527 0
DWIDTH 41 0
BBX 28 57 9 -1
BITMAP
003F8000
07FFF800
3FFFFE00
FFFFFF80
FFFFFFC0
FFC3FFC0
FF81FFE0
FF00FFE0
FF00FFE0
FE00FFF0
FE00FFF0
FE007FE0
FC00FFE0
FC00FFE0
7C00FFE0
0001FFC0
0001FFC0
0003FF80
0007FF00
000FFF00
001FFE00
003FFC00
003FF800
007FF000
007FE000
00FFC000
00FF8000
00FF8000
01FF0000
01FF0000
01FF0000
01FF0000
00FF0000
00FF0000
00FF0000
00FF0000
007F0000
007F0000
003F8000
001C0000
00000000
00000000
00000000
00000000
003F8000
007FE000
00FFE000
01FFF000
01FFF000
01FFF000
01FFF000
01FFF000
01FFF000
01FFE000
00FFE000
007FC000
000E0000
ENDCHAR
STARTCHAR 0040
ENCODING 64
SWIDTH 990 0
DWIDTH 77 0
BBX 62 67 8 -16
BITMAP
0000007FFFC00000
000003FFFFFC0000
00001FFFFFFF0000
00007FFFFFFFC000
0001FFF007FFF000
0007FF00003FF800
000FF8000007FE00
001FE0000001FF00
003F80000000FF80
007F000000003F80
00FE000000001FC0
01FC000000000FE0
03F8000000000FE0
03F00000000007F0
07E00000000003F0
0FC0007FFBFC03F0
0FC001FFFFFE01F8
1F8007FFFFFE01F8
1F800FFFFFFE01F8
3F001FFFFFFE00F8
3F003FF01FFE00FC
3F003FE007FE00FC
7E007FC007FE00FC
7E00FFC007FE00FC
7E00FFC007FE00FC
7E00FF8007FE00FC
FE01FF8007FE00FC
FC01FF8007FE00FC
FC01FF800FFE00FC
FC03FF800FFE00F8
FC03FF800FFE00F8
FC03FF800FFE00F8
FC03FF800FFE00F8
FC03FF801FFE00F8
FC03FF801FFE00F0
FC03FF801FFE01F0
FC03FF801FFE01F0
FC03FF803FFE01F0
FC03FF803FFE03E0
FE03FF807FFE03E0
FE03FFC07FFE03C0
7E03FFC0FFFE07C0
7E03FFC0FFFE0F80
7F01FFE1FFFF1F80
7F01FFFFEFFFFF00
3F01FFFFCFFFFE00
3F80FFFFC7FFFC00
3F80FFFF87FFF800
1FC07FFF07FFF000
1FC03FFE03FFC000
1FE00FF801FF8000
0FE001E000780000
0FF0000000000000
07F8000000000100
03FC000000000380
03FE0000000007C0
01FF000000000FE0
00FFC00000003FC0
007FE00000007F80
003FF8000003FF00
001FFF00000FFC00
0007FFF001FFF800
0003FFFFFFFFE000
0000FFFFFFFF8000
00001FFFFFFE0000
000003FFFFE00000
00000007FC000000
ENDCHAR
STARTCHAR 0041
ENCODING 65
SWIDTH 707 0
DWIDTH 55 0
BBX 53 53 1 0
BITMAP
000001F0000000
000001F8000000
000001F8000000
000003FC000000
000003FC000000
000007FE000000
000007FE000000
000007FE000000
00000FFF000000
00000FFF000000
00001FFF800000
00001FFF800000
00001FFFC00000
00003FFFC00000
00003DFFE00000
00007DFFE00000
00007DFFE00000
000078FFF00000
0000F8FFF00000
0000F8FFF80000
0001F07FF80000
0001F07FFC0000
0001E03FFC0000
0003E03FFE0000
0003E03FFE0000
0007C01FFE0000
0007C01FFF0000
000FC00FFF0000
000F800FFF8000
000F8007FF8000
001F0007FFC000
001F0007FFC000
003F0003FFE000
003E0003FFE000
003FFFFFFFE000
007FFFFFFFF000
007FFFFFFFF000
00FFFFFFFFF800
00FF0000FFF800
00F800007FFC00
01F000007FFC00
01F000003FFE00
03F000003FFE00
03E000001FFF00
07E000001FFF00
07E000001FFF80
0FF000001FFF80
1FF000001FFFC0
7FFE0000FFFFF0
7FFE0001FFFFF8
FFFE0001FFFFF8
FFFE0001FFFFF8
FFFF0001FFFFF8
ENDCHAR
STARTCHAR 0042
ENCODING 66
SWIDTH 668 0
DWIDTH 52 0
BBX 46 53 3 0
BITMAP
FFFFFFF00000
FFFFFFFFC000
FFFFFFFFF800
7FFFFFFFFE00
7FFFFFFFFF00
0FFFC0FFFF80
07FFC01FFF80
07FFC00FFFC0
03FFC007FFC0
03FFC007FFC0
03FFC003FFC0
03FFC003FFC0
03FFC003FFC0
03FFC001FFC0
03FFC001FFC0
03FFC001FFC0
03FFC003FFC0
03FFC003FF80
03FFC003FF80
03FFC007FF00
03FFC007FE00
03FFC01FFC00
03FFC03FF000
03FFFFFFC000
03FFFFFF0000
03FFFFFFF800
03FFFFFFFF00
03FFFFFFFF80
03FFC0FFFFC0
03FFC00FFFE0
03FFC007FFF0
03FFC001FFF8
03FFC001FFF8
03FFC000FFF8
03FFC000FFFC
03FFC0007FFC
03FFC0007FFC
03FFC0007FFC
03FFC0007FFC
03FFC0007FFC
03FFC0007FFC
03FFC0007FF8
03FFC000FFF8
03FFC000FFF8
03FFC000FFF0
03FFC001FFF0
07FFE003FFE0
0FFFF00FFFC0
7FFFFFFFFF80
7FFFFFFFFF00
FFFFFFFFFC00
FFFFFFFFE000
FFFFFFFE0000
ENDCHAR
STARTCHAR 0043
ENCODING 67
SWIDTH 642 0
DWIDTH 50 0
BBX 44 54 3 -1
BITMAP
00001FFFC000
0000FFFFF800
0003FFFFFF00
000FFFFFFFE0
003FFFCFFFE0
007FF800FFE0
00FFE0007FE0
01FFC0003FE0
03FF80001FE0
07FF00001FE0
0FFE00000FE0
0FFE00000FC0
1FFC00000FC0
3FFC00000FC0
3FF800000FC0
3FF800000FC0
7FF800000F00
7FF800000000
7FF000000000
FFF000000000
FFF000000000
FFF000000000
FFF000000000
FFF000000000
FFF000000000
FFF000000000
FFF000000000
FFF000000000
FFF000000000
FFF000000000
FFF000000000
FFF800000000
FFF800000000
FFF800000000
7FF800000000
7FFC00000000
7FFC00000000
3FFC00000000
3FFE00000000
3FFE00000000
1FFF00000000
1FFF80000000
0FFFC0000000
07FFE0000000
07FFF0000060
03FFF80001F0
01FFFE000FF0
00FFFFF1FFF0
007FFFFFFFE0
001FFFFFFF80
0007FFFFFE00
0003FFFFF800
00007FFFC000
000003F40000
ENDCHAR
STARTCHAR 0044
ENCODING 68
SWIDTH 732 0
DWIDTH 57 0
BBX 51 53 3 0
BITMAP
FFFFFFF0000000
FFFFFFFFE00000
FFFFFFFFFC0000
7FFFFFFFFF0000
7FFFFFFFFFC000
0FFFC00FFFE000
07FFC003FFF800
07FFC000FFFC00
03FFC0007FFE00
03FFC0003FFE00
03FFC0001FFF00
03FFC0000FFF00
03FFC0000FFF80
03FFC00007FF80
03FFC00007FFC0
03FFC00003FFC0
03FFC00003FFC0
03FFC00003FFE0
03FFC00001FFE0
03FFC00001FFE0
03FFC00001FFE0
03FFC00001FFE0
03FFC00001FFE0
03FFC00001FFE0
03FFC00001FFE0
03FFC00001FFE0
03FFC00001FFE0
03FFC00001FFE0
03FFC00001FFE0
03FFC00001FFE0
03FFC00001FFE0
03FFC00001FFE0
03FFC00001FFE0
03FFC00001FFE0
03FFC00001FFC0
03FFC00001FFC0
03FFC00003FFC0
03FFC00003FF80
03FFC00003FF80
03FFC00007FF80
03FFC00007FF00
03FFC0000FFE00
03FFC0000FFE00
03FFC0001FFC00
03FFC0003FF800
03FFC0007FF000
07FFE000FFE000
0FFFF007FFC000
7FFFFFFFFF0000
7FFFFFFFFE0000
FFFFFFFFF00000
FFFFFFFF800000
FFFFFFF8000000
ENDCHAR
STARTCHAR 0045
ENCODING 69
SWIDTH 617 0
DWIDTH 48 0
BBX 43 53 3 0
BITMAP
FFFFFFFFFE00
FFFFFFFFFE00
FFFFFFFFFE00
FFFFFFFFFE00
7FFFFFFFFE00
1FFFC00FFE00
07FFC003FF00
07FFC000FF00
03FFC0007F00
03FFC0007F00
03FFC0003F00
03FFC0003F00
03FFC0003F00
03FFC0001F00
03FFC0001000
03FFC0000000
03FFC0000000
03FFC0000000
03FFC01F8000
03FFC01F8000
03FFC01F8000
03FFC01F8000
03FFC03F8000
03FFC07F8000
03FFFFFF8000
03FFFFFF8000
03FFFFFF8000
03FFFFFF8000
03FFFFFF8000
03FFC0FF8000
03FFC03F8000
03FFC01F8000
03FFC01F8000
03FFC01F8000
03FFC00F8000
03FFC0078000
03FFC0000000
03FFC0000000
03FFC0000300
03FFC00007C0
03FFC00007E0
03FFC0000FE0
03FFC0000FE0
03FFC0001FE0
03FFC0001FC0
03FFC0003FC0
07FFE0007FC0
0FFFF001FFC0
7FFFFFFFFFC0
7FFFFFFFFF80
FFFFFFFFFF80
FFFFFFFFFF80
FFFFFFFFFF80
ENDCHAR
STARTCHAR 0046
ENCODING 70
SWIDTH 578 0
DWIDTH 45 0
BBX 41 53 3 0
BITMAP
FFFFFFFFFE00
FFFFFFFFFE00
FFFFFFFFFE00
7FFFFFFFFE00
7FFFFFFFFF00
0FFFC00FFF00
07FFC001FF00
07FFC000FF00
03FFC0007F00
03FFC0003F00
03FFC0003F00
03FFC0003F00
03FFC0001F80
03FFC0001F00
03FFC0001000
03FFC0000000
03FFC0000000
03FFC0000000
03FFC0000000
03FFC0000000
03FFC007C000
03FFC007C000
03FFC007C000
03FFC00FC000
03FFC00FC000
03FFC01FC000
03FFC3FFC000
03FFFFFFC000
03FFFFFFC000
03FFFFFFC000
03FFFFFFC000
03FFC07FC000
03FFC01FC000
03FFC00FC000
03FFC007C000
03FFC007C000
03FFC007C000
03FFC003C000
03FFC0000000
03FFC0000000
03FFC0000000
03FFC0000000
03FFC0000000
03FFC0000000
03FFC0000000
03FFE0000000
07FFF0000000
0FFFF8000000
7FFFFF800000
FFFFFFC00000
FFFFFFC00000
FFFFFFC00000
FFFFFFC00000
ENDCHAR
STARTCHAR 0047
ENCODING 71
SWIDTH 707 0
DWIDTH 55 0
BBX 49 54 3 -1
BITMAP
00000FFFE00000
0000FFFFFF0000
0003FFFFFFE000
000FFFFFFFF800
003FFFC7FFF800
007FFC007FF800
00FFF0001FF800
01FFC0000FF800
03FF800007F800
07FF000007F800
0FFF000003F800
1FFE000003F800
1FFC000003F800
3FFC000003F800
3FFC000001F800
3FF8000001F800
7FF80000000000
7FF80000000000
7FF00000000000
FFF00000000000
FFF00000000000
FFF00000000000
FFF00000000000
FFF00000000000
FFF00000000000
FFF00000000000
FFF00000000000
FFF00007F01F80
FFF00007FFFF80
FFF00007FFFF80
FFF00007FFFF80
FFF00007FFFF80
FFF80000FFFE00
FFF800003FFC00
7FF800001FFC00
7FF800001FF800
7FFC00001FF800
3FFC00001FF800
3FFC00001FF800
3FFE00001FF800
1FFE00001FF800
1FFF00001FF800
0FFF80001FF800
07FF80001FF800
07FFC0001FFC00
03FFE0001FFC00
01FFF0001FFC00
00FFFC007FFC00
007FFFE3FFF800
001FFFFFFFF000
000FFFFFFFC000
0001FFFFFE0000
00007FFFF00000
000000F8000000
ENDCHAR
STARTCHAR 0048
ENCODING 72
SWIDTH 771 0
DWIDTH 60 0
BBX 54 53 3 0
BITMAP
FFFFFE01FFFFFC
FFFFFE01FFFFFC
FFFFFE01FFFFFC
7FFFFE01FFFFFC
7FFFFE00FFFFFC
0FFFF0003FFFE0
07FFE0000FFFC0
07FFC0000FFF80
03FFC00007FF80
03FFC00007FF80
03FFC00007FF80
03FFC00007FF00
03FFC00007FF00
03FFC00007FF00
03FFC00007FF00
03FFC00007FF00
03FFC00007FF00
03FFC00007FF00
03FFC00007FF00
03FFC00007FF00
03FFC00007FF00
03FFC00007FF00
03FFC00007FF00
03FFC00007FF00
03FFFFFFFFFF00
03FFFFFFFFFF00
03FFFFFFFFFF00
03FFFFFFFFFF00
03FFFFC007FF00
03FFC00007FF00
03FFC00007FF00
03FFC00007FF00
03FFC00007FF00
03FFC00007FF00
03FFC00007FF00
03FFC00007FF00
03FFC00007FF00
03FFC00007FF00
03FFC00007FF00
03FFC00007FF00
03FFC00007FF00
03FFC00007FF00
03FFC00007FF80
03FFC00007FF80
03FFC00007FF80
03FFC0000FFF80
07FFE0000FFF80
0FFFE0001FFFC0
7FFFFE00FFFFFC
7FFFFE01FFFFFC
FFFFFE01FFFFFC
FFFFFE01FFFFFC
FFFFFE01FFFFFC
ENDCHAR
STARTCHAR 0049
ENCODING 73
SWIDTH 372 0
DWIDTH 29 0
BBX 23 53 3 0
BITMAP
FFFFFE
FFFFFE
FFFFFE
7FFFFE
7FFFFE
0FFFF0
07FFE0
07FFC0
03FFC0
03FFC0
03FFC0
03FFC0
03FFC0
03FFC0
03FFC0
03FFC0
03FFC0
03FFC0
03FFC0
03FFC0
03FFC0
03FFC0
03FFC0
03FFC0
03FFC0
03FFC0
03FFC0
03FFC0
03FFC0
03FFC0
03FFC0
03FFC0
03FFC0
03FFC0
03FFC0
03FFC0
03FFC0
03FFC0
03FFC0
03FFC0
03FFC0
03FFC0
03FFC0
03FFC0
03FFC0
03FFC0
07FFE0
0FFFE0
7FFFFE
7FFFFE
FFFFFE
FFFFFE
FFFFFE
ENDCHAR
STARTCHAR 004A
ENCODING 74
SWIDTH 360 0
DWIDTH 28 0
BBX 25 72 0 -19
BITMAP
3FFFFF80
3FFFFF80
3FFFFF80
1FFFFF80
1FFFFF80
03FFFC00
01FFF800
01FFF000
00FFF000
00FFF000
00FFF000
00FFF000
00FFF000
00FFF000
00FFF000
00FFF000
00FFF000
00FFF000
00FFF000
00FFF000
00FFF000
00FFF000
00FFF000
00FFF000
00FFF000
00FFF000
00FFF000
00FFF000
00FFF000
00FFF000
00FFF000
00FFF000
00FFF000
00FFF000
00FFF000
00FFF000
00FFF000
00FFF000
00FFF000
00FFF000
00FFF000
00FFF000
00FFF000
00FFF000
00FFF000
00FFF000
00FFF000
00FFF000
00FFE000
00FFE000
00FFE000
00FFE000
00FFE000
00FFE000
00FFE000
00FFC000
01FFC000
01FFC000
01FF8000
01FF8000
03FF0000
03FF0000
07FE0000
07FC0000
0FFC0000
1FF80000
3FE00000
7FC00000
FF800000
FE000000
FC000000
70000000
ENDCHAR
STARTCHAR 004B
ENCODING 75
SWIDTH 720 0
DWIDTH 56 0
BBX 52 54 3 -1
BITMAP
FFFFFE01FFFF80
FFFFFE01FFFF80
FFFFFE01FFFF80
7FFFFE01FFFF80
7FFFFE01FFFF80
0FFFF0007FFC00
07FFE0007FE000
07FFC0007FC000
03FFC0007F0000
03FFC000FE0000
03FFC001FC0000
03FFC003F80000
03FFC003F00000
03FFC007E00000
03FFC00FC00000
03FFC01F800000
03FFC03F000000
03FFC07F000000
03FFC0FE000000
03FFC1FC000000
03FFC3F8000000
03FFC7F0000000
03FFCFE0000000
03FFDFF0000000
03FFFFF8000000
03FFFFFC000000
03FFFFFE000000
03FFFFFF000000
03FFFFFF000000
03FFFFFF800000
03FFDFFFC00000
03FFCFFFE00000
03FFC7FFE00000
03FFC3FFF00000
03FFC1FFF80000
03FFC1FFFC0000
03FFC0FFFC0000
03FFC07FFE0000
03FFC03FFF0000
03FFC03FFF0000
03FFC01FFF8000
03FFC00FFFC000
03FFC007FFE000
03FFC007FFE000
03FFC003FFF000
03FFC001FFF800
07FFE001FFFE00
0FFFE000FFFF00
7FFFFE00FFFFF0
7FFFFE007FFFF0
FFFFFE003FFFF0
FFFFFE003FFFF0
FFFFFE001FFFF0
00000000180000
ENDCHAR
STARTCHAR 004C
ENCODING 76
SWIDTH 591 0
DWIDTH 46 0
BBX 43 53 3 0
BITMAP
FFFFFE000000
FFFFFE000000
FFFFFE000000
7FFFFE000000
7FFFFE000000
0FFFF0000000
07FFE0000000
07FFC0000000
03FFC0000000
03FFC0000000
03FFC0000000
03FFC0000000
03FFC0000000
03FFC0000000
03FFC0000000
03FFC0000000
03FFC0000000
03FFC0000000
03FFC0000000
03FFC0000000
03FFC0000000
03FFC0000000
03FFC0000000
03FFC0000000
03FFC0000000
03FFC0000000
03FFC0000000
03FFC0000000
03FFC0000000
03FFC0000000
03FFC0000000
03FFC0000000
03FFC0000000
03FFC0000000
03FFC0000000
03FFC0000000
03FFC0000000
03FFC0000000
03FFC0000600
03FFC0000F80
03FFC0000FE0
03FFC0000FC0
03FFC0001FC0
03FFC0001FC0
03FFC0003FC0
03FFC0007F80
07FFE000FF80
0FFFF003FF80
7FFFFFFFFF80
7FFFFFFFFF80
FFFFFFFFFF80
FFFFFFFFFF00
FFFFFFFFFF00
ENDCHAR
STARTCHAR 004D
ENCODING 77
SWIDTH 964 0
DWIDTH 75 0
BBX 71 54 2 -1
BITMAP
1FFFF00000001FFFF0
1FFFF80000001FFFF0
1FFFF80000003FFFF0
1FFFFC0000003FFFF0
0FFFFC0000003FFFF0
01FFFE0000007FFF80
00FFFE0000007FFF00
007FFE000000FFFE00
007FFF000000FFFE00
007FFF000000FFFE00
007FFF800001FFFC00
007FFF800001FFFC00
007FFFC00001FFFE00
007FFFC00003FFFE00
007FFFC00003FFFE00
007FFFE00007FFFE00
007FFFE00007DFFE00
00FDFFF00007DFFE00
00FDFFF0000FDFFE00
00F8FFF8000F9FFE00
00F8FFF8000F9FFE00
00F87FF8001F0FFE00
00F87FFC001F0FFF00
00F83FFC003F0FFF00
00F83FFE003E0FFF00
00F83FFE003E0FFF00
00F81FFF007C0FFF00
00F81FFF007C0FFF00
01F80FFF807C0FFF00
01F00FFF80F80FFF00
01F007FF80F807FF00
01F007FFC1F007FF00
01F003FFC1F007FF80
01F003FFE1F007FF80
01F003FFE3E007FF80
01F001FFF3E007FF80
01F001FFF7C007FF80
01F000FFF7C007FF80
03E000FFFFC007FF80
03E0007FFF8007FF80
03E0007FFF8003FF80
03E0003FFF0003FF80
03E0003FFF0003FFC0
03E0003FFF0003FFC0
07F0001FFE0003FFC0
07F0001FFE0003FFC0
0FF0000FFC0007FFE0
1FF8000FFC000FFFF0
FFFF8007F8007FFFFE
FFFF8007F8007FFFFE
FFFF8003F800FFFFFE
FFFF8003F000FFFFFE
FFFF8001F000FFFFFE
00000001C000000000
ENDCHAR
STARTCHAR 004E
ENCODING 78
SWIDTH 720 0
DWIDTH 56 0
BBX 51 54 3 -1
BITMAP
FFFE00003FFFE0
FFFF00003FFFE0
FFFF80003FFFE0
FFFF80003FFFE0
FFFFC0003FFFC0
1FFFE00007FF00
07FFF00001FE00
07FFF00001FC00
03FFF80000FC00
03FFFC0000FC00
03FFFE0000FC00
03FFFE0000FC00
03FFFF0000FC00
03FFFF8000F800
03FFFFC0007800
03EFFFC0007800
03EFFFE0007800
03E7FFF0007800
03E3FFF8007800
03E1FFF8007800
03E1FFFC007800
03E0FFFE007800
03E07FFF007800
03E03FFF007800
03E03FFF807800
03E01FFFC07800
03E00FFFC07800
03E007FFE07800
03E007FFF07800
03E003FFF87800
03E001FFF87800
03E000FFFC7800
03E000FFFE7800
03E0007FFF7800
03E0003FFF7800
03E0001FFFF800
03E0001FFFF800
03E0000FFFF800
03E00007FFF800
03E00003FFF800
03E00003FFF800
03E00001FFF800
03E00000FFF800
03E000007FF800
07F000007FF800
07F000003FF800
07F000001FF800
0FF800000FF800
FFFF80000FF800
FFFF800007F800
FFFF800003F800
FFFF800001F800
FFFF800001F800
0000000000E000
ENDCHAR
STARTCHAR 004F
ENCODING 79
SWIDTH 745 0
DWIDTH 58 0
BBX 52 54 3 -1
BITMAP
00001FFF800000
0000FFFFF00000
0007FFFFFE0000
000FFFFFFF8000
003FFFFFFFC000
007FF007FFE000
00FFE001FFF800
01FF8000FFFC00
03FF00003FFC00
07FF00001FFE00
0FFE00001FFF00
0FFC00000FFF80
1FFC000007FF80
1FFC000007FFC0
3FF8000003FFC0
3FF8000003FFE0
7FF8000003FFE0
7FF0000001FFE0
7FF0000001FFE0
FFF0000001FFF0
FFF0000001FFF0
FFF0000000FFF0
FFF0000000FFF0
FFF0000000FFF0
FFF0000000FFF0
FFF0000000FFF0
FFF0000000FFF0
FFF0000000FFF0
FFF0000000FFF0
FFF0000000FFF0
FFF0000000FFF0
FFF0000000FFF0
FFF8000000FFF0
FFF8000000FFF0
7FF8000000FFE0
7FF8000001FFE0
7FFC000001FFE0
3FFC000001FFC0
3FFC000001FFC0
3FFE000003FF80
1FFE000003FF80
1FFF000007FF00
0FFF000007FF00
07FF80000FFE00
07FFC0000FFC00
03FFE0001FF800
01FFF0003FF000
00FFFC00FFE000
003FFF87FFC000
001FFFFFFF8000
000FFFFFFE0000
0001FFFFF80000
00007FFFC00000
000001F8000000
ENDCHAR
STARTCHAR 0050
ENCODING 80
SWIDTH 630 0
DWIDTH 49 0
BBX 44 53 3 0
BITMAP
FFFFFFF00000
FFFFFFFFC000
FFFFFFFFF000
7FFFFFFFFC00
7FFFFFFFFE00
0FFFC0FFFF80
07FFC01FFF80
07FFC00FFFC0
03FFC007FFE0
03FFC003FFE0
03FFC003FFE0
03FFC001FFF0
03FFC001FFF0
03FFC001FFF0
03FFC000FFF0
03FFC000FFF0
03FFC000FFF0
03FFC000FFF0
03FFC000FFF0
03FFC000FFF0
03FFC000FFF0
03FFC000FFE0
03FFC001FFE0
03FFC001FFE0
03FFC001FFC0
03FFC003FFC0
03FFC003FF80
03FFC007FF80
03FFC00FFF00
03FFC03FFE00
03FFCFFFFC00
03FFCFFFF800
03FFCFFFE000
03FFCFFF8000
03FFC7FC0000
03FFC0000000
03FFC0000000
03FFC0000000
03FFC0000000
03FFC0000000
03FFC0000000
03FFC0000000
03FFC0000000
03FFC0000000
03FFC0000000
03FFE0000000
07FFF0000000
0FFFF8000000
7FFFFF800000
FFFFFFC00000
FFFFFFC00000
FFFFFFC00000
FFFFFFC00000
ENDCHAR
STARTCHAR 0051
ENCODING 81
SWIDTH 745 0
DWIDTH 58 0
BBX 57 69 3 -16
BITMAP
00001FFF80000000
0000FFFFF0000000
0007FFFFFE000000
000FFFFFFF800000
003FFFFFFFC00000
007FF007FFE00000
00FFE001FFF80000
01FF8000FFFC0000
03FF00003FFC0000
07FF00001FFE0000
0FFE00001FFF0000
0FFC00000FFF8000
1FFC000007FF8000
1FFC000007FFC000
3FF8000003FFC000
3FF8000003FFE000
7FF8000003FFE000
7FF0000001FFE000
7FF0000001FFE000
FFF0000001FFF000
FFF0000001FFF000
FFF0000000FFF000
FFF0000000FFF000
FFF0000000FFF000
FFF0000000FFF000
FFF0000000FFF000
FFF0000000FFF000
FFF0000000FFF000
FFF0000000FFF000
FFF0000000FFF000
FFF0000000FFF000
FFF0000000FFF000
FFF8000000FFF000
FFF8000000FFF000
7FF8000000FFE000
7FF8000001FFE000
7FFC000001FFE000
3FFC000001FFC000
3FFC000001FFC000
3FFE000003FF8000
1FFE000003FF8000
1FFF000007FF0000
0FFF000007FF0000
07FF80000FFE0000
07FFC0000FFC0000
03FFE0001FF80000
01FFF0003FF80000
00FFFC00FFE00000
003FFF87FFC00000
001FFFFFFF800000
000FFFFFFE000000
0001FFFFF8000000
00007FFFFC000000
000001FFFF000000
00000007FFC00000
00000001FFF00000
00000000FFF80000
000000007FFE0000
000000003FFF0000
000000001FFFE000
000000000FFFFF80
000000000FFFFF80
0000000007FFFF80
0000000003FFFF80
0000000001FFFF80
0000000000FFFC00
00000000007FC000
00000000003F0000
0000000000080000
ENDCHAR
STARTCHAR 0052
ENCODING 82
SWIDTH 694 0
DWIDTH 54 0
BBX 50 54 3 -1
BITMAP
FFFFFFFE000000
FFFFFFFFE00000
FFFFFFFFFC0000
FFFFFFFFFE0000
7FFFFFFFFF8000
0FFFC03FFF8000
07FFC00FFFC000
07FFC003FFE000
03FFC001FFE000
03FFC001FFF000
03FFC000FFF000
03FFC000FFF000
03FFC000FFF800
03FFC000FFF800
03FFC000FFF800
03FFC000FFF800
03FFC000FFF000
03FFC000FFF000
03FFC000FFF000
03FFC000FFF000
03FFC001FFE000
03FFC001FFE000
03FFC003FFC000
03FFC007FFC000
03FFC01FFF8000
03FFC07FFF0000
03FFFFFFFE0000
03FFFFFFF80000
03FFFFFFE00000
03FFFFFF800000
03FFFFFFC00000
03FFC3FFE00000
03FFC1FFF00000
03FFC0FFF80000
03FFC07FFC0000
03FFC03FFC0000
03FFC03FFE0000
03FFC01FFF0000
03FFC01FFF0000
03FFC00FFF8000
03FFC00FFF8000
03FFC007FFC000
03FFC007FFC000
03FFC003FFE000
03FFC003FFF000
03FFC001FFF000
07FFC001FFF800
0FFFE000FFFE00
7FFFFC00FFFFC0
7FFFFC007FFFC0
FFFFFC007FFFC0
FFFFFE007FFFC0
FFFFFE003FFFC0
00000000180000
ENDCHAR
STARTCHAR 0053
ENCODING 83
SWIDTH 552 0
DWIDTH 43 0
BBX 37 54 4 -1
BITMAP
000FFF8000
007FFFF800
01FFFFFF00
03FFFFFF80
0FFFFFFF80
0FF807FF80
1FF001FF80
3FE000FF80
3FE000FF80
3FC0007F80
7FC0007F80
7FC0003F80
7FC0003F80
7FE0003F80
7FE0003F80
7FF0000000
7FF8000000
7FFE000000
7FFF000000
7FFFC00000
3FFFF00000
3FFFFE0000
1FFFFF8000
1FFFFFE000
0FFFFFF000
07FFFFFC00
03FFFFFE00
01FFFFFF00
00FFFFFF80
003FFFFFC0
000FFFFFE0
0003FFFFE0
0000FFFFF0
00003FFFF0
00000FFFF0
000003FFF0
3F0001FFF8
7F0000FFF8
7F00007FF8
7F00003FF8
7F00003FF0
FF00003FF0
FF80003FF0
FF80003FF0
FF80003FE0
FFC0007FE0
FFE000FFC0
FFF001FFC0
FFFFBFFF80
7FFFFFFF00
1FFFFFFC00
07FFFFF000
00FFFFC000
0003F00000
ENDCHAR
STARTCHAR 0054
ENCODING 84
SWIDTH 642 0
DWIDTH 50 0
BBX 47 53 2 0
BITMAP
3FFFFFFFFFFC
3FFFFFFFFFFC
7FFFFFFFFFFC
7FFFFFFFFFFC
7FFFFFFFFFFC
7FF83FF81FFC
7FC03FF807FC
7F803FF803FC
7F003FF801FC
7F003FF800FC
7E003FF800FC
FE003FF800FE
FE003FF800FE
FC003FF8007E
3C003FF80078
00003FF80000
00003FF80000
00003FF80000
00003FF80000
00003FF80000
00003FF80000
00003FF80000
00003FF80000
00003FF80000
00003FF80000
00003FF80000
00003FF80000
00003FF80000
00003FF80000
00003FF80000
00003FF80000
00003FF80000
00003FF80000
00003FF80000
00003FF80000
00003FF80000
00003FF80000
00003FF80000
00003FF80000
00003FF80000
00003FF80000
00003FF80000
00003FF80000
00003FF80000
00007FFC0000
00007FFC0000
0000FFFC0000
0001FFFE0000
003FFFFFF000
003FFFFFF000
003FFFFFF800
003FFFFFF800
003FFFFFF800
ENDCHAR
STARTCHAR 0055
ENCODING 85
SWIDTH 681 0
DWIDTH 53 0
BBX 49 54 2 -1
BITMAP
FFFFFE007FFF80
FFFFFE007FFF80
FFFFFE007FFF80
7FFFFE007FFF00
7FFFFE007FFF00
1FFFF0001FFC00
07FFC00007F800
07FFC00007F000
07FFC00003F000
03FF800003F000
03FF800003F000
03FF800003E000
03FF800003E000
03FF800003E000
03FF800003E000
03FF800003E000
03FF800003E000
03FF800003E000
03FF800003E000
03FF800003E000
03FF800003E000
03FF800003E000
03FF800003E000
03FF800003E000
03FF800003E000
03FF800003E000
03FF800003E000
03FF800003E000
03FF800003E000
03FF800003E000
03FF800003E000
03FF800003E000
03FF800003E000
03FF800003E000
03FF800003E000
03FF800003E000
03FF800003E000
03FFC00003E000
03FFC00003E000
03FFC00003E000
03FFC00003E000
03FFC00007E000
01FFE00007E000
01FFE00007C000
01FFF0000FC000
00FFF8001FC000
00FFFC003F8000
007FFE007F0000
007FFFFFFF0000
003FFFFFFE0000
000FFFFFFC0000
0007FFFFF00000
0000FFFFC00000
000003FC000000
ENDCHAR
STARTCHAR 0056
ENCODING 86
SWIDTH 694 0
DWIDTH 54 0
BBX 52 54 1 -1
BITMAP
FFFFFE000FFFF0
FFFFFE000FFFF0
FFFFFE000FFFF0
FFFFFE000FFFF0
7FFFFC0007FFE0
3FFFF00001FFC0
0FFFE00000FF00
0FFFC00000FF00
07FFC00000FE00
07FFE00000FC00
03FFE00000FC00
03FFE00000FC00
01FFF00000F800
01FFF00001F800
00FFF80001F000
00FFF80001F000
007FF80003F000
007FFC0003E000
007FFC0003E000
003FFC0007C000
003FFE0007C000
001FFE000FC000
001FFF000F8000
000FFF000F8000
000FFF001F0000
000FFF801F0000
0007FF801F0000
0007FFC03E0000
0003FFC03E0000
0003FFC07C0000
0003FFE07C0000
0001FFE0FC0000
0001FFE0F80000
0000FFF0F80000
0000FFF1F00000
0000FFF1F00000
00007FFBF00000
00007FFBE00000
00003FFFE00000
00003FFFC00000
00003FFFC00000
00001FFF800000
00001FFF800000
00000FFF800000
00000FFF000000
00000FFF000000
000007FE000000
000007FE000000
000007FE000000
000003FC000000
000003FC000000
000001F8000000
000001F8000000
000001C0000000
ENDCHAR
STARTCHAR 0057
ENCODING 87
SWIDTH 990 0
DWIDTH 77 0
BBX 75 54 1 -1
BITMAP
FFFFFE0003E0003FFFE0
FFFFFE0003F0001FFFE0
FFFFFE0007F0001FFFE0
FFFFFE0007F8001FFFE0
7FFFFC0007F8001FFFC0
3FFFF0000FF80007FF80
0FFFC0000FFC0001FF00
0FFFC0000FFC0000FE00
07FFC0001FFE0000FE00
07FFC0001FFE0000FC00
07FFC0001FFE0000FC00
03FFC0003FFF0000F800
03FFE0003FFF0000F800
01FFE0003FFF0000F800
01FFE0007FFF8001F000
01FFF0007FFF8001F000
00FFF000FFFFC001F000
00FFF000FFFFC001E000
00FFF800FFFFC003E000
00FFF801FBFFE003E000
007FF801F3FFE003E000
007FFC01F1FFE007C000
007FFC03F1FFF007C000
003FFC03E1FFF007C000
003FFE03E0FFF80F8000
003FFE07E0FFF80F8000
001FFE07C07FF80F8000
001FFE07C07FFC1F0000
001FFF0F807FFC1F0000
000FFF0F803FFC1F0000
000FFF0F803FFE1E0000
000FFF9F003FFE3E0000
0007FF9F001FFE3E0000
0007FF9F001FFF3E0000
0007FFBE000FFF7C0000
0003FFFE000FFFFC0000
0003FFFE000FFFFC0000
0003FFFC0007FFF80000
0001FFFC0007FFF80000
0001FFFC0007FFF80000
0001FFF80003FFF00000
0001FFF80003FFF00000
0000FFF80001FFF00000
0000FFF00001FFE00000
0000FFF00001FFE00000
00007FF00000FFE00000
00007FE00000FFE00000
00007FE00000FFC00000
00003FE000007FC00000
00003FC000007FC00000
00003FC000007F800000
00003FC000003F800000
00001F8000003F800000
00001E0000001E000000
ENDCHAR
STARTCHAR 0058
ENCODING 88
SWIDTH 694 0
DWIDTH 54 0
BBX 50 53 2 0
BITMAP
7FFFFF80FFFF80
7FFFFF80FFFF80
7FFFFF80FFFF80
3FFFFF80FFFF80
3FFFFF00FFFF80
0FFFFC001FFE00
07FFF8000FF800
03FFF8000FF000
01FFF8000FE000
00FFFC001FC000
00FFFC001F8000
007FFE003F0000
003FFE003F0000
003FFF007E0000
001FFF80FC0000
000FFF80FC0000
000FFFC1F80000
0007FFE3F00000
0003FFE3F00000
0003FFF7E00000
0001FFFFC00000
0000FFFFC00000
0000FFFF800000
00007FFF800000
00007FFF000000
00003FFF000000
00001FFF000000
00001FFF800000
00001FFFC00000
00001FFFC00000
00003FFFE00000
00007FFFF00000
0000FFFFF00000
0000FDFFF80000
0001F8FFF80000
0003F0FFFC0000
0003F07FFE0000
0007E07FFE0000
000FC03FFF0000
000FC01FFF0000
001F801FFF8000
003F000FFFC000
007F000FFFC000
00FE0007FFE000
01FE0007FFF000
03FE0003FFF800
07FC0003FFFC00
1FFE0007FFFE00
7FFFC01FFFFFC0
7FFFC01FFFFFC0
FFFFC03FFFFFC0
FFFFC03FFFFFC0
FFFFC03FFFFFC0
ENDCHAR
STARTCHAR 0059
ENCODING 89
SWIDTH 630 0
DWIDTH 49 0
BBX 47 53 1 0
BITMAP
FFFFFE00FFFE
FFFFFE00FFFE
FFFFFE00FFFE
7FFFFE00FFFE
7FFFFC007FFC
1FFFF0001FF8
0FFFE0000FE0
07FFE0000FE0
03FFF0000FC0
03FFF0000F80
01FFF0001F80
01FFF8001F00
00FFF8003F00
00FFFC003E00
007FFC007E00
007FFC007C00
003FFE007C00
003FFE00F800
001FFF00F800
001FFF01F000
000FFF81F000
000FFF83E000
0007FFC3E000
0007FFC7C000
0003FFC7C000
0003FFE78000
0001FFEF8000
0001FFFF8000
0000FFFF0000
0000FFFF0000
00007FFE0000
00007FFE0000
00003FFC0000
00003FFC0000
00003FFC0000
00003FFC0000
00003FFC0000
00003FFC0000
00003FFC0000
00003FFC0000
00003FFC0000
00003FFC0000
00003FFC0000
00003FFC0000
00003FFC0000
00003FFC0000
00007FFE0000
0000FFFF0000
001FFFFFF800
003FFFFFF800
003FFFFFF800
003FFFFFF800
003FFFFFF800
ENDCHAR
STARTCHAR 005A
ENCODING 90
SWIDTH 604 0
DWIDTH 47 0
BBX 41 53 3 0
BITMAP
0FFFFFFFFC00
0FFFFFFFFE00
1FFFFFFFFE00
1FFFFFFFFE00
1FFFFFFFFE00
1FFC007FFE00
1FF0007FFC00
1FE000FFFC00
1FE000FFF800
1FC001FFF800
1FC001FFF000
1F8003FFF000
3F8003FFE000
3F8007FFE000
3F000FFFC000
01000FFFC000
00001FFF8000
00001FFF8000
00003FFF0000
00003FFE0000
00007FFE0000
00007FFC0000
0000FFFC0000
0001FFF80000
0001FFF80000
0003FFF00000
0003FFF00000
0007FFE00000
0007FFC00000
000FFFC00000
001FFF800000
001FFF800000
003FFF000000
003FFF000000
007FFE000000
00FFFC000000
00FFFC000000
01FFF8000000
01FFF8003800
03FFF0003F00
07FFE0003F80
07FFE0007F00
0FFFC0007F00
0FFFC0007F00
1FFF8000FF00
1FFF0001FF00
3FFF0003FE00
7FFE0007FE00
7FFFFFFFFE00
FFFFFFFFFE00
FFFFFFFFFE00
7FFFFFFFFE00
7FFFFFFFFE00
ENDCHAR
STARTCHAR 005B
ENCODING 91
SWIDTH 282 0
DWIDTH 22 0
BBX 17 79 3 -21
BITMAP
FFFF00
FFFF00
FFFF00
FFFF00
FFFF80
FFF800
FFC000
FF0000
FF0000
FF0000
FF0000
FF0000
FF0000
FF0000
FF0000
FF0000
FF0000
FF0000
FF0000
FF0000
FF0000
FF0000
FF0000
FF0000
FF0000
FF0000
FF0000
FF0000
FF0000
FF0000
FF0000
FF0000
FF0000
FF0000
FF0000
FF0000
FF0000
FF0000
FF0000
FF0000
FF0000
FF0000
FF0000
FF0000
FF0000
FF0000
FF0000
FF0000
FF0000
FF0000
FF0000
FF0000
FF0000
FF0000
FF0000
FF0000
FF0000
FF0000
FF0000
FF0000
FF0000
FF0000
FF0000
FF0000
FF0000
FF0000
FF0000
FF0000
FF0000
FF0000
FF0000
FF0000
FF8000
FFE000
FFFF00
FFFF00
FFFF00
FFFF80
FFFF80
ENDCHAR
STARTCHAR 005C
ENCODING 92
SWIDTH 385 0
DWIDTH 30 0
BBX 26 56 2 0
BITMAP
18000000
FC000000
7C000000
7E000000
7E000000
3E000000
3F000000
1F000000
1F800000
1F800000
0F800000
0FC00000
0FC00000
07C00000
07E00000
03E00000
03F00000
03F00000
01F00000
01F80000
01F80000
00F80000
00FC0000
007C0000
007E0000
007E0000
003E0000
003F0000
003F0000
001F0000
001F8000
001F8000
000F8000
000FC000
0007C000
0007E000
0007E000
0003E000
0003F000
0003F000
0001F000
0001F800
0000F800
0000FC00
0000FC00
00007C00
00007E00
00007E00
00003E00
00003F00
00001F00
00001F80
00001F80
00000F80
00000FC0
00000FC0
ENDCHAR
STARTCHAR 005D
ENCODING 93
SWIDTH 282 0
DWIDTH 22 0
BBX 17 79 3 -21
BITMAP
7FFF80
7FFF80
FFFF80
FFFF80
FFFF80
0FFF80
01FF80
00FF80
007F80
007F80
007F80
007F80
007F80
007F80
007F80
007F80
007F80
007F80
007F80
007F80
007F80
007F80
007F80
007F80
007F80
007F80
007F80
007F80
007F80
007F80
007F80
007F80
007F80
007F80
007F80
007F80
007F80
007F80
007F80
007F80
007F80
007F80
007F80
007F80
007F80
007F80
007F80
007F80
007F80
007F80
007F80
007F80
007F80
007F80
007F80
007F80
007F80
007F80
007F80
007F80
007F80
007F80
007F80
007F80
007F80
007F80
007F80
007F80
007F80
007F80
007F80
007F80
00FF80
07FF80
7FFF80
FFFF80
FFFF80
FFFF80
FFFF80
ENDCHAR
STARTCHAR 005E
ENCODING 94
SWIDTH 540 0
DWIDTH 42 0
BBX 37 25 3 29
BITMAP
0000180000
0000FC0000
0001FC0000
0003FE0000
0007FE0000
000FFF0000
000FDF8000
001FDF8000
003F8FC000
007F07E000
00FE07F000
00FC03F000
01F801F800
03F801FC00
07F000FC00
07E0007E00
0FC0003F00
1F80003F00
3F80001F80
7F00000FC0
7E00000FE0
FC000007E0
F8000003F0
78000003F8
30000001E0
ENDCHAR
STARTCHAR 005F
ENCODING 95
SWIDTH 540 0
DWIDTH 42 0
BBX 39 6 2 -12
BITMAP
7FFFFFFFFE
FFFFFFFFFE
FFFFFFFFFE
FFFFFFFFFE
FFFFFFFFFC
C700000000
ENDCHAR
STARTCHAR 0060
ENCODING 96
SWIDTH 295 0
DWIDTH 23 0
BBX 15 14 4 42
BITMAP
03C0
7FC0
FFE0
7FE0
3FE0
1FF0
0FF0
07F8
03F8
03F8
01FC
00FC
00FE
007E
ENDCHAR
STARTCHAR 0061
ENCODING 97
SWIDTH 501 0
DWIDTH 39 0
BBX 37 37 2 -1
BITMAP
0003FF8000
000FFFE000
003FFFF000
00FFFFF800
03FFFFFC00
07E0FFFC00
0FE03FFE00
1FE03FFE00
3FE01FFE00
7FE01FFE00
7FE00FFE00
FFE00FFE00
FFE00FFE00
7FE00FFE00
00001FFE00
00007FFE00
0001FFFE00
000FFFFE00
003FEFFE00
00FF8FFE00
03FE0FFE00
1FFC0FFE00
3FF00FFE00
7FE00FFE00
7FE00FFE00
7FE00FFE00
FFE00FFE00
FFF00FFF00
FFF00FFF80
FFF00FFFE0
7FF81FFFF8
7FFFFFFFF8
7FFFFFFFF8
3FFFEFFFF8
1FFFC7FFE0
07FF03FF00
002000F000
ENDCHAR
STARTCHAR 0062
ENCODING 98
SWIDTH 591 0
DWIDTH 46 0
BBX 44 57 0 -1
BITMAP
000200000000
001F00000000
07FF80000000
7FFF80000000
FFFF80000000
FFFF80000000
FFFF80000000
3FFF80000000
07FF80000000
07FF80000000
03FF80000000
03FF80000000
03FF80000000
03FF80000000
03FF80000000
03FF80000000
03FF80000000
03FF80000000
03FF80000000
03FF80000000
03FF80FFE000
03FF83FFF800
03FF87FFFC00
03FF9FFFFF00
03FFBFFFFF80
03FFFFFFFF80
03FFFC0FFFC0
03FFE007FFC0
03FF8003FFE0
03FF8001FFE0
03FF8001FFE0
03FF8001FFF0
03FF8000FFF0
03FF8000FFF0
03FF8000FFF0
03FF8000FFF0
03FF8000FFF0
03FF8000FFF0
03FF8000FFF0
03FF8000FFF0
03FF8000FFF0
03FF8000FFE0
03FF8000FFE0
03FF8000FFE0
03FF8000FFC0
03FF8001FFC0
03FF8001FF80
03FF8003FF80
07FF8003FF00
07FF8007FE00
07FFC00FFE00
07FFF03FFC00
03FFFFFFF000
00FFFFFFE000
003FFFFF8000
0007FFFE0000
00000F800000
ENDCHAR
STARTCHAR 0063
ENCODING 99
SWIDTH 462 0
DWIDTH 36 0
BBX 31 37 3 -1
BITMAP
000FFF80
007FFFF0
00FFFFFC
03FFFFFE
07FF9FFC
0FFC07FC
1FF803FC
1FF803FC
3FF001FC
3FF001FC
7FF000FC
7FE000FC
7FE000FC
FFE00000
FFE00000
FFE00000
FFE00000
FFE00000
FFE00000
FFE00000
FFE00000
FFE00000
FFE00000
FFF00000
FFF00000
7FF80000
7FF80000
3FFC0000
3FFE0004
1FFF001E
1FFFE0FE
0FFFFFFE
07FFFFFC
01FFFFF8
00FFFFF0
001FFFC0
0001F800
ENDCHAR
STARTCHAR 0064
ENCODING 100
SWIDTH 604 0
DWIDTH 47 0
BBX 42 57 3 -1
BITMAP
000000001000
00000000F800
0000003FF800
000007FFFC00
000007FFFC00
000007FFFC00
000007FFFC00
000001FFFC00
0000007FFC00
0000003FFC00
0000003FFC00
0000001FFC00
0000001FFC00
0000001FFC00
0000001FFC00
0000001FFC00
0000001FFC00
0000001FFC00
0000001FFC00
0000001FFC00
0003FFFFFC00
001FFFFFFC00
007FFFFFFC00
00FFFFFFFC00
01FFE1FFFC00
07FF007FFC00
07FE003FFC00
0FFC001FFC00
1FF8001FFC00
3FF8001FFC00
3FF0001FFC00
7FF0001FFC00
7FF0001FFC00
7FF0001FFC00
FFE0001FFC00
FFE0001FFC00
FFE0001FFC00
FFE0001FFC00
FFE0001FFC00
FFE0001FFC00
FFE0001FFC00
FFF0001FFC00
FFF0001FFC00
FFF0001FFC00
FFF8001FFC00
FFF8001FFC00
FFFC001FFC00
7FFC001FFC00
7FFE001FFE00
3FFF001FFFC0
3FFFE0FFFFC0
1FFFFFFFFFC0
0FFFFFDFFFC0
07FFFF9FFFC0
03FFFE1FF800
00FFF81E0000
0007C0100000
ENDCHAR
STARTCHAR 0065
ENCODING 101
SWIDTH 501 0
DWIDTH 39 0
BBX 34 37 3 -1
BITMAP
000FFF0000
007FFFC000
01FFFFF000
03FFFFF800
07FFFFFC00
0FFC0FFE00
1FF807FE00
1FF803FF00
3FF003FF00
7FF001FF80
7FF001FF80
7FE001FF80
FFE001FFC0
FFE001FFC0
FFE001FFC0
FFFFFFFFC0
FFFFFFFFC0
FFFFFFFFC0
FFFFFFFF80
FFFFFFFF00
FFE0000000
FFE0000000
FFF0000000
FFF0000000
FFF0000000
7FF8000000
7FF8000000
3FFC000100
3FFE000380
1FFF000F80
1FFFE07FC0
0FFFFFFF80
07FFFFFF00
03FFFFFE00
00FFFFF800
001FFFE000
0000F80000
ENDCHAR
STARTCHAR 0066
ENCODING 102
SWIDTH 385 0
DWIDTH 30 0
BBX 34 56 2 0
BITMAP
000003E000
00007FFF00
0001FFFFC0
0007FFFFC0
000FFFFFC0
001FFBFFC0
003FE07FC0
007FE07FC0
007FC03FC0
00FFC03FC0
00FFC01FC0
00FFC01FC0
01FFC01FC0
01FFC00000
01FFC00000
01FFC00000
01FFC00000
03FFC00000
03FFC00000
03FFC00000
03FFC00000
7FFFFFC000
7FFFFFC000
7FFFFFC000
FFFFFFC000
FFFFFFC000
07FFF80000
03FFC00000
03FFC00000
03FFC00000
03FFC00000
03FFC00000
03FFC00000
03FFC00000
03FFC00000
03FFC00000
03FFC00000
03FFC00000
03FFC00000
03FFC00000
03FFC00000
03FFC00000
03FFC00000
03FFC00000
03FFC00000
03FFC00000
03FFC00000
03FFC00000
03FFE00000
03FFE00000
07FFF80000
7FFFFF8000
7FFFFFC000
7FFFFFC000
7FFFFFC000
7FFFFFC000
ENDCHAR
STARTCHAR 0067
ENCODING 103
SWIDTH 540 0
DWIDTH 42 0
BBX 39 55 2 -19
BITMAP
001FFFFFFC
00FFFFFFFC
03FFFFFFFC
07FFFFFFFC
0FFE0FFFFE
1FFC07FF1E
1FF803FF80
3FF801FF80
3FF801FFC0
3FF801FFC0
3FF000FFC0
7FF000FFE0
7FF000FFE0
7FF800FFE0
3FF800FFE0
3FF800FFC0
3FF801FFC0
3FFC01FFC0
1FFC01FF80
1FFE03FF00
0FFFFFFF00
07FFFFFC00
01FFFFF800
03FFFFE000
07FFFF0000
07F0000000
0FE0000000
1FE0000000
1FE0000000
1FFC000000
1FFFFFFC00
1FFFFFFF80
1FFFFFFFE0
1FFFFFFFF0
1FFFFFFFF8
0FFFFFFFF8
0FFFFFFFFC
03FFFFFFFC
07FFFFFFFC
1FEFFFFFFC
3FC0007FFC
7FC0001FFC
7F80000FF8
7F80000FF8
FF80000FF8
FFC0000FF0
FFC0001FF0
FFC0003FE0
7FE0007FC0
7FF801FF80
7FFFFFFF00
3FFFFFFC00
1FFFFFF800
07FFFFC000
01FFFE0000
ENDCHAR
STARTCHAR 0068
ENCODING 104
SWIDTH 642 0
DWIDTH 50 0
BBX 46 56 2 0
BITMAP
000200000000
001F00000000
07FF80000000
7FFF80000000
FFFF80000000
FFFF80000000
FFFF80000000
3FFF80000000
07FF80000000
07FF80000000
03FF80000000
03FF80000000
03FF80000000
03FF80000000
03FF80000000
03FF80000000
03FF80000000
03FF80000000
03FF80000000
03FF80000000
03FF803F8000
03FF81FFF000
03FF87FFFC00
03FF9FFFFE00
03FFBFFFFE00
03FFFFFFFF00
03FFFFFFFF00
03FFF81FFF80
03FF8007FF80
03FF8007FF80
03FF8003FF80
03FF8003FFC0
03FF8003FFC0
03FF8003FFC0
03FF8001FFC0
03FF8001FFC0
03FF8001FFC0
03FF8001FFC0
03FF8001FFC0
03FF8001FFC0
03FF8001FFC0
03FF8001FFC0
03FF8001FFC0
03FF8001FFC0
03FF8001FFC0
03FF8001FFC0
03FF8003FFC0
03FF8003FFC0
03FF8003FFC0
07FFC003FFC0
0FFFC007FFE0
7FFFF83FFFFC
FFFFFC3FFFFC
FFFFFC3FFFFC
FFFFFC7FFFFC
FFFFFC7FFFFC
ENDCHAR
STARTCHAR 0069
ENCODING 105
SWIDTH 347 0
DWIDTH 27 0
BBX 22 54 3 0
BITMAP
00F800
03FE00
07FF00
0FFF00
0FFF80
0FFF80
0FFF80
0FFF80
0FFF00
07FE00
03FC00
000000
000000
000000
000000
000000
000000
000000
000E00
00FF00
FFFF00
FFFF80
FFFF80
FFFF80
FFFF80
1FFF80
07FF80
07FF80
07FF80
07FF80
07FF80
07FF80
07FF80
07FF80
07FF80
07FF80
07FF80
07FF80
07FF80
07FF80
07FF80
07FF80
07FF80
07FF80
07FF80
07FF80
07FF80
07FF80
0FFFC0
FFFFF8
FFFFFC
FFFFFC
FFFFFC
FFFFFC
ENDCHAR
STARTCHAR 006A
ENCODING 106
SWIDTH 308 0
DWIDTH 24 0
BBX 19 73 1 -19
BITMAP
003C00
00FF80
01FFC0
03FFC0
03FFE0
07FFE0
07FFE0
03FFC0
03FFC0
01FF80
00FF00
000000
000000
000000
000000
000000
000000
000000
000380
003FC0
3FFFC0
3FFFC0
3FFFC0
7FFFC0
7FFFC0
07FFC0
03FFC0
01FFC0
01FFC0
01FFC0
01FFC0
01FFC0
01FFC0
01FFC0
01FFC0
01FFC0
01FFC0
01FFC0
01FFC0
01FFC0
01FFC0
01FFC0
01FFC0
01FFC0
01FFC0
01FFC0
01FFC0
01FFC0
01FFC0
01FFC0
01FFC0
01FFC0
01FFC0
01FFC0
01FFC0
01FFC0
01FF80
01FF80
01FF80
03FF00
03FF00
03FE00
07FE00
07FC00
0FF800
1FF000
3FF000
3FE000
7FC000
FF8000
FE0000
7C0000
300000
ENDCHAR
STARTCHAR 006B
ENCODING 107
SWIDTH 617 0
DWIDTH 48 0
BBX 45 56 2 0
BITMAP
000200000000
001F00000000
07FF80000000
7FFF80000000
FFFF80000000
FFFF80000000
FFFF80000000
3FFF80000000
07FF80000000
07FF80000000
03FF80000000
03FF80000000
03FF80000000
03FF80000000
03FF80000000
03FF80000000
03FF80000000
03FF80000000
03FF80000000
03FF80000000
03FF803FFFF0
03FF803FFFF0
03FF803FFFF0
03FF803FFFE0
03FF803FFFE0
03FF800FFF00
03FF800FF800
03FF800FF000
03FF801FC000
03FF803F8000
03FF807F0000
03FF80FE0000
03FF81FC0000
03FF83F80000
03FF87F00000
03FF8FF80000
03FF9FFC0000
03FFBFFE0000
03FF9FFF0000
03FF9FFF0000
03FF8FFF8000
03FF87FFC000
03FF83FFE000
03FF81FFF000
03FF81FFF000
03FF80FFF800
03FF807FFC00
03FF803FFE00
03FF803FFF00
07FFC01FFF80
0FFFC00FFFC0
7FFFF807FFF8
FFFFF803FFF8
FFFFF803FFF8
FFFFF801FFF8
FFFFF800FFF8
ENDCHAR
STARTCHAR 006C
ENCODING 108
SWIDTH 334 0
DWIDTH 26 0
BBX 22 56 2 0
BITMAP
000200
001F00
07FF80
7FFF80
FFFF80
FFFF80
FFFF80
3FFF80
07FF80
07FF80
03FF80
03FF80
03FF80
03FF80
03FF80
03FF80
03FF80
03FF80
03FF80
03FF80
03FF80
03FF80
03FF80
03FF80
03FF80
03FF80
03FF80
03FF80
03FF80
03FF80
03FF80
03FF80
03FF80
03FF80
03FF80
03FF80
03FF80
03FF80
03FF80
03FF80
03FF80
03FF80
03FF80
03FF80
03FF80
03FF80
03FF80
03FF80
03FF80
07FFC0
0FFFC0
7FFFFC
FFFFFC
FFFFFC
FFFFFC
FFFFFC
ENDCHAR
STARTCHAR 006D
ENCODING 109
SWIDTH 964 0
DWIDTH 75 0
BBX 70 36 3 0
BITMAP
000F007F80001F0000
00FF03FFE000FFE000
7FFF07FFF803FFF800
FFFF1FFFFC0FFFFC00
FFFF3FFFFE1FFFFE00
FFFF7FFFFE3FFFFE00
FFFFFFFFFFFFFFFF00
1FFFF01FFFF81FFF00
07FF800FFFC00FFF80
07FF0007FF8007FF80
07FF0007FF8007FF80
07FF0007FF8003FF80
07FF0003FF8003FF80
07FF0003FF8003FF80
07FF0003FF8003FF80
07FF0003FF8003FF80
07FF0003FF8003FF80
07FF0003FF8003FF80
07FF0003FF8003FF80
07FF0003FF8003FF80
07FF0003FF8003FF80
07FF0003FF8003FF80
07FF0003FF8003FF80
07FF0003FF8003FF80
07FF0003FF8003FF80
07FF0003FF8003FF80
07FF0003FF8003FF80
07FF8003FF8003FF80
07FF8007FF8003FFC0
07FF8007FFC007FFC0
0FFFC00FFFC00FFFC0
FFFFF87FFFF87FFFF8
FFFFF87FFFFC7FFFF8
FFFFF87FFFFC7FFFF8
FFFFFC7FFFFC7FFFFC
FFFFFC7FFFFC7FFFFC
ENDCHAR
STARTCHAR 006E
ENCODING 110
SWIDTH 655 0
DWIDTH 51 0
BBX 46 36 3 0
BITMAP
000F007F8000
00FF03FFF000
7FFF07FFF800
FFFF1FFFFC00
FFFF3FFFFE00
FFFF7FFFFE00
FFFFFFFFFF00
1FFFF01FFF00
07FF800FFF80
07FF8007FF80
07FF8007FF80
07FF8003FF80
07FF8003FF80
07FF8003FF80
07FF8003FF80
07FF8003FF80
07FF8003FF80
07FF8003FF80
07FF8003FF80
07FF8003FF80
07FF8003FF80
07FF8003FF80
07FF8003FF80
07FF8003FF80
07FF8003FF80
07FF8003FF80
07FF8003FF80
07FF8003FF80
07FF8003FFC0
07FF8007FFC0
0FFFC00FFFE0
FFFFF83FFFF8
FFFFF87FFFF8
FFFFF87FFFFC
FFFFFC7FFFFC
FFFFFC7FFFFC
ENDCHAR
STARTCHAR 006F
ENCODING 111
SWIDTH 565 0
DWIDTH 44 0
BBX 39 37 3 -1
BITMAP
0007FFC000
003FFFF800
00FFFFFE00
01FFFFFF00
07FFDFFFC0
0FFE03FFE0
0FFC01FFE0
1FF800FFF0
3FF8007FF8
3FF0007FF8
7FF0003FFC
7FF0003FFC
7FE0001FFC
FFE0001FFC
FFE0001FFE
FFE0001FFE
FFE0001FFE
FFE0001FFE
FFE0001FFE
FFE0001FFE
FFE0001FFE
FFF0001FFC
FFF0001FFC
FFF0001FFC
FFF0001FFC
7FF8001FF8
7FF8003FF8
3FFC003FF8
3FFC007FF0
1FFE007FE0
1FFF00FFC0
0FFFC3FF80
07FFFFFF00
01FFFFFE00
00FFFFF800
001FFFE000
0000FE0000
ENDCHAR
STARTCHAR 0070
ENCODING 112
SWIDTH 630 0
DWIDTH 49 0
BBX 43 55 3 -19
BITMAP
000E00FFC000
00FF03FFF000
7FFF0FFFFC00
FFFF9FFFFE00
FFFF3FFFFF00
FFFF7FFFFF80
FFFFF81FFF80
1FFFC007FFC0
07FF8003FFC0
07FF8003FFE0
07FF8001FFE0
07FF8001FFE0
07FF8001FFE0
07FF8000FFE0
07FF8000FFE0
07FF8000FFE0
07FF8000FFE0
07FF8000FFE0
07FF8000FFE0
07FF8000FFE0
07FF8000FFE0
07FF8000FFE0
07FF8000FFC0
07FF8001FFC0
07FF8001FFC0
07FF8001FF80
07FF8003FF80
07FF8003FF00
07FF8007FF00
07FF8007FE00
07FFC01FFC00
07FFE03FF800
07FFFFFFF000
07FFFFFFC000
07FFFFFF0000
07FFFFFC0000
07FF9F800000
07FF80000000
07FF80000000
07FF80000000
07FF80000000
07FF80000000
07FF80000000
07FF80000000
07FF80000000
07FF80000000
07FF80000000
07FFC0000000
0FFFE0000000
1FFFF0000000
FFFFFF000000
FFFFFF800000
FFFFFF800000
FFFFFF800000
FFFFFF800000
ENDCHAR
STARTCHAR 0071
ENCODING 113
SWIDTH 591 0
DWIDTH 46 0
BBX 43 55 3 -19
BITMAP
0003FFF80000
001FFFFF8000
007FFFFFE000
00FFFFFFF800
03FFF3FFFC00
07FF007FFE00
0FFE003FFE00
0FFC001FFC00
1FF8001FFC00
3FF8001FFC00
3FF8001FFC00
7FF0001FFC00
7FF0001FFC00
7FF0001FFC00
FFE0001FFC00
FFE0001FFC00
FFE0001FFC00
FFE0001FFC00
FFE0001FFC00
FFE0001FFC00
FFE0001FFC00
FFE0001FFC00
FFE0001FFC00
FFF0001FFC00
FFF0001FFC00
FFF0001FFC00
7FF8001FFC00
7FF8001FFC00
3FFC001FFC00
3FFE007FFC00
1FFFFFFFFC00
0FFFFFDFFC00
07FFFF9FFC00
03FFFF1FFC00
01FFFC1FFC00
003FE01FFC00
0000001FFC00
0000001FFC00
0000001FFC00
0000001FFC00
0000001FFC00
0000001FFC00
0000001FFC00
0000001FFC00
0000003FFC00
0000003FFC00
0000003FFC00
0000003FFC00
0000007FFE00
000001FFFF00
00001FFFFFE0
00001FFFFFE0
00001FFFFFE0
00001FFFFFE0
00001FFFFFE0
ENDCHAR
STARTCHAR 0072
ENCODING 114
SWIDTH 462 0
DWIDTH 36 0
BBX 32 36 3 0
BITMAP
000E0078
00FF03FF
7FFF07FF
FFFF0FFF
FFFF1FFF
FFFF3FFF
FFFE7FFF
1FFE7FFF
07FEFFFF
07FFE0FF
07FFC07F
07FF807F
07FF807F
07FF807E
07FF8000
07FF8000
07FF8000
07FF8000
07FF8000
07FF8000
07FF8000
07FF8000
07FF8000
07FF8000
07FF8000
07FF8000
07FF8000
07FF8000
07FFC000
07FFC000
0FFFF000
FFFFFF00
FFFFFF80
FFFFFF80
FFFFFF80
FFFFFF80
ENDCHAR
STARTCHAR 0073
ENCODING 115
SWIDTH 450 0
DWIDTH 35 0
BBX 30 37 3 -1
BITMAP
00FFFE00
03FFFFC0
0FFFFFE0
1FFFFFE0
3FF8FFE0
7FE03FE0
7FC01FE0
7FC00FE0
FFC007E0
FFE007E0
FFE007E0
FFF80380
7FFE0000
7FFF8000
7FFFE000
3FFFFC00
3FFFFF00
1FFFFF80
07FFFFE0
03FFFFF0
00FFFFF8
001FFFF8
0007FFFC
3C00FFFC
FC007FFC
FE003FFC
FE001FFC
FE001FFC
FF001FFC
FF801FF8
FFC03FF8
FFF0FFF0
FFFFFFE0
FFFFFFC0
7FFFFF80
0FFFFC00
007FC000
ENDCHAR
STARTCHAR 0074
ENCODING 116
SWIDTH 372 0
DWIDTH 29 0
BBX 27 49 1 -1
BITMAP
00030000
000F0000
003F8000
03FF8000
03FF8000
03FF8000
03FF8000
03FF8000
03FF8000
03FF8000
03FF8000
03FF8000
03FF8000
7FFFFFC0
FFFFFFC0
FFFFFFC0
FFFFFFC0
FFFFFFC0
0FFFF000
03FF8000
03FF8000
03FF8000
03FF8000
03FF8000
03FF8000
03FF8000
03FF8000
03FF8000
03FF8000
03FF8000
03FF8000
03FF8000
03FF8000
03FF8000
03FF8000
03FF8000
03FF8000
03FF8000
03FF8000
03FF8000
03FF8000
03FFC000
03FFE0C0
01FFFFC0
01FFFFE0
00FFFFE0
007FFFC0
001FFF00
0003E000
ENDCHAR
STARTCHAR 0075
ENCODING 117
SWIDTH 604 0
DWIDTH 47 0
BBX 44 37 1 -1
BITMAP
000E00001E00
00FF0007FE00
7FFF00FFFF00
7FFF01FFFF00
FFFF01FFFF00
FFFF01FFFF00
FFFF00FFFF00
0FFF001FFF00
0FFF000FFF00
07FF000FFF00
07FF0007FF00
07FF0007FF00
07FF0007FF00
07FF0007FF00
07FF0007FF00
07FF0007FF00
07FF0007FF00
07FF0007FF00
07FF0007FF00
07FF0007FF00
07FF0007FF00
07FF0007FF00
07FF0007FF00
07FF0007FF00
07FF8007FF00
07FF8007FF00
07FF8007FF00
07FF8007FF00
03FFC007FF80
03FFE007FFF0
03FFFE3FFFF0
01FFFFFFFFF0
01FFFFFFFFF0
00FFFFE7FFF0
007FFF87FF00
001FFC078000
000000040000
ENDCHAR
STARTCHAR 0076
ENCODING 118
SWIDTH 552 0
DWIDTH 43 0
BBX 41 37 1 -1
BITMAP
FFFFFC3FFF80
FFFFFC3FFF80
FFFFF83FFF80
FFFFF83FFF80
7FFFF81FFF80
3FFFC007FE00
0FFF8003FC00
0FFF8003F800
07FF8003F000
07FFC003F000
03FFC003E000
03FFE003E000
01FFE007C000
01FFF007C000
00FFF00F8000
00FFF00F8000
007FF81F8000
007FF81F0000
003FFC1F0000
003FFC3E0000
001FFC3E0000
001FFE7C0000
000FFE7C0000
000FFE780000
000FFFF80000
0007FFF80000
0007FFF00000
0003FFF00000
0003FFE00000
0001FFE00000
0001FFC00000
0000FFC00000
0000FFC00000
0000FF800000
00007F800000
00007F000000
00003C000000
ENDCHAR
STARTCHAR 0077
ENCODING 119
SWIDTH 784 0
DWIDTH 61 0
BBX 59 37 1 -1
BITMAP
FFFFF001F007FFE0
FFFFF003F007FFE0
FFFFF003F007FFE0
FFFFF007F807FFE0
7FFFF007F807FFE0
3FFF8007FC01FF80
0FFF800FFC00FF00
0FFF800FFC007E00
07FF801FFE007E00
07FF801FFE007C00
03FFC01FFF007C00
03FFC03FFF007800
03FFC03FFF80F800
01FFC07FFF80F800
01FFE07FFF80F000
01FFE07FFFC1F000
00FFE0FDFFC1F000
00FFF0F9FFC1E000
00FFF1F8FFE1E000
007FF1F0FFE3E000
007FF9F0FFF3C000
003FFBE07FF3C000
003FFBE07FF7C000
003FFFE03FFF8000
001FFFC03FFF8000
001FFFC03FFF8000
001FFF801FFF8000
000FFF801FFF0000
000FFF000FFF0000
000FFF000FFF0000
0007FE000FFE0000
0007FE0007FE0000
0007FE0007FE0000
0003FC0003FC0000
0003FC0003FC0000
0003F80001FC0000
0001E00001F00000
ENDCHAR
STARTCHAR 0078
ENCODING 120
SWIDTH 565 0
DWIDTH 44 0
BBX 40 36 2 0
BITMAP
FFFFFC7FFE
FFFFFC7FFE
7FFFFC7FFE
7FFFFC7FFE
7FFFF87FFE
0FFFE01FF0
07FFE00FE0
03FFE01FC0
01FFF01F80
01FFF03F80
00FFF83F00
007FFC7E00
003FFCFC00
003FFEFC00
001FFFF800
000FFFF000
000FFFF000
0007FFE000
0007FFF000
000FFFF800
000FFFF800
001FFFFC00
003FFFFE00
007F3FFE00
007E1FFF00
00FE1FFF80
01FC0FFF80
01FC07FFC0
03F807FFE0
07F807FFF0
0FF807FFF8
7FFE1FFFFE
FFFE1FFFFF
FFFE1FFFFF
FFFE1FFFFF
FFFE1FFFFF
ENDCHAR
STARTCHAR 0079
ENCODING 121
SWIDTH 552 0
DWIDTH 43 0
BBX 42 55 1 -19
BITMAP
FFFFFC3FFFC0
FFFFFC3FFFC0
FFFFFC3FFF80
FFFFFC1FFF80
FFFFFC1FFF80
3FFFE007FE00
0FFFC003FC00
0FFFC001F800
07FFC001F800
03FFC001F000
03FFC003F000
01FFE003E000
01FFE003E000
00FFF007C000
00FFF007C000
007FF80FC000
007FF80F8000
007FFC0F8000
003FFC1F0000
003FFC1F0000
001FFE3F0000
001FFE3E0000
000FFF3E0000
000FFF7C0000
0007FF7C0000
0007FFF80000
0003FFF80000
0003FFF80000
0001FFF00000
0001FFF00000
0001FFE00000
0000FFE00000
0000FFC00000
00007FC00000
00007FC00000
00003F800000
00003F800000
00001F000000
00001F000000
00003F000000
00003E000000
00007E000000
00007C000000
0000FC000000
0001F8000000
3007F8000000
3FFFF0000000
3FFFF0000000
3FFFE0000000
3FFFE0000000
3FFFC0000000
3FFF80000000
3FFF00000000
1FFE00000000
07FC00000000
ENDCHAR
STARTCHAR 007A
ENCODING 122
SWIDTH 501 0
DWIDTH 39 0
BBX 33 36 4 0
BITMAP
7FFFFFFE00
7FFFFFFE00
7FFFFFFF00
7FFFFFFF00
7FFFFFFF00
7FC03FFE00
7F807FFC00
FF007FFC00
FE00FFF800
FE01FFF000
FE01FFF000
FE03FFE000
7C07FFC000
0007FFC000
000FFF8000
001FFF0000
001FFF0000
003FFE0000
007FFC0000
00FFFC0000
00FFF80000
01FFF00000
03FFE01800
03FFE03F80
07FFC03F80
0FFF803F80
1FFF803F80
1FFF003F80
3FFE007F80
7FFC007F80
FFFC00FF80
FFFFFFFF80
FFFFFFFF80
FFFFFFFF80
FFFFFFFF80
7FFFFFFF00
ENDCHAR
STARTCHAR 007B
ENCODING 123
SWIDTH 372 0
DWIDTH 29 0
BBX 23 79 3 -22
BITMAP
00001C
0000FC
0003FC
000FFE
001FF8
003FE0
007FC0
007F80
00FF80
00FF00
01FF00
01FF00
01FF00
01FF00
01FF00
01FF00
01FF00
01FF00
01FF00
01FF80
01FF80
01FF80
01FF80
01FF80
00FF80
00FFC0
00FFC0
00FFC0
00FFC0
01FFC0
01FF80
01FF80
03FF80
03FF00
07FF00
0FFE00
3FFC00
FFF000
FF8000
FFC000
FFF000
7FFC00
1FFE00
07FF00
07FF00
03FF80
03FF80
01FF80
01FFC0
01FFC0
01FFC0
01FFC0
01FFC0
01FFC0
01FF80
01FF80
01FF80
01FF80
01FF80
01FF80
01FF80
01FF00
01FF00
01FF00
01FF00
01FF00
01FF00
01FF00
00FF00
00FF80
00FF80
007FC0
007FC0
003FE0
001FF8
000FFE
0003FE
0000FE
00003E
ENDCHAR
STARTCHAR 007C
ENCODING 124
SWIDTH 180 0
DWIDTH 14 0
BBX 5 74 5 -18
BITMAP
F8
F8
F8
F8
F8
F8
F8
F8
F8
F8
F8
F8
F8
F8
F8
F8
F8
F8
F8
F8
F8
F8
F8
F8
F8
F8
F8
F8
F8
F8
F8
F8
F8
F8
F8
F8
F8
F8
F8
F8
F8
F8
F8
F8
F8
F8
F8
F8
F8
F8
F8
F8
F8
F8
F8
F8
F8
F8
F8
F8
F8
F8
F8
F8
F8
F8
F8
F8
F8
F8
F8
F8
F8
F0
ENDCHAR
STARTCHAR 007D
ENCODING 125
SWIDTH 372 0
DWIDTH 29 0
BBX 24 80 3 -22
BITMAP
300000
7E0000
7F8000
7FE000
1FF000
0FF800
07FC00
03FE00
01FE00
01FF00
01FF00
01FF00
01FF00
01FF00
01FF00
01FF00
01FF00
01FF00
01FF00
01FF00
01FF00
03FF00
03FF00
03FF00
03FF00
03FF00
03FF00
03FF00
03FF00
03FF00
03FF00
03FF00
03FF80
01FFC0
01FFC0
00FFF0
003FFC
001FFE
0003FE
0003FF
001FFF
007FFC
00FFF0
01FFE0
01FFC0
03FF80
03FF80
03FF00
03FF00
03FF00
03FF00
03FF00
03FF00
03FF00
03FF00
03FF00
03FF00
03FF00
03FF00
01FF00
01FF00
01FF00
01FF00
01FF00
01FF00
01FF00
01FF00
01FF00
01FF00
01FE00
03FE00
03FC00
07FC00
0FF800
3FF000
FFE000
FF8000
FF0000
780000
400000
ENDCHAR
STARTCHAR 007E
ENCODING 126
SWIDTH 540 0
DWIDTH 42 0
BBX 36 12 3 14
BITMAP
007E000000
01FF800060
07FFE000F0
0FFFF801F0
1FFFFE07F0
1FFFFFFFE0
3FEFFFFFC0
7F01FFFFC0
7C007FFF80
F8001FFF00
700007FC00
300000F000
ENDCHAR
STARTCHAR 00A0
ENCODING 160
SWIDTH 192 0
DWIDTH 15 0
BBX 0 0 0 0
BITMAP
ENDCHAR
STARTCHAR 00A1
ENCODING 161
SWIDTH 398 0
DWIDTH 31 0
BBX 13 56 9 -20
BITMAP
1FC0
3FF0
7FF0
7FF8
7FF8
FFF8
FFF8
7FF8
7FF8
3FF0
1FE0
0F80
0000
0000
0000
0000
0000
0000
0000
0FC0
0FC0
0FC0
0FC0
0FC0
0FC0
1FC0
1FC0
1FC0
1FE0
1FE0
1FE0
1FE0
1FE0
1FE0
1FE0
1FE0
1FE0
3FE0
3FF0
3FF0
3FF0
3FF0
3FF0
3FF0
3FF0
3FF0
3FF8
7FF8
7FF8
7FF8
7FF8
7FF8
7FF8
7FE0
7E00
3000
ENDCHAR
STARTCHAR 00A2
ENCODING 162
SWIDTH 462 0
DWIDTH 36 0
BBX 31 58 3 -11
BITMAP
0001F800
0001F800
0001F800
0001F800
0001F800
0001F800
0001F800
0001F800
0001F800
0001F800
0001F800
000FFF80
007FFFF0
00FFFFFC
03FFFFFE
07FFFFFC
0FFDFFFC
1FF9FBFC
1FF9F9FC
3FF1F9FC
3FF1F9FC
7FF1F8FC
7FE1F8FC
7FE1F8FC
FFE1F800
FFE1F800
FFE1F800
FFE1F800
FFE1F800
FFE1F800
FFE1F800
FFE1F800
FFE1F800
FFE1F800
FFF1F800
FFF1F800
7FF9F800
7FF9F800
3FFDF800
3FFFF804
1FFFF81E
1FFFF8FE
0FFFFFFE
07FFFFFC
01FFFFF8
00FFFFF0
001FFFC0
0001F800
0001F800
0001F800
0001F800
0001F800
0001F800
0001F800
0001F800
0001F800
0001F800
00007800
ENDCHAR
STARTCHAR 00A3
ENCODING 163
SWIDTH 565 0
DWIDTH 44 0
BBX 39 54 4 -1
BITMAP
0003FFF800
001FFFFF80
007FFFFFC0
00FFFFFFC0
01FFFFFFC0
03FF81FFC0
07FF007FC0
0FFE007FC0
0FFE003FC0
1FFC003FC0
1FFC003FC0
1FFC001FC0
1FFC001FC0
1FFC001FC0
1FFE000000
1FFE000000
1FFE000000
1FFF000000
1FFF000000
1FFF800000
0FFFC00000
0FFFC00000
0FFFE00000
07FFE00000
07FFE00000
7FFFFFF000
7FFFFFF000
FFFFFFF000
FFFFFFF000
FFFFFFF000
F9FFE02000
00FFE00000
00FFE00000
00FFC00000
00FFC00000
00FF800000
00FF800000
00FF000000
01FF000000
01FE070000
01FC7FE030
03F9FFF8FC
03FFFFFFFE
07FFFFFFFC
07FFFFFFF8
0FFFFFFFF0
1FFFFFFFF0
3FFFFFFFE0
7FFFFFFFC0
FFC07FFFC0
FE000FFF80
F80003FF80
7000007F00
2000000300
ENDCHAR
STARTCHAR 00A4
ENCODING 164
SWIDTH 552 0
DWIDTH 43 0
BBX 33 31 5 4
BITMAP
3000000E00
F803E01F00
FC3FFE3F00
7E7FFF7E00
3FFFFFFC00
1FFC3FF800
0FF00FF000
07C003F000
0F8001F800
1F8001F800
1F0000FC00
1F0000FC00
1F00007C00
3F00007C00
3F00007C00
3F00007C00
3F00007C00
1F00007C00
1F80007C00
1F8000FC00
0FC000F800
0FE001F800
07F001F000
07F807F000
07FE1FF800
0FFFFFFC00
1FFFFF7E00
3F3FFE3F00
7E07F01F80
FC00000F80
3800000600
ENDCHAR
STARTCHAR 00A5
ENCODING 165
SWIDTH 630 0
DWIDTH 49 0
BBX 47 53 1 0
BITMAP
FFFFFE00FFFE
FFFFFE00FFFE
FFFFFE00FFFE
7FFFFE00FFFE
7FFFFC007FFC
1FFFF0001FF8
0FFFE0000FE0
07FFE0000FE0
03FFF0000FC0
03FFF0000F80
01FFF0001F80
01FFF8001F00
00FFF8003F00
00FFFC003E00
007FFC007E00
007FFC007C00
003FFE007C00
003FFE00F800
001FFF00F800
001FFF01F000
000FFF81F000
000FFF83E000
0007FFC3E000
01FFFFC7FFC0
01FFFFC7FF80
01FFFFE7FF80
01FFFFEFFF80
01FFFFFFFF80
0000FFFF0000
0000FFFF0000
00007FFE0000
00007FFE0000
00003FFC0000
01FFFFFFFF80
01FFFFFFFF80
01FFFFFFFF80
01FFFFFFFF80
03FFFFFFFF80
00003FFC0000
00003FFC0000
00003FFC0000
00003FFC0000
00003FFC0000
00003FFC0000
00003FFC0000
00003FFC0000
00007FFE0000
0000FFFF0000
001FFFFFF800
003FFFFFF800
003FFFFFF800
003FFFFFF800
003FFFFFF800
ENDCHAR
STARTCHAR 00A6
ENCODING 166
SWIDTH 180 0
DWIDTH 14 0
BBX 5 75 5 -19
BITMAP
08
F8
F8
F8
F8
F8
F8
F8
F8
F8
F8
F8
F8
F8
F8
F8
F8
F8
F8
F8
F8
F8
F8
F8
F8
F8
F8
F8
F8
F8
F8
00
00
00
00
00
00
00
00
00
00
00
78
F8
F8
F8
F8
F8
F8
F8
F8
F8
F8
F8
F8
F8
F8
F8
F8
F8
F8
F8
F8
F8
F8
F8
F8
F8
F8
F8
F8
F8
F8
F8
F0
ENDCHAR
STARTCHAR 00A7
ENCODING 167
SWIDTH 565 0
DWIDTH 44 0
BBX 37 75 3 -19
BITMAP
0000200000
0007FFE000
003FFFF800
007FFFFC00
00FFFFFC00
01FF8FFC00
03FC03FC00
03F801FC00
07F801FC00
07F800FC00
07F000FC00
0FF8007C00
0FF8007C00
0FF8006000
07FC000000
07FE000000
07FF800000
07FFE00000
07FFF00000
03FFFC0000
03FFFF8000
01FFFFC000
00FFFFF000
00FFFFFC00
007FFFFE00
007FFFFF00
01FFFFFF80
03FFFFFFC0
0FFFFFFFE0
0FF07FFFE0
1FE01FFFF0
3FC007FFF0
3FC003FFF0
7F8000FFF8
7F80007FF8
7F80003FF8
7FC0001FF8
FFC0001FF8
FFC0000FF8
7FE0000FF8
7FF0000FF0
7FF8000FF0
7FFE000FF0
7FFF001FE0
3FFFC03FC0
3FFFF07FC0
1FFFFBFF80
1FFFFFFE00
0FFFFFFC00
07FFFFF000
03FFFFE000
01FFFFF000
007FFFF800
003FFFFC00
000FFFFE00
0003FFFE00
0000FFFF00
00003FFF00
00000FFF00
000007FF00
000003FF00
03E001FF80
03F000FF80
03F000FF00
03F000FF00
03F000FF00
03F800FF00
03F800FF00
03FC01FE00
03FF07FC00
03FFFFFC00
03FFFFF800
01FFFFE000
007FFFC000
0007FC0000
ENDCHAR
STARTCHAR 00A8
ENCODING 168
SWIDTH 295 0
DWIDTH 23 0
BBX 29 11 -3 40
BITMAP
1F800FE0
7FC01FF0
7FE03FF8
FFF03FF8
FFF07FF8
FFF07FF8
FFF03FF8
FFE03FF8
7FE03FF0
3FC00FF0
06000380
ENDCHAR
STARTCHAR 00A9
ENCODING 169
SWIDTH 797 0
DWIDTH 62 0
BBX 53 54 5 -9
BITMAP
000000F8000000
00001FFFC00000
0000FFFFF80000
0003FFFFFE0000
000FFFFFFF8000
003FF0007FC000
007F80000FF000
00FE000003F800
01FC000001FC00
03F00000007E00
07E003FF803F00
07C01FFFF01F00
0F803FFFFC0F80
1F80FFFFFC0FC0
1F01FF8FFC07C0
3E03FE03FC03E0
3E07FC01FC03E0
7C07FC00FC01E0
7C0FF800FC01F0
780FF8007C00F0
F80FF8007C00F0
F81FF8007C00F8
F01FF0004000F8
F01FF000000078
F01FF000000078
F01FF000000078
F01FF000000078
F01FF000000078
F01FF000000078
F01FF000000078
F01FF800000078
F01FF8000000F8
F81FF8000000F8
F81FF8000000F0
780FFC000000F0
7C0FFC000001F0
7C07FE000801F0
3E07FF001C03E0
3E03FF807C03E0
1F01FFFFFC07C0
1F00FFFFF807C0
0F807FFFF00F80
0FC03FFFE01F00
07E00FFF803F00
03F00060007E00
01F8000001FC00
00FE000003F800
007F80000FF000
003FF0007FE000
000FFFDFFF8000
0007FFFFFF0000
0001FFFFFC0000
00003FFFE00000
000003FE000000
ENDCHAR
STARTCHAR 00AA
ENCODING 170
SWIDTH 437 0
DWIDTH 34 0
BBX 28 28 3 28
BITMAP
007F8000
03FFF000
1FFFF800
3FFFFC00
3FC3FE00
3F81FF00
3F01FF00
3F01FF00
3F01FF00
3F01FF00
0001FF00
000FFF00
00FFFF00
03FFFF00
0FFCFF00
3FE0FF00
3FC1FF00
7F81FF00
7F81FF00
FF81FF80
FF83FF80
FF83FF80
FFCFFFF0
FFFFFFF0
7FFEFFF0
7FFEFFF0
3FF8FE00
0FE07000
ENDCHAR
STARTCHAR 00AB
ENCODING 171
SWIDTH 501 0
DWIDTH 39 0
BBX 29 26 5 5
BITMAP
001E0060
003F00F8
007E01F8
00FC03F8
03F807F0
07F00FE0
0FF01FE0
1FE03FC0
3FC07F80
7FC0FF80
FF80FF00
FF01FF00
FF81FF00
FF81FF00
FFC1FF80
7FE0FF80
3FE07FC0
1FF03FC0
0FF01FE0
07F80FF0
03FC07F0
01FC03F8
00FE03F8
007E01F8
003E00F0
001C0060
ENDCHAR
STARTCHAR 00AC
ENCODING 172
SWIDTH 540 0
DWIDTH 42 0
BBX 35 19 4 8
BITMAP
7FFFFFFFE0
FFFFFFFFE0
FFFFFFFFE0
FFFFFFFFE0
FFFFFFFFE0
FF800003E0
00000003E0
00000003E0
00000003E0
00000003E0
00000003E0
00000003E0
00000003E0
00000003E0
00000003E0
00000003E0
00000003E0
00000003E0
00000003C0
ENDCHAR
STARTCHAR 00AD
ENCODING 173
SWIDTH 411 0
DWIDTH 32 0
BBX 23 6 5 16
BITMAP
7FFFFE
FFFFFE
FFFFFE
FFFFFE
FFFFFC
FFFFFC
ENDCHAR
STARTCHAR 00AE
ENCODING 174
SWIDTH 527 0
DWIDTH 41 0
BBX 32 33 5 29
BITMAP
00018000
003FFC00
00FFFF00
03FFFF80
07F01FE0
0FC003F0
1F0001F8
3E0000F8
3C0FE07C
783FF83C
783FFC1E
F03C3C1E
F03C3C0E
F03C3C0F
E03C3C0F
E03C3C0F
E03C780F
E03FF00F
E03FE00F
F03CF00F
F03C780E
F03C3C1E
783C3C1E
783C1E3C
3C10007C
3E000078
1F0001F8
0FC003F0
07F01FE0
03FFFFC0
00FFFF00
003FFC00
00018000
ENDCHAR
STARTCHAR 00AF
ENCODING 175
SWIDTH 295 0
DWIDTH 23 0
BBX 29 4 -3 45
BITMAP
7FFFFFF8
FFFFFFF8
FFFFFFF8
FFFFFFF8
ENDCHAR
STARTCHAR 00B0
ENCODING 176
SWIDTH 398 0
DWIDTH 31 0
BBX 22 20 5 34
BITMAP
03FF00
0FFFC0
1FFFE0
3FDFF0
7F07F8
7E03F8
FE01FC
FE01FC
FE01FC
FE01FC
FE01FC
FE01FC
FE01FC
FF01FC
7F03F8
7F83F8
3FFFF0
1FFFE0
0FFFC0
03FF00
ENDCHAR
STARTCHAR 00B1
ENCODING 177
SWIDTH 540 0
DWIDTH 42 0
BBX 34 36 4 3
BITMAP
0000F00000
0001F00000
0001F00000
0001F00000
0001F00000
0001F00000
0001F00000
0001F00000
0001F00000
0001F00000
0001F00000
0001F00000
1FFFFFFF00
1FFFFFFF00
1FFFFFFF00
1FFFFFFF00
1FFFFFFE00
0001F00000
0001F00000
0001F00000
0001F00000
0001F00000
0001F00000
0001F00000
0001F00000
0001F00000
0001F00000
0001F00000
0000000000
0000000000
0000000000
7FFFFFFFC0
7FFFFFFFC0
FFFFFFFFC0
FFFFFFFFC0
FFFFFFFFC0
ENDCHAR
STARTCHAR 00B2
ENCODING 178
SWIDTH 372 0
DWIDTH 29 0
BBX 24 28 3 32
BITMAP
003800
1FFFC0
7FFFF0
7FFFF8
7FFFF8
7F0FFC
7E0FFC
7E07FC
7E07FC
7C07FC
7C07F8
3C0FF8
000FF8
001FF0
001FE0
003FC0
007F80
00FE00
01FC1E
03F81E
07E03E
1FFFFE
3FFFFE
7FFFFF
FFFFFF
FFFFFF
FFFFFF
FFFFFE
ENDCHAR
STARTCHAR 00B3
ENCODING 179
SWIDTH 385 0
DWIDTH 30 0
BBX 24 37 3 22
BITMAP
3FFFF8
3FFFFC
3FFFFC
3FFFFC
3FFFF8
3FFFF0
7FFFE0
7E07C0
7C0FC0
781F80
181F00
003E00
007E00
00FC00
01FE00
01FFE0
03FFF0
01FFFC
01FFFC
000FFE
0003FE
0003FF
0001FF
0001FF
0001FF
0001FF
0001FF
0001FE
0003FE
0003FE
0007FC
601FF8
FFFFF0
FFFFE0
FFFF80
3FFE00
01A000
ENDCHAR
STARTCHAR 00B4
ENCODING 180
SWIDTH 295 0
DWIDTH 23 0
BBX 15 15 4 41
BITMAP
03FE
07FC
0FFC
0FF8
0FF0
1FE0
1FE0
1FC0
3F80
3F80
7F00
7E00
FE00
FC00
1800
ENDCHAR
STARTCHAR 00B5
ENCODING 181
SWIDTH 630 0
DWIDTH 49 0
BBX 44 55 3 -19
BITMAP
001E00001C00
01FE0007FE00
FFFF01FFFE00
FFFF01FFFE00
FFFF01FFFE00
FFFF01FFFE00
FFFF00FFFE00
1FFF001FFE00
0FFF000FFE00
0FFF000FFE00
0FFF000FFE00
07FF000FFE00
07FF000FFE00
07FF000FFE00
07FF000FFE00
07FF000FFE00
07FF000FFE00
07FF000FFE00
07FF000FFE00
07FF000FFE00
07FF000FFE00
07FF000FFE00
07FF000FFE00
07FF000FFE00
07FF001FFE00
07FF001FFE00
07FF003FFE00
07FF003FFF00
07FF807FFF80
07FFC0FBFFF0
07FFFFFFFFF0
07FFFFF7FFF0
07FFFFE7FFF0
07FFFFC7FFF0
07FFFF03FF00
07FFFC03E000
07FC00000000
07FC00000000
07FC00000000
07FC00000000
07FC00000000
07FC00000000
07FC00000000
07FC00000000
07FC00000000
07FC00000000
07FC00000000
0FFE00000000
0FFE00000000
0FFE00000000
0FFC00000000
0FF000000000
0FC000000000
0F0000000000
060000000000
ENDCHAR
STARTCHAR 00B6
ENCODING 182
SWIDTH 578 0
DWIDTH 45 0
BBX 41 72 3 -19
BITMAP
0001FFFFFF80
003FFFFFFF80
00FFFFFFFF80
03FFFFFFFF80
07FFFFFFFF00
1FFF07C3F800
1FFC07C3F000
3FF807C3F000
7FF007C3E000
7FF007C3E000
FFF007C3E000
FFE007C3E000
FFE007C3E000
FFE007C3E000
FFE007C3E000
FFE007C3E000
FFE007C3E000
FFE007C3E000
FFF007C3E000
FFF007C3E000
7FF007C3E000
7FF807C3E000
7FFC07C3E000
3FFE07C3E000
1FFF87C3E000
1FFFFFC3E000
07FFFFC3E000
03FFFFC3E000
007FFFC3E000
00017FC3E000
000007C3E000
000007C3E000
000007C3E000
000007C3E000
000007C3E000
000007C3E000
000007C3E000
000007C3E000
000007C3E000
000007C3E000
000007C3E000
000007C3E000
000007C3E000
000007C3E000
000007C3E000
000007C3E000
000007C3E000
000007C3E000
000007C3E000
000007C3E000
000007C3E000
000007C3E000
000007C3E000
000007C3E000
000007C3E000
000007C3E000
000007C3E000
000007C3E000
000007C3E000
000007C3E000
000007C3E000
000007C3E000
000007C3E000
000007C3E000
000007C3E000
000007C3E000
000007C3E000
000007C3E000
000007C3E000
000007C3E000
000007C3E000
000007C3E000
ENDCHAR
STARTCHAR 00B7
ENCODING 183
SWIDTH 282 0
DWIDTH 22 0
BBX 12 12 5 14
BITMAP
1F80
7FE0
7FF0
FFF0
FFF0
FFF0
FFF0
FFF0
FFF0
7FE0
3FC0
1F00
ENDCHAR
STARTCHAR 00B8
ENCODING 184
SWIDTH 295 0
DWIDTH 23 0
BBX 13 20 5 -19
BITMAP
0F80
0F00
1F00
3E00
7C00
7F80
FFE0
7FE0
7FF0
0FF8
03F8
03F8
03F8
03F8
03F0
07F0
7FE0
FFC0
7F00
7800
ENDCHAR
STARTCHAR 00B9
ENCODING 185
SWIDTH 321 0
DWIDTH 25 0
BBX 18 27 4 32
BITMAP
FFFFC0
FFFFC0
FFFFC0
FFFFC0
7FFF80
1FFC00
0FFC00
0FF800
0FF800
0FF800
0FF800
0FF800
0FF800
0FF800
0FF800
0FF800
0FF800
0FF800
0FF800
0FF800
0FFC00
0FFC00
3FFF00
FFFF80
FFFFC0
FFFFC0
FFFFC0
ENDCHAR
STARTCHAR 00BA
ENCODING 186
SWIDTH 424 0
DWIDTH 33 0
BBX 28 28 3 28
BITMAP
001F8000
00FFF800
03FFFE00
0FFFFF00
1FF1FF80
3FE0FFC0
3FC07FC0
7FC07FE0
7F803FE0
FF803FF0
FF803FF0
FF801FF0
FF801FF0
FF801FF0
FF801FF0
FF801FF0
FF801FF0
FF801FF0
FFC01FF0
FFC03FE0
7FC03FE0
7FE03FC0
3FE07FC0
3FF07F80
1FFFFF00
0FFFFE00
03FFF800
00FFE000
ENDCHAR
STARTCHAR 00BB
ENCODING 187
SWIDTH 501 0
DWIDTH 39 0
BBX 30 26 5 5
BITMAP
1801E000
FC03F000
FE01F800
7F01FC00
7F80FF00
3FC07F80
3FE07FC0
1FF03FE0
0FF81FF0
0FFC1FF8
07FC0FFC
07FC0FFC
03FC07FC
03FE07FC
07FC07FC
07F80FF0
0FF01FE0
0FF01FC0
1FE03FC0
3FC07F80
3F807F00
7F00FE00
FE01FC00
7E01F800
3C01F000
1800E000
ENDCHAR
STARTCHAR 00BC
ENCODING 188
SWIDTH 861 0
DWIDTH 67 0
BBX 62 58 3 -1
BITMAP
0003000000000000
001F800000001000
03FF800000003C00
FFFF800000007F00
FFFF800000007E00
FFFF80000000FC00
FFFF80000001FC00
07FF80000003F800
01FF80000003F000
01FF80000007E000
00FF8000000FE000
00FF8000001FC000
00FF8000001F8000
00FF8000003F0000
00FF8000007F0000
00FF800000FE0000
00FF800000FC0000
00FF800001FC0000
00FF800003F80000
00FF800003F00000
00FF800007E00000
00FF80000FE00000
00FF80001FC03F80
00FF80001F807F80
00FF80003F007F80
00FF80007F00FF80
00FF8000FE01FF80
00FF8000FC03FF80
01FF8001F803FF80
01FFC003F807FF80
03FFE007F00FFF80
7FFFFE07E01FFF80
7FFFFE0FE01EFF80
7FFFFE1FC03EFF80
7FFFFE3F807CFF80
0000003F00F8FF80
0000007F01F0FF80
000000FE01F0FF80
000000FC03E0FF80
000001F807C0FF80
000003F80FC0FF80
000007F01F80FF80
000007E01FFFFFFC
00000FC03FFFFFFC
00001FC03FFFFFFC
00003F803FFFFFFC
00003F001FFFFFF8
00007E001FFFFFF8
0000FE000E00FF80
0001FC000000FF80
0001F8000000FF80
0003F8000001FF80
0007F0000007FFE0
0007E000001FFFF8
000FC000001FFFF8
001FC000001FFFF8
000F8000003FFFF8
0001000000000000
ENDCHAR
STARTCHAR 00BD
ENCODING 189
SWIDTH 977 0
DWIDTH 76 0
BBX 72 58 3 -1
BITMAP
000300000000000000
001F80000000100000
03FF800000003C0000
FFFF800000007F0000
FFFF800000007E0000
FFFF80000000FC0000
FFFF80000001FC0000
07FF80000003F80000
01FF80000003F00000
01FF80000007E00000
00FF8000000FE00000
00FF8000001FC00000
00FF8000001F800000
00FF8000003F000000
00FF8000007F000000
00FF800000FE000000
00FF800000FC000000
00FF800001FC000000
00FF800003F8000000
00FF800003F0000000
00FF800007E0000000
00FF80000FE0000000
00FF80001FC00FFE00
00FF80001F81FFFFC0
00FF80003F07FFFFE0
00FF80007F07FFFFF0
00FF8000FE07FFFFF8
00FF8000FC07F83FFC
01FF8001F807F83FFC
01FFC003F807F01FFC
03FFE007F007F01FFC
7FFFFE07E007E01FFC
7FFFFE0FE007E01FFC
7FFFFE1FC007E01FF8
7FFFFE3F8007E01FF8
0000003F0000003FF0
0000007F0000003FF0
000000FE0000007FE0
000000FC0000007FC0
000001F8000000FF80
000003F8000001FF00
000007F0000003FE00
000007E0000007F800
00000FC000000FF000
00001FC000001FE03E
00003F8000003FC07E
00003F0000007F807E
00007E000000FF00FE
0000FE000001FFFFFE
0001FC000003FFFFFE
0001F8000007FFFFFE
0003F8000007FFFFFE
0007F000000FFFFFFE
0007E000000FFFFFFF
000FC0000007FFFFFF
001FC0000007FFFFFE
000F80000007FFFFFC
000100000000000000
ENDCHAR
STARTCHAR 00BE
ENCODING 190
SWIDTH 848 0
DWIDTH 66 0
BBX 62 58 2 -1
BITMAP
7000060000000000
7FFFFF0000001000
7FFFFF0000003C00
7FFFFF0000007F00
7FFFFF000000FE00
7FFFFE000000FC00
7FFFFC000001FC00
7FFFF8000003F800
7FFFF8000003F000
7E03F0000007E000
7C07E000000FE000
780FC000001FC000
181F8000001F8000
003F0000003F0000
007F0000007F0000
00FF800000FE0000
00FFF00000FC0000
01FFFC0001F80000
01FFFE0003F80000
01FFFF0007F00000
01FFFF0007E00000
0007FF800FC00000
0003FF801FC03F00
0001FF803F807F80
0001FF803F00FF80
0001FF807F00FF80
0001FF80FE01FF80
0001FF80FC03FF80
0001FF01F807FF80
0003FF03F807FF80
600FFE07F00FFF80
FFFFFC07E01FFF80
FFFFF80FC03EFF80
7FFFF01FC03CFF80
3FFF803F807CFF80
03F8003F00F8FF80
0000007E01F0FF80
000000FE03F0FF80
000001FC03E0FF80
000001F807C0FF80
000003F80F80FF80
000007F01F80FF80
000007E03FFFFFFC
00000FC03FFFFFFC
00001FC03FFFFFFC
00003F803FFFFFF8
00003F003FFFFFF8
00007E001FFFFFF8
0000FE000E00FF80
0001FC000000FF80
0001F8000000FF80
0003F0000001FF80
0007F0000007FFC0
000FE000001FFFF8
000FC000003FFFF8
001FC000003FFFF8
000F8000003FFFF8
0001000000000000
ENDCHAR
STARTCHAR 00BF
ENCODING 191
SWIDTH 527 0
DWIDTH 41 0
BBX 28 56 5 -20
BITMAP
001FC000
007FE000
007FF000
00FFF800
00FFF800
01FFF800
01FFF800
01FFF800
00FFF800
00FFF000
007FE000
003FC000
000E0000
00000000
00000000
00000000
00000000
001F8000
001FC000
000FE000
000FE000
000FF000
000FF000
000FF000
000FF000
000FF000
000FF000
000FF000
001FF000
001FF000
003FF000
007FE000
00FFE000
01FFC000
03FFC000
07FF8000
0FFF0000
0FFE0000
1FFC0000
3FF80000
3FF80000
7FF00380
7FF007F0
FFE007F0
FFE007F0
FFE007F0
FFE007F0
FFF00FF0
FFF00FF0
7FF81FF0
7FF81FF0
3FFFFFF0
1FFFFFF0
0FFFFFC0
07FFFF00
007FF000
ENDCHAR
STARTCHAR 00C0
ENCODING 192
SWIDTH 707 0
DWIDTH 55 0
BBX 53 68 1 0
BITMAP
00003F80000000
0000FFC0000000
00007FC0000000
00003FE0000000
00001FE0000000
00000FE0000000
000007F0000000
000007F8000000
000003F8000000
000001FC000000
000000F0000000
00000000000000
00000000000000
00000000000000
00000000000000
000001F0000000
000001F8000000
000001F8000000
000003FC000000
000003FC000000
000007FE000000
000007FE000000
000007FE000000
00000FFF000000
00000FFF000000
00001FFF800000
00001FFF800000
00001FFFC00000
00003FFFC00000
00003DFFE00000
00007DFFE00000
00007DFFE00000
000078FFF00000
0000F8FFF00000
0000F8FFF80000
0001F07FF80000
0001F07FFC0000
0001E03FFC0000
0003E03FFE0000
0003E03FFE0000
0007C01FFE0000
0007C01FFF0000
000FC00FFF0000
000F800FFF8000
000F8007FF8000
001F0007FFC000
001F0007FFC000
003F0003FFE000
003E0003FFE000
003FFFFFFFE000
007FFFFFFFF000
007FFFFFFFF000
00FFFFFFFFF800
00FF0000FFF800
00F800007FFC00
01F000007FFC00
01F000003FFE00
03F000003FFE00
03E000001FFF00
07E000001FFF00
07E000001FFF80
0FF000001FFF80
1FF000001FFFC0
7FFE0000FFFFF0
7FFE0001FFFFF8
FFFE0001FFFFF8
FFFE0001FFFFF8
FFFF0001FFFFF8
ENDCHAR
STARTCHAR 00C1
ENCODING 193
SWIDTH 707 0
DWIDTH 55 0
BBX 53 68 1 0
BITMAP
0000003FF00000
0000003FE00000
0000007FC00000
0000007F800000
000000FF000000
000000FF000000
000001FE000000
000001FC000000
000003F8000000
000003F0000000
000001F0000000
00000000000000
00000000000000
00000000000000
00000000000000
000001F0000000
000001F8000000
000001F8000000
000003FC000000
000003FC000000
000007FE000000
000007FE000000
000007FE000000
00000FFF000000
00000FFF000000
00001FFF800000
00001FFF800000
00001FFFC00000
00003FFFC00000
00003DFFE00000
00007DFFE00000
00007DFFE00000
000078FFF00000
0000F8FFF00000
0000F8FFF80000
0001F07FF80000
0001F07FFC0000
0001E03FFC0000
0003E03FFE0000
0003E03FFE0000
0007C01FFE0000
0007C01FFF0000
000FC00FFF0000
000F800FFF8000
000F8007FF8000
001F0007FFC000
001F0007FFC000
003F0003FFE000
003E0003FFE000
003FFFFFFFE000
007FFFFFFFF000
007FFFFFFFF000
00FFFFFFFFF800
00FF0000FFF800
00F800007FFC00
01F000007FFC00
01F000003FFE00
03F000003FFE00
03E000001FFF00
07E000001FFF00
07E000001FFF80
0FF000001FFF80
1FF000001FFFC0
7FFE0000FFFFF0
7FFE0001FFFFF8
FFFE0001FFFFF8
FFFE0001FFFFF8
FFFF0001FFFFF8
ENDCHAR
STARTCHAR 00C2
ENCODING 194
SWIDTH 707 0
DWIDTH 55 0
BBX 53 69 1 0
BITMAP
000000F8000000
000001FC000000
000007FE000000
00000FFF000000
00001FFF800000
00007FFFC00000
0000FFFFF00000
0001FFFFF80000
0007FE1FFC0000
000FF807FE0000
0007E001FC0000
00038000780000
00000000000000
00000000000000
00000000000000
00000000000000
000001F0000000
000001F8000000
000001F8000000
000003FC000000
000003FC000000
000007FE000000
000007FE000000
000007FE000000
00000FFF000000
00000FFF000000
00001FFF800000
00001FFF800000
00001FFFC00000
00003FFFC00000
00003DFFE00000
00007DFFE00000
00007DFFE00000
000078FFF00000
0000F8FFF00000
0000F8FFF80000
0001F07FF80000
0001F07FFC0000
0001E03FFC0000
0003E03FFE0000
0003E03FFE0000
0007C01FFE0000
0007C01FFF0000
000FC00FFF0000
000F800FFF8000
000F8007FF8000
001F0007FFC000
001F0007FFC000
003F0003FFE000
003E0003FFE000
003FFFFFFFE000
007FFFFFFFF000
007FFFFFFFF000
00FFFFFFFFF800
00FF0000FFF800
00F800007FFC00
01F000007FFC00
01F000003FFE00
03F000003FFE00
03E000001FFF00
07E000001FFF00
07E000001FFF80
0FF000001FFF80
1FF000001FFFC0
7FFE0000FFFFF0
7FFE0001FFFFF8
FFFE0001FFFFF8
FFFE0001FFFFF8
FFFF0001FFFFF8
ENDCHAR
STARTCHAR 00C3
ENCODING 195
SWIDTH 707 0
DWIDTH 55 0
BBX 53 68 1 0
BITMAP
00000400000000
00007FC00C0000
0001FFF01F0000
0003FFFF7F0000
0007FFFFFE0000
000FFFFFFE0000
001FFFFFFC0000
000F83FFF80000
000E00FFF00000
0004003FC00000
00000000000000
00000000000000
00000000000000
00000000000000
00000000000000
000001F0000000
000001F8000000
000001F8000000
000003FC000000
000003FC000000
000007FE000000
000007FE000000
000007FE000000
00000FFF000000
00000FFF000000
00001FFF800000
00001FFF800000
00001FFFC00000
00003FFFC00000
00003DFFE00000
00007DFFE00000
00007DFFE00000
000078FFF00000
0000F8FFF00000
0000F8FFF80000
0001F07FF80000
0001F07FFC0000
0001E03FFC0000
0003E03FFE0000
0003E03FFE0000
0007C01FFE0000
0007C01FFF0000
000FC00FFF0000
000F800FFF8000
000F8007FF8000
001F0007FFC000
001F0007FFC000
003F0003FFE000
003E0003FFE000
003FFFFFFFE000
007FFFFFFFF000
007FFFFFFFF000
00FFFFFFFFF800
00FF0000FFF800
00F800007FFC00
01F000007FFC00
01F000003FFE00
03F000003FFE00
03E000001FFF00
07E000001FFF00
07E000001FFF80
0FF000001FFF80
1FF000001FFFC0
7FFE0000FFFFF0
7FFE0001FFFFF8
FFFE0001FFFFF8
FFFE0001FFFFF8
FFFF0001FFFFF8
ENDCHAR
STARTCHAR 00C4
ENCODING 196
SWIDTH 707 0
DWIDTH 55 0
BBX 53 67 1 0
BITMAP
0003F801FC0000
000FFC03FE0000
000FFC07FF0000
001FFE07FF0000
001FFE07FF8000
001FFE07FF8000
001FFE07FF0000
000FFC07FF0000
000FFC03FF0000
0007F801FE0000
0000E000200000
00000000000000
00000000000000
00000000000000
000001F0000000
000001F8000000
000001F8000000
000003FC000000
000003FC000000
000007FE000000
000007FE000000
000007FE000000
00000FFF000000
00000FFF000000
00001FFF800000
00001FFF800000
00001FFFC00000
00003FFFC00000
00003DFFE00000
00007DFFE00000
00007DFFE00000
000078FFF00000
0000F8FFF00000
0000F8FFF80000
0001F07FF80000
0001F07FFC0000
0001E03FFC0000
0003E03FFE0000
0003E03FFE0000
0007C01FFE0000
0007C01FFF0000
000FC00FFF0000
000F800FFF8000
000F8007FF8000
001F0007FFC000
001F0007FFC000
003F0003FFE000
003E0003FFE000
003FFFFFFFE000
007FFFFFFFF000
007FFFFFFFF000
00FFFFFFFFF800
00FF0000FFF800
00F800007FFC00
01F000007FFC00
01F000003FFE00
03F000003FFE00
03E000001FFF00
07E000001FFF00
07E000001FFF80
0FF000001FFF80
1FF000001FFFC0
7FFE0000FFFFF0
7FFE0001FFFFF8
FFFE0001FFFFF8
FFFE0001FFFFF8
FFFF0001FFFFF8
ENDCHAR
STARTCHAR 00C5
ENCODING 197
SWIDTH 707 0
DWIDTH 55 0
BBX 53 69 1 0
BITMAP
000003FC000000
00000FFF000000
00001FFF800000
00003F0FC00000
00007E0FC00000
00007E07E00000
00007E07E00000
00007E07E00000
00007E07C00000
00003F0FC00000
00003FFF800000
00001FFF000000
000007FC000000
00000000000000
00000000000000
00000000000000
000001F0000000
000001F8000000
000001F8000000
000003FC000000
000003FC000000
000007FE000000
000007FE000000
000007FE000000
00000FFF000000
00000FFF000000
00001FFF800000
00001FFF800000
00001FFFC00000
00003FFFC00000
00003DFFE00000
00007DFFE00000
00007DFFE00000
000078FFF00000
0000F8FFF00000
0000F8FFF80000
0001F07FF80000
0001F07FFC0000
0001E03FFC0000
0003E03FFE0000
0003E03FFE0000
0007C01FFE0000
0007C01FFF0000
000FC00FFF0000
000F800FFF8000
000F8007FF8000
001F0007FFC000
001F0007FFC000
003F0003FFE000
003E0003FFE000
003FFFFFFFE000
007FFFFFFFF000
007FFFFFFFF000
00FFFFFFFFF800
00FF0000FFF800
00F800007FFC00
01F000007FFC00
01F000003FFE00
03F000003FFE00
03E000001FFF00
07E000001FFF00
07E000001FFF80
0FF000001FFF80
1FF000001FFFC0
7FFE0000FFFFF0
7FFE0001FFFFF8
FFFE0001FFFFF8
FFFE0001FFFFF8
FFFF0001FFFFF8
ENDCHAR
STARTCHAR 00C6
ENCODING 198
SWIDTH 951 0
DWIDTH 74 0
BBX 71 53 1 0
BITMAP
000001FFFFFFFFFFE0
000001FFFFFFFFFFE0
000001FFFFFFFFFFE0
000001FFFFFFFFFFE0
000001FFFFFFFFFFE0
0000003FFFFC00FFE0
0000001FFFFC003FE0
0000000FDFFC000FE0
0000000FDFFC0007F0
0000001F9FFC0007F0
0000001F1FFC0003F0
0000003F1FFC0003F0
0000003E1FFC0003F0
0000007E1FFC0001F0
000000FC1FFC000100
000000FC1FFC000000
000001F81FFC000000
000001F01FFC000000
000003F01FFC000000
000003E01FFC007800
000007E01FFC01F800
00000FC01FFC01F800
00000FC01FFC01F800
00001F801FFC01F800
00001F001FFC03F800
00003F001FFC07F800
00003FFFFFFFFFF800
00007FFFFFFFFFF800
0000FFFFFFFFFFF800
0000FFFFFFFFFFF800
0001FFFFDFFC1FF800
0001F0001FFC03F800
0003F0001FFC01F800
0007E0001FFC01F800
0007E0001FFC01F800
000FC0001FFC01F800
000F80001FFC00F800
001F80001FFC000000
001F00001FFC000060
003F00001FFC00007C
007E00001FFC00007E
007E00001FFC0000FE
00FC00001FFC0000FE
00FC00001FFE0001FC
01FC00003FFE0001FC
03FC00003FFE0003FC
07FC00003FFF0007FC
0FFC00007FFF801FFC
7FFF8003FFFFFFFFFC
7FFFC007FFFFFFFFF8
FFFFC007FFFFFFFFF8
FFFFC007FFFFFFFFF8
FFFFC007FFFFFFFFF8
ENDCHAR
STARTCHAR 00C7
ENCODING 199
SWIDTH 642 0
DWIDTH 50 0
BBX 44 72 3 -19
BITMAP
00001FFFC000
0000FFFFF800
0003FFFFFF00
000FFFFFFFE0
003FFFCFFFE0
007FF800FFE0
00FFE0007FE0
01FFC0003FE0
03FF80001FE0
07FF00001FE0
0FFE00000FE0
0FFE00000FC0
1FFC00000FC0
3FFC00000FC0
3FF800000FC0
3FF800000FC0
7FF800000F00
7FF800000000
7FF000000000
FFF000000000
FFF000000000
FFF000000000
FFF000000000
FFF000000000
FFF000000000
FFF000000000
FFF000000000
FFF000000000
FFF000000000
FFF000000000
FFF000000000
FFF800000000
FFF800000000
FFF800000000
7FF800000000
7FFC00000000
7FFC00000000
3FFC00000000
3FFE00000000
3FFE00000000
1FFF00000000
1FFF80000000
0FFFC0000000
07FFE0000000
07FFF0000060
03FFF80001F0
01FFFE000FF0
00FFFFF1FFF0
003FFFFFFFE0
001FFFFFFF80
0007FFFFFE00
0001FFFFF800
00007FFFC000
000003F80000
000003E00000
000007C00000
00000F800000
00000FF00000
00001FFC0000
00000FFE0000
00000FFE0000
000001FF0000
0000007F0000
0000007F0000
0000003F0000
0000007F0000
0000007E0000
000000FE0000
00000FFC0000
00001FF80000
00000FE00000
00000F000000
ENDCHAR
STARTCHAR 00C8
ENCODING 200
SWIDTH 617 0
DWIDTH 48 0
BBX 43 68 3 0
BITMAP
000FF0000000
001FF0000000
000FF8000000
0007F8000000
0007FC000000
0003FC000000
0001FE000000
0000FE000000
00007F000000
00003F000000
00003E000000
000000000000
000000000000
000000000000
000000000000
FFFFFFFFFE00
FFFFFFFFFE00
FFFFFFFFFE00
FFFFFFFFFE00
7FFFFFFFFE00
1FFFC00FFE00
07FFC003FF00
07FFC000FF00
03FFC0007F00
03FFC0007F00
03FFC0003F00
03FFC0003F00
03FFC0003F00
03FFC0001F00
03FFC0001000
03FFC0000000
03FFC0000000
03FFC0000000
03FFC01F8000
03FFC01F8000
03FFC01F8000
03FFC01F8000
03FFC03F8000
03FFC07F8000
03FFFFFF8000
03FFFFFF8000
03FFFFFF8000
03FFFFFF8000
03FFFFFF8000
03FFC0FF8000
03FFC03F8000
03FFC01F8000
03FFC01F8000
03FFC01F8000
03FFC00F8000
03FFC0078000
03FFC0000000
03FFC0000000
03FFC0000300
03FFC00007C0
03FFC00007E0
03FFC0000FE0
03FFC0000FE0
03FFC0001FE0
03FFC0001FC0
03FFC0003FC0
07FFE0007FC0
0FFFF001FFC0
7FFFFFFFFFC0
7FFFFFFFFF80
FFFFFFFFFF80
FFFFFFFFFF80
FFFFFFFFFF80
ENDCHAR
STARTCHAR 00C9
ENCODING 201
SWIDTH 617 0
DWIDTH 48 0
BBX 43 68 3 0
BITMAP
000007FE0000
00000FFC0000
00000FF80000
00001FF00000
00001FE00000
00001FC00000
00003F800000
00003F800000
00007F000000
00007E000000
00003C000000
000000000000
000000000000
000000000000
000000000000
FFFFFFFFFE00
FFFFFFFFFE00
FFFFFFFFFE00
FFFFFFFFFE00
7FFFFFFFFE00
1FFFC00FFE00
07FFC003FF00
07FFC000FF00
03FFC0007F00
03FFC0007F00
03FFC0003F00
03FFC0003F00
03FFC0003F00
03FFC0001F00
03FFC0001000
03FFC0000000
03FFC0000000
03FFC0000000
03FFC01F8000
03FFC01F8000
03FFC01F8000
03FFC01F8000
03FFC03F8000
03FFC07F8000
03FFFFFF8000
03FFFFFF8000
03FFFFFF8000
03FFFFFF8000
03FFFFFF8000
03FFC0FF8000
03FFC03F8000
03FFC01F8000
03FFC01F8000
03FFC01F8000
03FFC00F8000
03FFC0078000
03FFC0000000
03FFC0000000
03FFC0000300
03FFC00007C0
03FFC00007E0
03FFC0000FE0
03FFC0000FE0
03FFC0001FE0
03FFC0001FC0
03FFC0003FC0
07FFE0007FC0
0FFFF001FFC0
7FFFFFFFFFC0
7FFFFFFFFF80
FFFFFFFFFF80
FFFFFFFFFF80
FFFFFFFFFF80
ENDCHAR
STARTCHAR 00CA
ENCODING 202
SWIDTH 617 0
DWIDTH 48 0
BBX 43 69 3 0
BITMAP
00001F000000
00007F800000
0000FFC00000
0001FFE00000
0003FFF00000
000FFFF80000
001FFFFC0000
007FFFFF0000
00FFC3FF8000
01FF00FFC000
00FC003F8000
0070001E0000
000000000000
000000000000
000000000000
000000000000
FFFFFFFFFE00
FFFFFFFFFE00
FFFFFFFFFE00
FFFFFFFFFE00
7FFFFFFFFE00
1FFFC00FFE00
07FFC003FF00
07FFC000FF00
03FFC0007F00
03FFC0007F00
03FFC0003F00
03FFC0003F00
03FFC0003F00
03FFC0001F00
03FFC0001000
03FFC0000000
03FFC0000000
03FFC0000000
03FFC01F8000
03FFC01F8000
03FFC01F8000
03FFC01F8000
03FFC03F8000
03FFC07F8000
03FFFFFF8000
03FFFFFF8000
03FFFFFF8000
03FFFFFF8000
03FFFFFF8000
03FFC0FF8000
03FFC03F8000
03FFC01F8000
03FFC01F8000
03FFC01F8000
03FFC00F8000
03FFC0078000
03FFC0000000
03FFC0000000
03FFC0000300
03FFC00007C0
03FFC00007E0
03FFC0000FE0
03FFC0000FE0
03FFC0001FE0
03FFC0001FC0
03FFC0003FC0
07FFE0007FC0
0FFFF001FFC0
7FFFFFFFFFC0
7FFFFFFFFF80
FFFFFFFFFF80
FFFFFFFFFF80
FFFFFFFFFF80
ENDCHAR
STARTCHAR 00CB
ENCODING 203
SWIDTH 617 0
DWIDTH 48 0
BBX 43 67 3 0
BITMAP
00FE003F8000
01FF00FFC000
03FF80FFE000
03FF81FFE000
03FFC1FFE000
03FFC1FFE000
03FF81FFE000
03FF80FFE000
01FF00FFC000
00FE007F8000
001000040000
000000000000
000000000000
000000000000
FFFFFFFFFE00
FFFFFFFFFE00
FFFFFFFFFE00
FFFFFFFFFE00
7FFFFFFFFE00
1FFFC00FFE00
07FFC003FF00
07FFC000FF00
03FFC0007F00
03FFC0007F00
03FFC0003F00
03FFC0003F00
03FFC0003F00
03FFC0001F00
03FFC0001000
03FFC0000000
03FFC0000000
03FFC0000000
03FFC01F8000
03FFC01F8000
03FFC01F8000
03FFC01F8000
03FFC03F8000
03FFC07F8000
03FFFFFF8000
03FFFFFF8000
03FFFFFF8000
03FFFFFF8000
03FFFFFF8000
03FFC0FF8000
03FFC03F8000
03FFC01F8000
03FFC01F8000
03FFC01F8000
03FFC00F8000
03FFC0078000
03FFC0000000
03FFC0000000
03FFC0000300
03FFC00007C0
03FFC00007E0
03FFC0000FE0
03FFC0000FE0
03FFC0001FE0
03FFC0001FC0
03FFC0003FC0
07FFE0007FC0
0FFFF001FFC0
7FFFFFFFFFC0
7FFFFFFFFF80
FFFFFFFFFF80
FFFFFFFFFF80
FFFFFFFFFF80
ENDCHAR
STARTCHAR 00CC
ENCODING 204
SWIDTH 372 0
DWIDTH 29 0
BBX 23 68 3 0
BITMAP
0FE000
3FF000
1FF000
0FF800
07F800
03FC00
01FC00
01FE00
00FE00
007F00
003C00
000000
000000
000000
000000
FFFFFE
FFFFFE
FFFFFE
7FFFFE
7FFFFE
0FFFF0
07FFE0
07FFC0
03FFC0
03FFC0
03FFC0
03FFC0
03FFC0
03FFC0
03FFC0
03FFC0
03FFC0
03FFC0
03FFC0
03FFC0
03FFC0
03FFC0
03FFC0
03FFC0
03FFC0
03FFC0
03FFC0
03FFC0
03FFC0
03FFC0
03FFC0
03FFC0
03FFC0
03FFC0
03FFC0
03FFC0
03FFC0
03FFC0
03FFC0
03FFC0
03FFC0
03FFC0
03FFC0
03FFC0
03FFC0
03FFC0
07FFE0
0FFFE0
7FFFFE
7FFFFE
FFFFFE
FFFFFE
FFFFFE
ENDCHAR
STARTCHAR 00CD
ENCODING 205
SWIDTH 372 0
DWIDTH 29 0
BBX 23 68 3 0
BITMAP
000FFC
000FF8
001FF0
001FE0
003FC0
003FC0
007F80
007F00
00FE00
00FC00
007C00
000000
000000
000000
000000
FFFFFE
FFFFFE
FFFFFE
7FFFFE
7FFFFE
0FFFF0
07FFE0
07FFC0
03FFC0
03FFC0
03FFC0
03FFC0
03FFC0
03FFC0
03FFC0
03FFC0
03FFC0
03FFC0
03FFC0
03FFC0
03FFC0
03FFC0
03FFC0
03FFC0
03FFC0
03FFC0
03FFC0
03FFC0
03FFC0
03FFC0
03FFC0
03FFC0
03FFC0
03FFC0
03FFC0
03FFC0
03FFC0
03FFC0
03FFC0
03FFC0
03FFC0
03FFC0
03FFC0
03FFC0
03FFC0
03FFC0
07FFE0
0FFFE0
7FFFFE
7FFFFE
FFFFFE
FFFFFE
FFFFFE
ENDCHAR
STARTCHAR 00CE
ENCODING 206
SWIDTH 372 0
DWIDTH 29 0
BBX 23 68 3 0
BITMAP
007E00
00FF00
01FF80
03FFC0
07FFE0
0FFFE0
1FFFF0
3FFFF8
7F8FFC
FF03FE
FE01FE
78007C
100030
000000
000000
FFFFFE
FFFFFE
FFFFFE
7FFFFE
7FFFFE
0FFFF0
07FFE0
07FFC0
03FFC0
03FFC0
03FFC0
03FFC0
03FFC0
03FFC0
03FFC0
03FFC0
03FFC0
03FFC0
03FFC0
03FFC0
03FFC0
03FFC0
03FFC0
03FFC0
03FFC0
03FFC0
03FFC0
03FFC0
03FFC0
03FFC0
03FFC0
03FFC0
03FFC0
03FFC0
03FFC0
03FFC0
03FFC0
03FFC0
03FFC0
03FFC0
03FFC0
03FFC0
03FFC0
03FFC0
03FFC0
03FFC0
07FFE0
0FFFE0
7FFFFE
7FFFFE
FFFFFE
FFFFFE
FFFFFE
ENDCHAR
STARTCHAR 00CF
ENCODING 207
SWIDTH 372 0
DWIDTH 29 0
BBX 26 67 2 0
BITMAP
04001800
3F80FF00
7FC1FF80
FFE3FFC0
FFE3FFC0
FFE3FFC0
FFE3FFC0
FFE1FFC0
FFC1FF80
7F80FF00
0E001C00
00000000
00000000
00000000
7FFFFF00
7FFFFF00
7FFFFF00
3FFFFF00
3FFFFF00
07FFF800
03FFF000
03FFE000
01FFE000
01FFE000
01FFE000
01FFE000
01FFE000
01FFE000
01FFE000
01FFE000
01FFE000
01FFE000
01FFE000
01FFE000
01FFE000
01FFE000
01FFE000
01FFE000
01FFE000
01FFE000
01FFE000
01FFE000
01FFE000
01FFE000
01FFE000
01FFE000
01FFE000
01FFE000
01FFE000
01FFE000
01FFE000
01FFE000
01FFE000
01FFE000
01FFE000
01FFE000
01FFE000
01FFE000
01FFE000
01FFE000
03FFF000
07FFF000
3FFFFF00
3FFFFF00
7FFFFF00
7FFFFF00
7FFFFF00
ENDCHAR
STARTCHAR 00D0
ENCODING 208
SWIDTH 732 0
DWIDTH 57 0
BBX 52 53 2 0
BITMAP
7FFFFFF8000000
7FFFFFFFF00000
7FFFFFFFFE0000
3FFFFFFFFF8000
3FFFFFFFFFE000
07FFE007FFF000
03FFE001FFFC00
03FFE0007FFE00
01FFE0003FFF00
01FFE0001FFF00
01FFE0000FFF80
01FFE00007FF80
01FFE00007FFC0
01FFE00003FFC0
01FFE00003FFE0
01FFE00001FFE0
01FFE00001FFE0
01FFE00001FFF0
01FFE00000FFF0
01FFE00000FFF0
01FFE00000FFF0
01FFE00000FFF0
01FFE00000FFF0
01FFE00000FFF0
7FFFFFF800FFF0
7FFFFFF800FFF0
FFFFFFF800FFF0
FFFFFFF800FFF0
FFFFFFF800FFF0
01FFE00000FFF0
01FFE00000FFF0
01FFE00000FFF0
01FFE00000FFF0
01FFE00000FFF0
01FFE00000FFE0
01FFE00000FFE0
01FFE00001FFE0
01FFE00001FFC0
01FFE00001FFC0
01FFE00003FFC0
01FFE00003FF80
01FFE00007FF00
01FFE00007FF00
01FFE0000FFE00
01FFE0001FFC00
01FFE0003FF800
03FFF0007FF000
07FFF803FFE000
3FFFFFFFFF8000
3FFFFFFFFF0000
7FFFFFFFF80000
7FFFFFFFC00000
7FFFFFFC000000
ENDCHAR
STARTCHAR 00D1
ENCODING 209
SWIDTH 720 0
DWIDTH 56 0
BBX 51 69 3 -1
BITMAP
00000400000000
0000FFC00C0000
0001FFF01F0000
0007FFFE7F0000
000FFFFFFE0000
001FFFFFFE0000
001FFFFFFC0000
001F87FFF80000
000E00FFF00000
0004003FC00000
00000000000000
00000000000000
00000000000000
00000000000000
00000000000000
FFFE00003FFFE0
FFFF00003FFFE0
FFFF80003FFFE0
FFFF80003FFFE0
FFFFC0003FFFC0
1FFFE00007FF00
07FFF00001FE00
07FFF00001FC00
03FFF80000FC00
03FFFC0000FC00
03FFFE0000FC00
03FFFE0000FC00
03FFFF0000FC00
03FFFF8000F800
03FFFFC0007800
03EFFFC0007800
03EFFFE0007800
03E7FFF0007800
03E3FFF8007800
03E1FFF8007800
03E1FFFC007800
03E0FFFE007800
03E07FFF007800
03E03FFF007800
03E03FFF807800
03E01FFFC07800
03E00FFFC07800
03E007FFE07800
03E007FFF07800
03E003FFF87800
03E001FFF87800
03E000FFFC7800
03E000FFFE7800
03E0007FFF7800
03E0003FFF7800
03E0001FFFF800
03E0001FFFF800
03E0000FFFF800
03E00007FFF800
03E00003FFF800
03E00003FFF800
03E00001FFF800
03E00000FFF800
03E000007FF800
07F000007FF800
07F000003FF800
07F000001FF800
0FF800000FF800
FFFF80000FF800
FFFF800007F800
FFFF800003F800
FFFF800001F800
FFFF800001F800
0000000000E000
ENDCHAR
STARTCHAR 00D2
ENCODING 210
SWIDTH 745 0
DWIDTH 58 0
BBX 52 69 3 -1
BITMAP
00003F80000000
0000FFC0000000
00007FC0000000
00003FE0000000
00001FE0000000
00000FF0000000
000007F0000000
000003F8000000
000003F8000000
000001FC000000
000000F8000000
00000000000000
00000000000000
00000000000000
00000000000000
00001FFF800000
0000FFFFF00000
0007FFFFFE0000
000FFFFFFF8000
003FFFFFFFC000
007FF007FFE000
00FFE001FFF800
01FF8000FFFC00
03FF00003FFC00
07FF00001FFE00
0FFE00001FFF00
0FFC00000FFF80
1FFC000007FF80
1FFC000007FFC0
3FF8000003FFC0
3FF8000003FFE0
7FF8000003FFE0
7FF0000001FFE0
7FF0000001FFE0
FFF0000001FFF0
FFF0000001FFF0
FFF0000000FFF0
FFF0000000FFF0
FFF0000000FFF0
FFF0000000FFF0
FFF0000000FFF0
FFF0000000FFF0
FFF0000000FFF0
FFF0000000FFF0
FFF0000000FFF0
FFF0000000FFF0
FFF0000000FFF0
FFF8000000FFF0
FFF8000000FFF0
7FF8000000FFE0
7FF8000001FFE0
7FFC000001FFE0
3FFC000001FFC0
3FFC000001FFC0
3FFE000003FF80
1FFE000003FF80
1FFF000007FF00
0FFF000007FF00
07FF80000FFE00
07FFC0000FFC00
03FFE0001FF800
01FFF0003FF000
00FFFC00FFE000
003FFF87FFC000
001FFFFFFF8000
000FFFFFFE0000
0001FFFFF80000
00007FFFC00000
000001F8000000
ENDCHAR
STARTCHAR 00D3
ENCODING 211
SWIDTH 745 0
DWIDTH 58 0
BBX 52 69 3 -1
BITMAP
0000003FF00000
0000003FE00000
0000003FC00000
0000007FC00000
0000007F800000
000000FF000000
000000FE000000
000001FC000000
000001F8000000
000003F8000000
000000F0000000
00000000000000
00000000000000
00000000000000
00000000000000
00001FFF800000
0000FFFFF00000
0007FFFFFE0000
000FFFFFFF8000
003FFFFFFFC000
007FF007FFE000
00FFE001FFF800
01FF8000FFFC00
03FF00003FFC00
07FF00001FFE00
0FFE00001FFF00
0FFC00000FFF80
1FFC000007FF80
1FFC000007FFC0
3FF8000003FFC0
3FF8000003FFE0
7FF8000003FFE0
7FF0000001FFE0
7FF0000001FFE0
FFF0000001FFF0
FFF0000001FFF0
FFF0000000FFF0
FFF0000000FFF0
FFF0000000FFF0
FFF0000000FFF0
FFF0000000FFF0
FFF0000000FFF0
FFF0000000FFF0
FFF0000000FFF0
FFF0000000FFF0
FFF0000000FFF0
FFF0000000FFF0
FFF8000000FFF0
FFF8000000FFF0
7FF8000000FFE0
7FF8000001FFE0
7FFC000001FFE0
3FFC000001FFC0
3FFC000001FFC0
3FFE000003FF80
1FFE000003FF80
1FFF000007FF00
0FFF000007FF00
07FF80000FFE00
07FFC0000FFC00
03FFE0001FF800
01FFF0003FF000
00FFFC00FFE000
003FFF87FFC000
001FFFFFFF8000
000FFFFFFE0000
0001FFFFF80000
00007FFFC00000
000001F8000000
ENDCHAR
STARTCHAR 00D4
ENCODING 212
SWIDTH 745 0
DWIDTH 58 0
BBX 52 70 3 -1
BITMAP
000000F8000000
000001FC000000
000003FE000000
00000FFF000000
00001FFF800000
00003FFFE00000
0000FFFFF00000
0001FFFFF80000
0007FE1FFE0000
0007F807FE0000
0007E001FC0000
00038000780000
00000000000000
00000000000000
00000000000000
00000000000000
00001FFF800000
0000FFFFF00000
0007FFFFFE0000
000FFFFFFF8000
003FFFFFFFC000
007FF007FFE000
00FFE001FFF800
01FF8000FFFC00
03FF00003FFC00
07FF00001FFE00
0FFE00001FFF00
0FFC00000FFF80
1FFC000007FF80
1FFC000007FFC0
3FF8000003FFC0
3FF8000003FFE0
7FF8000003FFE0
7FF0000001FFE0
7FF0000001FFE0
FFF0000001FFF0
FFF0000001FFF0
FFF0000000FFF0
FFF0000000FFF0
FFF0000000FFF0
FFF0000000FFF0
FFF0000000FFF0
FFF0000000FFF0
FFF0000000FFF0
FFF0000000FFF0
FFF0000000FFF0
FFF0000000FFF0
FFF0000000FFF0
FFF8000000FFF0
FFF8000000FFF0
7FF8000000FFE0
7FF8000001FFE0
7FFC000001FFE0
3FFC000001FFC0
3FFC000001FFC0
3FFE000003FF80
1FFE000003FF80
1FFF000007FF00
0FFF000007FF00
07FF80000FFE00
07FFC0000FFC00
03FFE0001FF800
01FFF0003FF000
00FFFC00FFE000
003FFF87FFC000
001FFFFFFF8000
000FFFFFFE0000
0001FFFFF80000
00007FFFC00000
000001F8000000
ENDCHAR
STARTCHAR 00D5
ENCODING 213
SWIDTH 745 0
DWIDTH 58 0
BBX 52 68 3 0
BITMAP
00007FC0040000
0001FFF01F0000
0003FFFF7F0000
0007FFFFFF0000
000FFFFFFE0000
000FFFFFFC0000
000F83FFF80000
000E00FFF00000
0004003FC00000
00000000000000
00000000000000
00000000000000
00000000000000
00000000000000
00001FFF800000
0000FFFFF00000
0007FFFFFE0000
000FFFFFFF8000
003FFFFFFFC000
007FF007FFE000
00FFE001FFF800
01FF8000FFFC00
03FF00003FFC00
07FF00001FFE00
0FFE00001FFF00
0FFC00000FFF80
1FFC000007FF80
1FFC000007FFC0
3FF8000003FFC0
3FF8000003FFE0
7FF8000003FFE0
7FF0000001FFE0
7FF0000001FFE0
FFF0000001FFF0
FFF0000001FFF0
FFF0000000FFF0
FFF0000000FFF0
FFF0000000FFF0
FFF0000000FFF0
FFF0000000FFF0
FFF0000000FFF0
FFF0000000FFF0
FFF0000000FFF0
FFF0000000FFF0
FFF0000000FFF0
FFF0000000FFF0
FFF8000000FFF0
FFF8000000FFF0
7FF8000000FFE0
7FF8000001FFE0
7FFC000001FFE0
3FFC000001FFC0
3FFC000001FFC0
3FFE000003FF80
1FFE000003FF80
1FFF000007FF00
0FFF000007FF00
07FF80000FFE00
07FFC0000FFC00
03FFE0001FF800
01FFF0003FF000
00FFFC00FFE000
003FFF87FFC000
001FFFFFFF8000
000FFFFFFE0000
0001FFFFF80000
00007FFFC00000
000001F8000000
ENDCHAR
STARTCHAR 00D6
ENCODING 214
SWIDTH 745 0
DWIDTH 58 0
BBX 52 68 3 -1
BITMAP
0003F801FC0000
0007FC03FF0000
000FFE07FF0000
000FFE07FF8000
001FFE07FF8000
001FFE07FF8000
001FFE07FF8000
000FFE07FF0000
000FFC03FF0000
0003F801FE0000
00004000300000
00000000000000
00000000000000
00000000000000
00001FFF800000
0000FFFFF00000
0007FFFFFE0000
000FFFFFFF8000
003FFFFFFFC000
007FF007FFE000
00FFE001FFF800
01FF8000FFFC00
03FF00003FFC00
07FF00001FFE00
0FFE00001FFF00
0FFC00000FFF80
1FFC000007FF80
1FFC000007FFC0
3FF8000003FFC0
3FF8000003FFE0
7FF8000003FFE0
7FF0000001FFE0
7FF0000001FFE0
FFF0000001FFF0
FFF0000001FFF0
FFF0000000FFF0
FFF0000000FFF0
FFF0000000FFF0
FFF0000000FFF0
FFF0000000FFF0
FFF0000000FFF0
FFF0000000FFF0
FFF0000000FFF0
FFF0000000FFF0
FFF0000000FFF0
FFF0000000FFF0
FFF8000000FFF0
FFF8000000FFF0
7FF8000000FFE0
7FF8000001FFE0
7FFC000001FFE0
3FFC000001FFC0
3FFC000001FFC0
3FFE000003FF80
1FFE000003FF80
1FFF000007FF00
0FFF000007FF00
07FF80000FFE00
07FFC0000FFC00
03FFE0001FF800
01FFF0003FF000
00FFFC00FFE000
003FFF87FFC000
001FFFFFFF8000
000FFFFFFE0000
0001FFFFF80000
00007FFFC00000
000001F8000000
ENDCHAR
STARTCHAR 00D7
ENCODING 215
SWIDTH 540 0
DWIDTH 42 0
BBX 37 37 3 2
BITMAP
0000000100
3C000003E0
7E000007F8
FF000007F0
7F80000FE0
3F80001FC0
1FC0003F80
0FE0007F00
07F000FE00
03F801FC00
01FC03F800
00FE07F000
007F0FE000
003F8FE000
001FDFC000
001FFF8000
000FFF0000
0007FE0000
0003FC0000
0003FC0000
0007FE0000
000FFF0000
000FFF8000
001FDFC000
003F8FE000
007F07F000
00FE03F800
01FC01FC00
03F801FE00
07F000FF00
0FE0007F80
1FE0003FC0
3FC0001FC0
3F80000FE0
7F000007F0
FE000003F0
7C000001E0
ENDCHAR
STARTCHAR 00D8
ENCODING 216
SWIDTH 745 0
DWIDTH 58 0
BBX 52 56 3 -2
BITMAP
00000000000FC0
00001FFF801FE0
0000FFFFF01FC0
0007FFFFFE3F80
000FFFFFFFFF00
003FFFFFFFFF00
007FF007FFFE00
00FFE001FFFC00
01FF80007FFC00
03FF00003FFC00
07FF00001FFE00
0FFE00001FFF00
0FFC00003FFF80
1FFC00003FFF80
1FFC00007FFFC0
3FF80000FFFFC0
3FF80001FFFFE0
7FF80001FFFFE0
7FF00003F9FFE0
7FF00007F1FFF0
FFF0000FE1FFF0
FFF0001FE1FFF0
FFF0001FC0FFF0
FFF0003F80FFF0
FFF0007F00FFF0
FFF000FF00FFF0
FFF000FE00FFF0
FFF001FC00FFF0
FFF003F800FFF0
FFF007F000FFF0
FFF007F000FFF0
FFF00FE000FFF0
FFF01FC000FFF0
FFF83F8000FFF0
FFF87F8000FFF0
7FF87F0000FFE0
7FF8FE0001FFE0
7FFDFC0001FFE0
3FFFFC0001FFC0
3FFFF80001FFC0
3FFFF00003FF80
1FFFE00003FF80
1FFFC00007FF00
0FFFC00007FF00
07FF80000FFE00
03FFC0000FFC00
03FFE0001FF800
01FFF0003FF000
03FFFC00FFE000
07FFFFC7FFC000
0FFFFFFFFF8000
0FE7FFFFFE0000
1FC1FFFFF80000
3F807FFFC00000
7F0001F8000000
1F000000000000
ENDCHAR
STARTCHAR 00D9
ENCODING 217
SWIDTH 681 0
DWIDTH 53 0
BBX 49 69 2 -1
BITMAP
00000FE0000000
00003FF0000000
00001FF0000000
00000FF8000000
000007F8000000
000003FC000000
000001FC000000
000000FE000000
000000FE000000
0000007F000000
0000003C000000
00000000000000
00000000000000
00000000000000
00000000000000
FFFFFE007FFF80
FFFFFE007FFF80
FFFFFE007FFF80
7FFFFE007FFF00
7FFFFE007FFF00
1FFFF0001FFC00
07FFC00007F800
07FFC00007F000
07FFC00003F000
03FF800003F000
03FF800003F000
03FF800003E000
03FF800003E000
03FF800003E000
03FF800003E000
03FF800003E000
03FF800003E000
03FF800003E000
03FF800003E000
03FF800003E000
03FF800003E000
03FF800003E000
03FF800003E000
03FF800003E000
03FF800003E000
03FF800003E000
03FF800003E000
03FF800003E000
03FF800003E000
03FF800003E000
03FF800003E000
03FF800003E000
03FF800003E000
03FF800003E000
03FF800003E000
03FF800003E000
03FF800003E000
03FFC00003E000
03FFC00003E000
03FFC00003E000
03FFC00003E000
03FFC00007E000
01FFE00007E000
01FFE00007C000
01FFF0000FC000
00FFF8001FC000
00FFFC003F8000
007FFE007F0000
007FFFFFFF0000
003FFFFFFE0000
000FFFFFFC0000
0007FFFFF00000
0000FFFFC00000
000003FC000000
ENDCHAR
STARTCHAR 00DA
ENCODING 218
SWIDTH 681 0
DWIDTH 53 0
BBX 49 69 2 -1
BITMAP
0000000FFC0000
0000000FF80000
0000001FF00000
0000001FE00000
0000003FC00000
0000003FC00000
0000007F800000
0000007F000000
000000FE000000
000000FC000000
0000007C000000
00000000000000
00000000000000
00000000000000
00000000000000
FFFFFE007FFF80
FFFFFE007FFF80
FFFFFE007FFF80
7FFFFE007FFF00
7FFFFE007FFF00
1FFFF0001FFC00
07FFC00007F800
07FFC00007F000
07FFC00003F000
03FF800003F000
03FF800003F000
03FF800003E000
03FF800003E000
03FF800003E000
03FF800003E000
03FF800003E000
03FF800003E000
03FF800003E000
03FF800003E000
03FF800003E000
03FF800003E000
03FF800003E000
03FF800003E000
03FF800003E000
03FF800003E000
03FF800003E000
03FF800003E000
03FF800003E000
03FF800003E000
03FF800003E000
03FF800003E000
03FF800003E000
03FF800003E000
03FF800003E000
03FF800003E000
03FF800003E000
03FF800003E000
03FFC00003E000
03FFC00003E000
03FFC00003E000
03FFC00003E000
03FFC00007E000
01FFE00007E000
01FFE00007C000
01FFF0000FC000
00FFF8001FC000
00FFFC003F8000
007FFE007F0000
007FFFFFFF0000
003FFFFFFE0000
000FFFFFFC0000
0007FFFFF00000
0000FFFFC00000
000003FC000000
ENDCHAR
STARTCHAR 00DB
ENCODING 219
SWIDTH 681 0
DWIDTH 53 0
BBX 49 70 2 -1
BITMAP
0000003E000000
0000007F000000
000001FF800000
000003FFC00000
000007FFE00000
00000FFFF00000
00003FFFFC0000
00007FFFFE0000
0001FF87FF0000
0003FE01FF8000
0001F8007F0000
0000E0001E0000
00000000000000
00000000000000
00000000000000
00000000000000
FFFFFE007FFF80
FFFFFE007FFF80
FFFFFE007FFF80
7FFFFE007FFF00
7FFFFE007FFF00
1FFFF0001FFC00
07FFC00007F800
07FFC00007F000
07FFC00003F000
03FF800003F000
03FF800003F000
03FF800003E000
03FF800003E000
03FF800003E000
03FF800003E000
03FF800003E000
03FF800003E000
03FF800003E000
03FF800003E000
03FF800003E000
03FF800003E000
03FF800003E000
03FF800003E000
03FF800003E000
03FF800003E000
03FF800003E000
03FF800003E000
03FF800003E000
03FF800003E000
03FF800003E000
03FF800003E000
03FF800003E000
03FF800003E000
03FF800003E000
03FF800003E000
03FF800003E000
03FF800003E000
03FFC00003E000
03FFC00003E000
03FFC00003E000
03FFC00003E000
03FFC00007E000
01FFE00007E000
01FFE00007C000
01FFF0000FC000
00FFF8001FC000
00FFFC003F8000
007FFE007F0000
007FFFFFFF0000
003FFFFFFE0000
000FFFFFFC0000
0007FFFFF00000
0000FFFFC00000
000003FC000000
ENDCHAR
STARTCHAR 00DC
ENCODING 220
SWIDTH 681 0
DWIDTH 53 0
BBX 49 68 2 -1
BITMAP
0000FE007F0000
0003FF00FF8000
0003FF01FFC000
0007FF81FFC000
0007FF81FFE000
0007FF81FFE000
0007FF81FFC000
0003FF01FFC000
0003FF00FFC000
0001FE007F8000
000038000C0000
00000000000000
00000000000000
00000000000000
FFFFFE007FFF80
FFFFFE007FFF80
FFFFFE007FFF80
7FFFFE007FFF00
7FFFFE007FFF00
1FFFF0001FFC00
07FFC00007F800
07FFC00007F000
07FFC00003F000
03FF800003F000
03FF800003F000
03FF800003E000
03FF800003E000
03FF800003E000
03FF800003E000
03FF800003E000
03FF800003E000
03FF800003E000
03FF800003E000
03FF800003E000
03FF800003E000
03FF800003E000
03FF800003E000
03FF800003E000
03FF800003E000
03FF800003E000
03FF800003E000
03FF800003E000
03FF800003E000
03FF800003E000
03FF800003E000
03FF800003E000
03FF800003E000
03FF800003E000
03FF800003E000
03FF800003E000
03FF800003E000
03FFC00003E000
03FFC00003E000
03FFC00003E000
03FFC00003E000
03FFC00007E000
01FFE00007E000
01FFE00007C000
01FFF0000FC000
00FFF8001FC000
00FFFC003F8000
007FFE007F0000
007FFFFFFF0000
003FFFFFFE0000
000FFFFFFC0000
0007FFFFF00000
0000FFFFC00000
000003FC000000
ENDCHAR
STARTCHAR 00DD
ENCODING 221
SWIDTH 630 0
DWIDTH 49 0
BBX 47 68 1 0
BITMAP
0000001FF800
0000001FF000
0000001FE000
0000003FE000
0000003FC000
0000007F8000
0000007F0000
000000FE0000
000000FC0000
000001FC0000
000000F80000
000000000000
000000000000
000000000000
000000000000
FFFFFE00FFFE
FFFFFE00FFFE
FFFFFE00FFFE
7FFFFE00FFFE
7FFFFC007FFC
1FFFF0001FF8
0FFFE0000FE0
07FFE0000FE0
03FFF0000FC0
03FFF0000F80
01FFF0001F80
01FFF8001F00
00FFF8003F00
00FFFC003E00
007FFC007E00
007FFC007C00
003FFE007C00
003FFE00F800
001FFF00F800
001FFF01F000
000FFF81F000
000FFF83E000
0007FFC3E000
0007FFC7C000
0003FFC7C000
0003FFE78000
0001FFEF8000
0001FFFF8000
0000FFFF0000
0000FFFF0000
00007FFE0000
00007FFE0000
00003FFC0000
00003FFC0000
00003FFC0000
00003FFC0000
00003FFC0000
00003FFC0000
00003FFC0000
00003FFC0000
00003FFC0000
00003FFC0000
00003FFC0000
00003FFC0000
00003FFC0000
00003FFC0000
00007FFE0000
0000FFFF0000
001FFFFFF800
003FFFFFF800
003FFFFFF800
003FFFFFF800
003FFFFFF800
ENDCHAR
STARTCHAR 00DE
ENCODING 222
SWIDTH 630 0
DWIDTH 49 0
BBX 44 53 3 0
BITMAP
FFFFFE000000
FFFFFE000000
FFFFFE000000
7FFFFE000000
7FFFFE000000
0FFFF0000000
07FFE0000000
07FFC0000000
03FFC0000000
03FFC0000000
03FFC0000000
03FFFFFF8000
03FFFFFFF000
03FFFFFFFC00
03FFFFFFFE00
03FFF1FFFF00
03FFC01FFF80
03FFC007FFC0
03FFC003FFC0
03FFC001FFE0
03FFC001FFE0
03FFC000FFE0
03FFC000FFF0
03FFC000FFF0
03FFC0007FF0
03FFC0007FF0
03FFC0007FF0
03FFC0007FF0
03FFC0007FF0
03FFC000FFE0
03FFC000FFE0
03FFC000FFE0
03FFC001FFC0
03FFC001FFC0
03FFC003FF80
03FFC007FF00
03FFC07FFE00
03FFCFFFFC00
03FFCFFFF800
03FFCFFFE000
03FFCFFF0000
03FFC0000000
03FFC0000000
03FFC0000000
03FFC0000000
03FFE0000000
07FFF0000000
0FFFF8000000
7FFFFF800000
7FFFFFC00000
FFFFFFC00000
FFFFFFC00000
FFFFFFC00000
ENDCHAR
STARTCHAR 00DF
ENCODING 223
SWIDTH 681 0
DWIDTH 53 0
BBX 49 57 2 -1
BITMAP
000001F8000000
00003FFFC00000
0001FFFFF00000
0003FFFFFC0000
000FFFFFFE0000
001FFC3FFF0000
003FF00FFF0000
003FE003FF8000
007FC001FF8000
00FFC001FF8000
00FFC000FF8000
00FFC000FF8000
01FFC000FF8000
01FFC000FF8000
01FFC000FF0000
01FFC000FF0000
01FFC001FE0000
01FFC001FC0000
01FFC003F80000
01FFC00FF00000
01FFC01FE00000
7FFFC07F800000
7FFFC0FF800000
7FFFC1FF000000
FFFFC1FF000000
FFFFC3FF000000
07FFC3FF800000
01FFC3FFC00000
01FFC3FFE00000
01FFC3FFF80000
01FFC3FFFE0000
01FFC3FFFF8000
01FFC1FFFFC000
01FFC1FFFFF000
01FFC0FFFFF800
01FFC07FFFFC00
01FFC03FFFFE00
01FFC01FFFFE00
01FFC007FFFF00
01FFC001FFFF00
01FFC000FFFF00
01FFC0003FFF00
01FFC0001FFF80
01FFC0700FFF80
01FFC3F007FF80
01FFC3F007FF00
03FFC3F003FF00
03FFC3F003FF00
03FFC3F803FE00
03FFC3F807FE00
07FFC3FC07FC00
7FFFC3FE1FF800
7FFFC3FFFFF000
7FFFC3FFFFE000
7FFFC3FFFFC000
7FFFC07FFE0000
00000003C00000
ENDCHAR
STARTCHAR 00E0
ENCODING 224
SWIDTH 540 0
DWIDTH 42 0
BBX 37 57 5 -1
BITMAP
001C000000
07FC000000
0FFC000000
07FE000000
03FE000000
01FE000000
00FF000000
00FF000000
007F800000
003F800000
001FC00000
001FC00000
000FE00000
0007E00000
0000000000
0000000000
0000000000
0000000000
0000000000
0000000000
0003FF0000
001FFFE000
007FFFF000
00FFFFF800
03FFFFFC00
07E1FFFC00
0FE07FFC00
1FE03FFE00
3FE01FFE00
7FE01FFE00
FFE01FFE00
FFE00FFE00
FFE00FFE00
FFE00FFE00
00001FFE00
00007FFE00
0001FFFE00
000FFFFE00
003FEFFE00
00FF8FFE00
03FE0FFE00
1FFC0FFE00
3FF00FFE00
7FE00FFE00
7FE00FFE00
7FE00FFE00
FFE00FFE00
FFE00FFF00
FFF00FFF80
FFF00FFFE0
7FF81FFFF8
7FFFFFFFF8
7FFFFFFFF8
3FFFEFFFF0
1FFF87FFE0
07FF03FF00
002000F000
ENDCHAR
STARTCHAR 00E1
ENCODING 225
SWIDTH 540 0
DWIDTH 42 0
BBX 37 57 5 -1
BITMAP
00003FE000
0000FFC000
0000FF8000
0000FF8000
0001FF0000
0001FE0000
0001FC0000
0003FC0000
0003F80000
0007F00000
0007F00000
0007E00000
000FC00000
000FC00000
0003800000
0000000000
0000000000
0000000000
0000000000
0000000000
0003FF0000
001FFFE000
007FFFF000
00FFFFF800
03FFFFFC00
07E1FFFC00
0FE07FFC00
1FE03FFE00
3FE01FFE00
7FE01FFE00
FFE01FFE00
FFE00FFE00
FFE00FFE00
FFE00FFE00
00001FFE00
00007FFE00
0001FFFE00
000FFFFE00
003FEFFE00
00FF8FFE00
03FE0FFE00
1FFC0FFE00
3FF00FFE00
7FE00FFE00
7FE00FFE00
7FE00FFE00
FFE00FFE00
FFE00FFF00
FFF00FFF80
FFF00FFFE0
7FF81FFFF8
7FFFFFFFF8
7FFFFFFFF8
3FFFEFFFF0
1FFF87FFE0
07FF03FF00
002000F000
ENDCHAR
STARTCHAR 00E2
ENCODING 226
SWIDTH 540 0
DWIDTH 42 0
BBX 37 57 5 -1
BITMAP
0000C00000
0007E00000
000FF00000
001FF80000
003FFC0000
007FFE0000
00FFFF0000
01FFFF8000
03FFFFC000
0FF8FFE000
1FF03FF000
3FC01FF800
7F8007FC00
7E0003FC00
3C0000F000
1000004000
0000000000
0000000000
0000000000
0000000000
0003FF0000
001FFFE000
007FFFF000
00FFFFF800
03FFFFFC00
07E1FFFC00
0FE07FFC00
1FE03FFE00
3FE01FFE00
7FE01FFE00
FFE01FFE00
FFE00FFE00
FFE00FFE00
FFE00FFE00
00001FFE00
00007FFE00
0001FFFE00
000FFFFE00
003FEFFE00
00FF8FFE00
03FE0FFE00
1FFC0FFE00
3FF00FFE00
7FE00FFE00
7FE00FFE00
7FE00FFE00
FFE00FFE00
FFE00FFF00
FFF00FFF80
FFF00FFFE0
7FF81FFFF8
7FFFFFFFF8
7FFFFFFFF8
3FFFEFFFF0
1FFF87FFE0
07FF03FF00
002000F000
ENDCHAR
STARTCHAR 00E3
ENCODING 227
SWIDTH 540 0
DWIDTH 42 0
BBX 37 54 5 -1
BITMAP
00F0000000
07FE003000
0FFF807C00
1FFFE1F800
3FFFFFF800
7FFFFFF000
FFFFFFE000
FC1FFFC000
7007FF8000
6001FF0000
0000100000
0000000000
0000000000
0000000000
0000000000
0000000000
0000000000
0003FF0000
001FFFE000
007FFFF000
00FFFFF800
03FFFFFC00
07E1FFFC00
0FE07FFC00
1FE03FFE00
3FE01FFE00
7FE01FFE00
FFE01FFE00
FFE00FFE00
FFE00FFE00
FFE00FFE00
00001FFE00
00007FFE00
0001FFFE00
000FFFFE00
003FEFFE00
00FF8FFE00
03FE0FFE00
1FFC0FFE00
3FF00FFE00
7FE00FFE00
7FE00FFE00
7FE00FFE00
FFE00FFE00
FFE00FFF00
FFF00FFF80
FFF00FFFE0
7FF81FFFF8
7FFFFFFFF8
7FFFFFFFF8
3FFFEFFFF0
1FFF87FFE0
07FF03FF00
002000F000
ENDCHAR
STARTCHAR 00E4
ENCODING 228
SWIDTH 540 0
DWIDTH 42 0
BBX 37 52 5 -1
BITMAP
1F800FE000
3FE01FF000
7FE03FF800
FFF03FFC00
FFF03FFC00
FFF03FFC00
FFF03FFC00
7FF03FF800
7FE01FF800
3FC00FF000
0600018000
0000000000
0000000000
0000000000
0000000000
0003FF0000
001FFFE000
007FFFF000
00FFFFF800
03FFFFFC00
07E1FFFC00
0FE07FFC00
1FE03FFE00
3FE01FFE00
7FE01FFE00
FFE01FFE00
FFE00FFE00
FFE00FFE00
FFE00FFE00
00001FFE00
00007FFE00
0001FFFE00
000FFFFE00
003FEFFE00
00FF8FFE00
03FE0FFE00
1FFC0FFE00
3FF00FFE00
7FE00FFE00
7FE00FFE00
7FE00FFE00
FFE00FFE00
FFE00FFF00
FFF00FFF80
FFF00FFFE0
7FF81FFFF8
7FFFFFFFF8
7FFFFFFFF8
3FFFEFFFF0
1FFF87FFE0
07FF03FF00
002000F000
ENDCHAR
STARTCHAR 00E5
ENCODING 229
SWIDTH 540 0
DWIDTH 42 0
BBX 37 57 5 -1
BITMAP
000FE00000
003FF80000
00FFFC0000
01FFFE0000
01F87F0000
03F07F0000
03F03F0000
03F03F0000
03F03F0000
03F03F0000
03F87F0000
01FCFE0000
01FFFC0000
00FFF80000
003FF00000
0000000000
0000000000
0000000000
0000000000
0000000000
0003FF0000
001FFFE000
007FFFF000
00FFFFF800
03FFFFFC00
07E1FFFC00
0FE07FFC00
1FE03FFE00
3FE01FFE00
7FE01FFE00
FFE01FFE00
FFE00FFE00
FFE00FFE00
FFE00FFE00
00001FFE00
00007FFE00
0001FFFE00
000FFFFE00
003FEFFE00
00FF8FFE00
03FE0FFE00
1FFC0FFE00
3FF00FFE00
7FE00FFE00
7FE00FFE00
7FE00FFE00
FFE00FFE00
FFE00FFF00
FFF00FFF80
FFF00FFFE0
7FF81FFFF8
7FFFFFFFF8
7FFFFFFFF8
3FFFEFFFF0
1FFF87FFE0
07FF03FF00
002000F000
ENDCHAR
STARTCHAR 00E6
ENCODING 230
SWIDTH 720 0
DWIDTH 56 0
BBX 51 36 3 0
BITMAP
007FFC00FFC000
07FFFF07FFF000
3FFFFF8FFFF800
3FFFFFFFFFFC00
3FFDFFFFEFFE00
3FF03FFF83FF00
1FE03FFF01FF00
1FC01FFF00FF80
1FC01FFE00FF80
1FC00FFE00FFC0
1F800FFE007FC0
1F800FFE007FC0
07800FFE007FC0
00000FFE007FE0
00000FFE01FFE0
0001FFFFFFFFE0
003FFFFFFFFFC0
00FFFFFFFFFFC0
03FFFFFFFFFF80
0FFFEFFE000000
1FFC0FFE000000
3FF00FFE000000
7FE00FFE000000
7FC01FFE000000
FFC01FFE000000
FFC01FFF000000
FFC01FFF000000
FFC03FFF800080
FFC07FFFC00180
FFE07DFFE007C0
FFFBFDFFFC7FC0
7FFFF8FFFFFFC0
7FFFF87FFFFF80
3FFFE03FFFFF00
1FFFC00FFFFC00
0FFF0003FFF000
ENDCHAR
STARTCHAR 00E7
ENCODING 231
SWIDTH 462 0
DWIDTH 36 0
BBX 31 55 3 -19
BITMAP
000FFF80
007FFFF0
00FFFFFC
03FFFFFE
07FF9FFC
0FFC07FC
1FF803FC
1FF803FC
3FF001FC
3FF001FC
7FF000FC
7FE000FC
7FE000FC
FFE00000
FFE00000
FFE00000
FFE00000
FFE00000
FFE00000
FFE00000
FFE00000
FFE00000
FFE00000
FFF00000
FFF00000
7FF80000
7FF80000
3FFC0000
3FFE0004
1FFF001E
1FFFE0FE
0FFFFFFE
07FFFFFC
01FFFFF8
00FFFFF0
001FFFC0
0001F800
0001F000
0003E000
0003C000
0007F800
0007FE00
0007FF00
0007FF00
0000FF80
00003F80
00003F80
00001F80
00001F80
00003F80
00007F00
0007FE00
0007FC00
0007F000
00078000
ENDCHAR
STARTCHAR 00E8
ENCODING 232
SWIDTH 501 0
DWIDTH 39 0
BBX 34 57 3 -1
BITMAP
0003000000
01FF800000
01FF800000
00FF800000
007FC00000
007FC00000
003FE00000
001FE00000
000FE00000
0007F00000
0007F00000
0003F80000
0001F80000
0000FC0000
0000000000
0000000000
0000000000
0000000000
0000000000
0000000000
000FFF0000
007FFFC000
01FFFFF000
03FFFFF800
07FFFFFC00
0FFC0FFE00
1FF807FE00
1FF803FF00
3FF003FF00
7FF001FF80
7FF001FF80
7FE001FF80
FFE001FFC0
FFE001FFC0
FFE001FFC0
FFFFFFFFC0
FFFFFFFFC0
FFFFFFFFC0
FFFFFFFF80
FFFFFFFF00
FFE0000000
FFE0000000
FFF0000000
FFF0000000
FFF0000000
7FF8000000
7FF8000000
3FFC000100
3FFE000380
1FFF000F80
1FFFE07FC0
0FFFFFFF80
07FFFFFF00
03FFFFFE00
00FFFFF800
001FFFE000
0000F80000
ENDCHAR
STARTCHAR 00E9
ENCODING 233
SWIDTH 501 0
DWIDTH 39 0
BBX 34 57 3 -1
BITMAP
000007FC00
00001FF800
00001FF000
00003FE000
00003FC000
00003FC000
00007F8000
00007F0000
00007F0000
0000FE0000
0000FC0000
0001FC0000
0001F80000
0003F00000
0000700000
0000000000
0000000000
0000000000
0000000000
0000000000
000FFF0000
007FFFC000
01FFFFF000
03FFFFF800
07FFFFFC00
0FFC0FFE00
1FF807FE00
1FF803FF00
3FF003FF00
7FF001FF80
7FF001FF80
7FE001FF80
FFE001FFC0
FFE001FFC0
FFE001FFC0
FFFFFFFFC0
FFFFFFFFC0
FFFFFFFFC0
FFFFFFFF80
FFFFFFFF00
FFE0000000
FFE0000000
FFF0000000
FFF0000000
FFF0000000
7FF8000000
7FF8000000
3FFC000100
3FFE000380
1FFF000F80
1FFFE07FC0
0FFFFFFF80
07FFFFFF00
03FFFFFE00
00FFFFF800
001FFFE000
0000F80000
ENDCHAR
STARTCHAR 00EA
ENCODING 234
SWIDTH 501 0
DWIDTH 39 0
BBX 34 57 3 -1
BITMAP
0000380000
0000FC0000
0001FE0000
0003FF0000
0007FF8000
000FFF8000
001FFFC000
003FFFE000
00FFFFF000
01FF1FF800
03FE07FC00
0FF803FE00
0FE000FF00
0FC0007F00
0700003E00
0200000800
0000000000
0000000000
0000000000
0000000000
000FFF0000
007FFFC000
01FFFFF000
03FFFFF800
07FFFFFC00
0FFC0FFE00
1FF807FE00
1FF803FF00
3FF003FF00
7FF001FF80
7FF001FF80
7FE001FF80
FFE001FFC0
FFE001FFC0
FFE001FFC0
FFFFFFFFC0
FFFFFFFFC0
FFFFFFFFC0
FFFFFFFF80
FFFFFFFF00
FFE0000000
FFE0000000
FFF0000000
FFF0000000
FFF0000000
7FF8000000
7FF8000000
3FFC000100
3FFE000380
1FFF000F80
1FFFE07FC0
0FFFFFFF80
07FFFFFF00
03FFFFFE00
00FFFFF800
001FFFE000
0000F80000
ENDCHAR
STARTCHAR 00EB
ENCODING 235
SWIDTH 501 0
DWIDTH 39 0
BBX 34 52 3 -1
BITMAP
07F001FC00
0FF803FE00
0FFC07FF00
1FFC0FFF00
1FFE0FFF00
1FFE0FFF00
1FFE0FFF00
1FFC07FF00
0FFC07FE00
07F803FC00
00C0007800
0000000000
0000000000
0000000000
0000000000
000FFF0000
007FFFC000
01FFFFF000
03FFFFF800
07FFFFFC00
0FFC0FFE00
1FF807FE00
1FF803FF00
3FF003FF00
7FF001FF80
7FF001FF80
7FE001FF80
FFE001FFC0
FFE001FFC0
FFE001FFC0
FFFFFFFFC0
FFFFFFFFC0
FFFFFFFFC0
FFFFFFFF80
FFFFFFFF00
FFE0000000
FFE0000000
FFF0000000
FFF0000000
FFF0000000
7FF8000000
7FF8000000
3FFC000100
3FFE000380
1FFF000F80
1FFFE07FC0
0FFFFFFF80
07FFFFFF00
03FFFFFE00
00FFFFF800
001FFFE000
0000F80000
ENDCHAR
STARTCHAR 00EC
ENCODING 236
SWIDTH 347 0
DWIDTH 27 0
BBX 23 56 2 0
BITMAP
03C000
7FC000
FFE000
7FE000
3FE000
1FF000
0FF000
07F800
03F800
03F800
01FC00
00FC00
007E00
007E00
000000
000000
000000
000000
000000
000000
000700
007F80
7FFF80
7FFFC0
7FFFC0
7FFFC0
7FFFC0
0FFFC0
03FFC0
03FFC0
03FFC0
03FFC0
03FFC0
03FFC0
03FFC0
03FFC0
03FFC0
03FFC0
03FFC0
03FFC0
03FFC0
03FFC0
03FFC0
03FFC0
03FFC0
03FFC0
03FFC0
03FFC0
03FFC0
03FFC0
07FFE0
7FFFFC
7FFFFE
7FFFFE
7FFFFE
7FFFFE
ENDCHAR
STARTCHAR 00ED
ENCODING 237
SWIDTH 347 0
DWIDTH 27 0
BBX 22 56 3 0
BITMAP
0007FC
000FFC
001FF8
001FF0
001FE0
003FC0
003FC0
003F80
007F00
007F00
00FE00
00FC00
01FC00
01F800
003000
000000
000000
000000
000000
000000
000E00
00FF00
FFFF00
FFFF80
FFFF80
FFFF80
FFFF80
1FFF80
07FF80
07FF80
07FF80
07FF80
07FF80
07FF80
07FF80
07FF80
07FF80
07FF80
07FF80
07FF80
07FF80
07FF80
07FF80
07FF80
07FF80
07FF80
07FF80
07FF80
07FF80
07FF80
0FFFC0
FFFFF8
FFFFFC
FFFFFC
FFFFFC
FFFFFC
ENDCHAR
STARTCHAR 00EE
ENCODING 238
SWIDTH 347 0
DWIDTH 27 0
BBX 23 56 2 0
BITMAP
000C00
007E00
00FE00
01FF00
03FF80
07FFC0
0FFFC0
0FFFE0
1FFFF0
3F9FF0
7F0FF8
FE03FC
FC01FE
F800FE
700078
300000
000000
000000
000000
000000
000700
007F80
7FFF80
7FFFC0
7FFFC0
7FFFC0
7FFFC0
0FFFC0
03FFC0
03FFC0
03FFC0
03FFC0
03FFC0
03FFC0
03FFC0
03FFC0
03FFC0
03FFC0
03FFC0
03FFC0
03FFC0
03FFC0
03FFC0
03FFC0
03FFC0
03FFC0
03FFC0
03FFC0
03FFC0
03FFC0
07FFE0
7FFFFC
7FFFFE
7FFFFE
7FFFFE
7FFFFE
ENDCHAR
STARTCHAR 00EF
ENCODING 239
SWIDTH 347 0
DWIDTH 27 0
BBX 27 51 0 0
BITMAP
1F807F00
7FE0FF80
7FE1FFC0
FFF1FFE0
FFF1FFE0
FFF1FFE0
FFF1FFE0
FFE1FFC0
7FE0FFC0
3FC07F80
06000C00
00000000
00000000
00000000
00000000
0001C000
001FE000
1FFFE000
1FFFF000
1FFFF000
1FFFF000
1FFFF000
03FFF000
00FFF000
00FFF000
00FFF000
00FFF000
00FFF000
00FFF000
00FFF000
00FFF000
00FFF000
00FFF000
00FFF000
00FFF000
00FFF000
00FFF000
00FFF000
00FFF000
00FFF000
00FFF000
00FFF000
00FFF000
00FFF000
00FFF000
01FFF800
1FFFFF00
1FFFFF80
1FFFFF80
1FFFFF80
1FFFFF80
ENDCHAR
STARTCHAR 00F0
ENCODING 240
SWIDTH 552 0
DWIDTH 43 0
BBX 38 57 3 -1
BITMAP
0000600000
0007F00000
00FFFC0000
01FFFE0060
01FFFF01E0
01FFFF87E0
00FFFFFFF0
003FFFFFF0
000FFFFFE0
0003FFFF00
0000FFFC00
0000FFFE00
0003FFFF00
000FFFFF00
001FFFFF80
001FE7FFC0
001F83FFC0
001E01FFE0
000801FFE0
000000FFF0
0007FCFFF0
003FFF7FF0
00FFFFFFF8
03FFFFFFF8
07FFFFFFF8
0FFF01FFF8
1FFC007FFC
1FF8003FFC
3FF8003FFC
3FF0003FFC
7FF0001FFC
7FF0001FFC
FFE0001FFC
FFE0001FFC
FFE0001FFC
FFE0001FFC
FFE0001FFC
FFE0001FFC
FFE0001FFC
FFE0001FFC
FFE0001FFC
FFE0001FFC
FFE0003FF8
FFF0003FF8
FFF0003FF8
7FF0003FF0
7FF0007FF0
7FF8007FF0
3FF8007FE0
3FFC00FFC0
1FFE01FFC0
0FFFCFFF80
07FFFFFF00
03FFFFFC00
00FFFFF800
003FFFC000
0000F00000
ENDCHAR
STARTCHAR 00F1
ENCODING 241
SWIDTH 655 0
DWIDTH 51 0
BBX 46 53 3 0
BITMAP
0000F0000000
0007FE003000
000FFF807C00
001FFFE1F800
007FFFFFF800
007FFFFFF000
00FFFFFFE000
00FC1FFFC000
00F007FF8000
006001FF0000
000000100000
000000000000
000000000000
000000000000
000000000000
000000000000
000000000000
000F007F8000
00FF03FFF000
7FFF07FFF800
FFFF1FFFFC00
FFFF3FFFFE00
FFFF7FFFFE00
FFFFFFFFFF00
1FFFF01FFF00
07FF800FFF80
07FF8007FF80
07FF8007FF80
07FF8003FF80
07FF8003FF80
07FF8003FF80
07FF8003FF80
07FF8003FF80
07FF8003FF80
07FF8003FF80
07FF8003FF80
07FF8003FF80
07FF8003FF80
07FF8003FF80
07FF8003FF80
07FF8003FF80
07FF8003FF80
07FF8003FF80
07FF8003FF80
07FF8003FF80
07FF8003FFC0
07FF8007FFC0
0FFFC00FFFE0
FFFFF83FFFF8
FFFFF87FFFF8
FFFFF87FFFFC
FFFFFC7FFFFC
FFFFFC7FFFFC
ENDCHAR
STARTCHAR 00F2
ENCODING 242
SWIDTH 565 0
DWIDTH 44 0
BBX 39 57 3 -1
BITMAP
0001C00000
007FC00000
00FFC00000
007FE00000
003FE00000
001FE00000
000FF00000
0007F00000
0007F80000
0003F80000
0001FC0000
0001FC0000
0000FE0000
00007E0000
0000000000
0000000000
0000000000
0000000000
0000000000
0000000000
0007FFC000
003FFFF800
00FFFFFE00
01FFFFFF00
07FFDFFFC0
0FFE03FFE0
0FFC01FFE0
1FF800FFF0
3FF8007FF8
3FF0007FF8
7FF0003FFC
7FF0003FFC
7FE0001FFC
FFE0001FFC
FFE0001FFE
FFE0001FFE
FFE0001FFE
FFE0001FFE
FFE0001FFE
FFE0001FFE
FFE0001FFE
FFF0001FFC
FFF0001FFC
FFF0001FFC
FFF0001FFC
7FF8001FF8
7FF8003FF8
3FFC003FF8
3FFC007FF0
1FFE007FE0
1FFF00FFC0
0FFFC3FF80
07FFFFFF00
01FFFFFE00
00FFFFF800
001FFFE000
0000FE0000
ENDCHAR
STARTCHAR 00F3
ENCODING 243
SWIDTH 565 0
DWIDTH 44 0
BBX 39 57 3 -1
BITMAP
000003FE00
00000FFC00
00000FF800
00000FF800
00001FF000
00001FE000
00001FC000
00003FC000
00003F8000
00003F0000
00007F0000
00007E0000
0000FC0000
0000FC0000
0000380000
0000000000
0000000000
0000000000
0000000000
0000000000
0007FFC000
003FFFF800
00FFFFFE00
01FFFFFF00
07FFDFFFC0
0FFE03FFE0
0FFC01FFE0
1FF800FFF0
3FF8007FF8
3FF0007FF8
7FF0003FFC
7FF0003FFC
7FE0001FFC
FFE0001FFC
FFE0001FFE
FFE0001FFE
FFE0001FFE
FFE0001FFE
FFE0001FFE
FFE0001FFE
FFE0001FFE
FFF0001FFC
FFF0001FFC
FFF0001FFC
FFF0001FFC
7FF8001FF8
7FF8003FF8
3FFC003FF8
3FFC007FF0
1FFE007FE0
1FFF00FFC0
0FFFC3FF80
07FFFFFF00
01FFFFFE00
00FFFFF800
001FFFE000
0000FE0000
ENDCHAR
STARTCHAR 00F4
ENCODING 244
SWIDTH 565 0
DWIDTH 44 0
BBX 39 57 3 -1
BITMAP
00000C0000
00007E0000
0000FF0000
0001FF8000
0003FFC000
0007FFE000
000FFFF000
001FFFF800
003FFFFC00
00FF8FFE00
01FF03FF00
03FC01FF80
07F8007FC0
07E0003FC0
03C0000F00
0100000400
0000000000
0000000000
0000000000
0000000000
0007FFC000
003FFFF800
00FFFFFE00
01FFFFFF00
07FFDFFFC0
0FFE03FFE0
0FFC01FFE0
1FF800FFF0
3FF8007FF8
3FF0007FF8
7FF0003FFC
7FF0003FFC
7FE0001FFC
FFE0001FFC
FFE0001FFE
FFE0001FFE
FFE0001FFE
FFE0001FFE
FFE0001FFE
FFE0001FFE
FFE0001FFE
FFF0001FFC
FFF0001FFC
FFF0001FFC
FFF0001FFC
7FF8001FF8
7FF8003FF8
3FFC003FF8
3FFC007FF0
1FFE007FE0
1FFF00FFC0
0FFFC3FF80
07FFFFFF00
01FFFFFE00
00FFFFF800
001FFFE000
0000FE0000
ENDCHAR
STARTCHAR 00F5
ENCODING 245
SWIDTH 565 0
DWIDTH 44 0
BBX 39 54 3 -1
BITMAP
000F000000
007FE00300
00FFF807C0
01FFFE1F80
03FFFFFF80
07FFFFFF00
0FFFFFFE00
0FC1FFFC00
07007FF800
06001FF000
0000010000
0000000000
0000000000
0000000000
0000000000
0000000000
0000000000
0007FFC000
003FFFF800
00FFFFFE00
01FFFFFF00
07FFDFFFC0
0FFE03FFE0
0FFC01FFE0
1FF800FFF0
3FF8007FF8
3FF0007FF8
7FF0003FFC
7FF0003FFC
7FE0001FFC
FFE0001FFC
FFE0001FFE
FFE0001FFE
FFE0001FFE
FFE0001FFE
FFE0001FFE
FFE0001FFE
FFE0001FFE
FFF0001FFC
FFF0001FFC
FFF0001FFC
FFF0001FFC
7FF8001FF8
7FF8003FF8
3FFC003FF8
3FFC007FF0
1FFE007FE0
1FFF00FFC0
0FFFC3FF80
07FFFFFF00
01FFFFFE00
00FFFFF800
001FFFE000
0000FE0000
ENDCHAR
STARTCHAR 00F6
ENCODING 246
SWIDTH 565 0
DWIDTH 44 0
BBX 39 52 3 -1
BITMAP
01F800FE00
03FE01FF00
07FE03FF80
0FFF03FF80
0FFF03FFC0
0FFF03FFC0
0FFF03FFC0
07FF03FF80
07FE01FF80
03FC00FF00
0060001800
0000000000
0000000000
0000000000
0000000000
0007FFC000
003FFFF800
00FFFFFE00
01FFFFFF00
07FFDFFFC0
0FFE03FFE0
0FFC01FFE0
1FF800FFF0
3FF8007FF8
3FF0007FF8
7FF0003FFC
7FF0003FFC
7FE0001FFC
FFE0001FFC
FFE0001FFE
FFE0001FFE
FFE0001FFE
FFE0001FFE
FFE0001FFE
FFE0001FFE
FFE0001FFE
FFF0001FFC
FFF0001FFC
FFF0001FFC
FFF0001FFC
7FF8001FF8
7FF8003FF8
3FFC003FF8
3FFC007FF0
1FFE007FE0
1FFF00FFC0
0FFFC3FF80
07FFFFFF00
01FFFFFE00
00FFFFF800
001FFFE000
0000FE0000
ENDCHAR
STARTCHAR 00F7
ENCODING 247
SWIDTH 540 0
DWIDTH 42 0
BBX 37 37 3 2
BITMAP
0000700000
0001FC0000
0003FE0000
0007FF0000
0007FF0000
0007FF0000
0007FF0000
0007FE0000
0003FE0000
0001FC0000
0000300000
0000000000
0000000000
0000000000
0000000000
0000000000
7FFFFFFFF8
FFFFFFFFF8
FFFFFFFFF8
FFFFFFFFF8
FFFFFFFFF0
0000000000
0000000000
0000000000
0000000000
0000000000
0000200000
0001FC0000
0003FE0000
0007FE0000
0007FF0000
0007FF0000
0007FF0000
0007FE0000
0003FE0000
0001FC0000
0000700000
ENDCHAR
STARTCHAR 00F8
ENCODING 248
SWIDTH 565 0
DWIDTH 44 0
BBX 41 40 2 -2
BITMAP
000000003C00
000000007F80
0003FFE0FF00
001FFFFDFE00
007FFFFFFC00
00FFFFFFF800
03FFEFFFF000
07FF01FFF000
07FE00FFF000
0FFC007FF800
1FFC007FFC00
1FF800FFFC00
3FF801FFFE00
3FF803FFFE00
3FF007FFFE00
7FF00FFFFE00
7FF00FEFFF00
7FF01FCFFF00
7FF03F8FFF00
7FF07F0FFF00
7FF0FE0FFF00
7FF1FC0FFF00
7FF3FC0FFF00
7FFBF80FFE00
7FFFF00FFE00
7FFFE00FFE00
7FFFC00FFE00
3FFF800FFC00
3FFF001FFC00
1FFE001FFC00
1FFE003FF800
0FFF003FF000
07FF807FE000
07FFE1FFC000
0FFFFFFF8000
1FFFFFFF0000
3FFFFFFC0000
7F0FFFF00000
FE007F000000
FC0000000000
ENDCHAR
STARTCHAR 00F9
ENCODING 249
SWIDTH 604 0
DWIDTH 47 0
BBX 44 57 1 -1
BITMAP
000038000000
000FF8000000
001FFC000000
000FFC000000
0007FC000000
0003FE000000
0001FE000000
0000FE000000
00007F000000
00007F000000
00003F800000
00001F800000
00001FC00000
00000FC00000
000000000000
000000000000
000000000000
000000000000
000000000000
000000000000
000E00001E00
00FF0007FE00
7FFF00FFFF00
7FFF01FFFF00
FFFF01FFFF00
FFFF01FFFF00
FFFF00FFFF00
0FFF001FFF00
0FFF000FFF00
07FF000FFF00
07FF0007FF00
07FF0007FF00
07FF0007FF00
07FF0007FF00
07FF0007FF00
07FF0007FF00
07FF0007FF00
07FF0007FF00
07FF0007FF00
07FF0007FF00
07FF0007FF00
07FF0007FF00
07FF0007FF00
07FF0007FF00
07FF8007FF00
07FF8007FF00
07FF8007FF00
07FF8007FF00
03FFC007FF80
03FFE007FFF0
03FFFE3FFFF0
01FFFFFFFFF0
01FFFFFFFFF0
00FFFFE7FFF0
007FFF87FF00
001FFC078000
000000040000
ENDCHAR
STARTCHAR 00FA
ENCODING 250
SWIDTH 604 0
DWIDTH 47 0
BBX 44 57 1 -1
BITMAP
0000007FC000
000000FF8000
000001FF8000
000001FF0000
000001FE0000
000003FC0000
000003FC0000
000003F80000
000007F00000
000007E00000
00000FE00000
00000FC00000
00001FC00000
00001F800000
000007000000
000000000000
000000000000
000000000000
000000000000
000000000000
000E00001E00
00FF0007FE00
7FFF00FFFF00
7FFF01FFFF00
FFFF01FFFF00
FFFF01FFFF00
FFFF00FFFF00
0FFF001FFF00
0FFF000FFF00
07FF000FFF00
07FF0007FF00
07FF0007FF00
07FF0007FF00
07FF0007FF00
07FF0007FF00
07FF0007FF00
07FF0007FF00
07FF0007FF00
07FF0007FF00
07FF0007FF00
07FF0007FF00
07FF0007FF00
07FF0007FF00
07FF0007FF00
07FF8007FF00
07FF8007FF00
07FF8007FF00
07FF8007FF00
03FFC007FF80
03FFE007FFF0
03FFFE3FFFF0
01FFFFFFFFF0
01FFFFFFFFF0
00FFFFE7FFF0
007FFF87FF00
001FFC078000
000000040000
ENDCHAR
STARTCHAR 00FB
ENCODING 251
SWIDTH 604 0
DWIDTH 47 0
BBX 44 57 1 -1
BITMAP
000001C00000
00000FE00000
00000FE00000
00001FF00000
00007FF80000
0000FFFC0000
0001FFFE0000
0003FFFF0000
0007FFFF8000
000FF8FFC000
003FE07FE000
007FC01FF000
00FF000FF800
007C0003F800
00780001F000
001000000000
000000000000
000000000000
000000000000
000000000000
000E00001E00
00FF0007FE00
7FFF00FFFF00
7FFF01FFFF00
FFFF01FFFF00
FFFF01FFFF00
FFFF00FFFF00
0FFF001FFF00
0FFF000FFF00
07FF000FFF00
07FF0007FF00
07FF0007FF00
07FF0007FF00
07FF0007FF00
07FF0007FF00
07FF0007FF00
07FF0007FF00
07FF0007FF00
07FF0007FF00
07FF0007FF00
07FF0007FF00
07FF0007FF00
07FF0007FF00
07FF0007FF00
07FF8007FF00
07FF8007FF00
07FF8007FF00
07FF8007FF00
03FFC007FF80
03FFE007FFF0
03FFFE3FFFF0
01FFFFFFFFF0
01FFFFFFFFF0
00FFFFE7FFF0
007FFF87FF00
001FFC078000
000000040000
ENDCHAR
STARTCHAR 00FC
ENCODING 252
SWIDTH 604 0
DWIDTH 47 0
BBX 44 52 1 -1
BITMAP
003F800FC000
007FC03FF000
00FFE03FF000
00FFE07FF800
00FFE07FF800
01FFE07FF800
00FFE07FF800
00FFE07FF800
00FFC03FF000
003F801FE000
000E00030000
000000000000
000000000000
000000000000
000000000000
000E00001E00
00FF0007FE00
7FFF00FFFF00
7FFF01FFFF00
FFFF01FFFF00
FFFF01FFFF00
FFFF00FFFF00
0FFF001FFF00
0FFF000FFF00
07FF000FFF00
07FF0007FF00
07FF0007FF00
07FF0007FF00
07FF0007FF00
07FF0007FF00
07FF0007FF00
07FF0007FF00
07FF0007FF00
07FF0007FF00
07FF0007FF00
07FF0007FF00
07FF0007FF00
07FF0007FF00
07FF0007FF00
07FF8007FF00
07FF8007FF00
07FF8007FF00
07FF8007FF00
03FFC007FF80
03FFE007FFF0
03FFFE3FFFF0
01FFFFFFFFF0
01FFFFFFFFF0
00FFFFE7FFF0
007FFF87FF00
001FFC078000
000000040000
ENDCHAR
STARTCHAR 00FD
ENCODING 253
SWIDTH 552 0
DWIDTH 43 0
BBX 42 75 1 -19
BITMAP
0000001FF000
0000007FE000
0000007FC000
0000007FC000
000000FF8000
000000FF0000
000000FE0000
000001FE0000
000001FC0000
000003F80000
000003F80000
000003F00000
000007E00000
000007E00000
000001C00000
000000000000
000000000000
000000000000
000000000000
000000000000
FFFFFC3FFFC0
FFFFFC3FFFC0
FFFFFC3FFF80
FFFFFC1FFF80
FFFFFC1FFF80
3FFFE007FE00
0FFFC003FC00
0FFFC001F800
07FFC001F800
03FFC001F000
03FFC003F000
01FFE003E000
01FFE003E000
00FFF007C000
00FFF007C000
007FF80FC000
007FF80F8000
007FFC0F8000
003FFC1F0000
003FFC1F0000
001FFE3F0000
001FFE3E0000
000FFF3E0000
000FFF7C0000
0007FF7C0000
0007FFF80000
0003FFF80000
0003FFF80000
0001FFF00000
0001FFF00000
0001FFE00000
0000FFE00000
0000FFC00000
00007FC00000
00007FC00000
00003F800000
00003F800000
00001F000000
00001F000000
00003F000000
00003E000000
00007E000000
00007C000000
0000FC000000
0001F8000000
3007F8000000
3FFFF0000000
3FFFF0000000
3FFFE0000000
3FFFE0000000
3FFFC0000000
3FFF80000000
3FFF00000000
1FFE00000000
07FC00000000
ENDCHAR
STARTCHAR 00FE
ENCODING 254
SWIDTH 617 0
DWIDTH 48 0
BBX 44 75 2 -19
BITMAP
000200000000
001F00000000
07FF80000000
7FFF80000000
FFFF80000000
FFFF80000000
FFFF80000000
3FFF80000000
07FF80000000
07FF80000000
03FF80000000
03FF80000000
03FF80000000
03FF80000000
03FF80000000
03FF80000000
03FF80000000
03FF80000000
03FF80000000
03FF80000000
03FF80FFC000
03FF83FFF800
03FF8FFFFC00
03FF9FFFFF00
03FFBFFFFF80
03FFFFFFFF80
03FFFE0FFFC0
03FFF807FFC0
03FFF003FFE0
03FFE001FFE0
03FFE001FFE0
03FFC001FFF0
03FFC000FFF0
03FFC000FFF0
03FF8000FFF0
03FF8000FFF0
03FF8000FFF0
03FF8000FFF0
03FF8000FFF0
03FF8000FFF0
03FF8000FFE0
03FF8000FFE0
03FF8000FFE0
03FF8000FFE0
03FF8000FFC0
03FF8001FFC0
03FF8001FF80
03FF8003FF80
03FF8003FF00
03FF8007FE00
03FFC00FFC00
03FFF03FF800
03FFFFFFF000
03FFFFFFE000
03FFFFFF8000
03FFFFFC0000
03FF8F800000
03FF80000000
03FF80000000
03FF80000000
03FF80000000
03FF80000000
03FF80000000
03FF80000000
03FF80000000
03FF80000000
03FFC0000000
07FFC0000000
07FFE0000000
0FFFF8000000
7FFFFF800000
FFFFFF800000
FFFFFF800000
FFFFFF800000
FFFFFF800000
ENDCHAR
STARTCHAR 00FF
ENCODING 255
SWIDTH 552 0
DWIDTH 43 0
BBX 42 70 1 -19
BITMAP
000FC007F000
001FF00FF800
003FF01FFC00
007FF81FFC00
007FF81FFE00
007FF81FFE00
007FF81FFC00
003FF81FFC00
003FF00FFC00
001FE007F800
00030000C000
000000000000
000000000000
000000000000
000000000000
FFFFFC3FFFC0
FFFFFC3FFFC0
FFFFFC3FFF80
FFFFFC1FFF80
FFFFFC1FFF80
3FFFE007FE00
0FFFC003FC00
0FFFC001F800
07FFC001F800
03FFC001F000
03FFC003F000
01FFE003E000
01FFE003E000
00FFF007C000
00FFF007C000
007FF80FC000
007FF80F8000
007FFC0F8000
003FFC1F0000
003FFC1F0000
001FFE3F0000
001FFE3E0000
000FFF3E0000
000FFF7C0000
0007FF7C0000
0007FFF80000
0003FFF80000
0003FFF80000
0001FFF00000
0001FFF00000
0001FFE00000
0000FFE00000
0000FFC00000
00007FC00000
00007FC00000
00003F800000
00003F800000
00001F000000
00001F000000
00003F000000
00003E000000
00007E000000
00007C000000
0000FC000000
0001F8000000
3007F8000000
3FFFF0000000
3FFFF0000000
3FFFE0000000
3FFFE0000000
3FFFC0000000
3FFF80000000
3FFF00000000
1FFE00000000
07FC00000000
ENDCHAR
STARTCHAR 0100
ENCODING 256
SWIDTH 707 0
DWIDTH 55 0
BBX 53 64 1 0
BITMAP
000FFFFFFF8000
001FFFFFFF0000
001FFFFFFF0000
001FFFFFFF0000
001FFFFFFF0000
00000000000000
00000000000000
00000000000000
00000000000000
00000000000000
00000000000000
000001F0000000
000001F8000000
000001F8000000
000003FC000000
000003FC000000
000007FE000000
000007FE000000
000007FE000000
00000FFF000000
00000FFF000000
00001FFF800000
00001FFF800000
00001FFFC00000
00003FFFC00000
00003DFFE00000
00007DFFE00000
00007DFFE00000
000078FFF00000
0000F8FFF00000
0000F8FFF80000
0001F07FF80000
0001F07FFC0000
0001E03FFC0000
0003E03FFE0000
0003E03FFE0000
0007C01FFE0000
0007C01FFF0000
000FC00FFF0000
000F800FFF8000
000F8007FF8000
001F0007FFC000
001F0007FFC000
003F0003FFE000
003E0003FFE000
003FFFFFFFE000
007FFFFFFFF000
007FFFFFFFF000
00FFFFFFFFF800
00FF0000FFF800
00F800007FFC00
01F000007FFC00
01F000003FFE00
03F000003FFE00
03E000001FFF00
07E000001FFF00
07E000001FFF80
0FF000001FFF80
1FF000001FFFC0
7FFE0000FFFFF0
7FFE0001FFFFF8
FFFE0001FFFFF8
FFFE0001FFFFF8
FFFF0001FFFFF8
ENDCHAR
STARTCHAR 0101
ENCODING 257
SWIDTH 540 0
DWIDTH 42 0
BBX 37 50 5 -1
BITMAP
7FFFFFFC00
7FFFFFF800
7FFFFFF800
FFFFFFF800
0000000000
0000000000
0000000000
0000000000
0000000000
0000000000
0000000000
0000000000
0000000000
0003FF0000
001FFFE000
007FFFF000
00FFFFF800
03FFFFFC00
07E1FFFC00
0FE07FFC00
1FE03FFE00
3FE01FFE00
7FE01FFE00
FFE01FFE00
FFE00FFE00
FFE00FFE00
FFE00FFE00
00001FFE00
00007FFE00
0001FFFE00
000FFFFE00
003FEFFE00
00FF8FFE00
03FE0FFE00
1FFC0FFE00
3FF00FFE00
7FE00FFE00
7FE00FFE00
7FE00FFE00
FFE00FFE00
FFE00FFF00
FFF00FFF80
FFF00FFFE0
7FF81FFFF8
7FFFFFFFF8
7FFFFFFFF8
3FFFEFFFF0
1FFF87FFE0
07FF03FF00
002000F000
ENDCHAR
STARTCHAR 0102
ENCODING 258
SWIDTH 707 0
DWIDTH 55 0
BBX 53 68 1 0
BITMAP
0003E0003E0000
0007E0007E0000
0007F0007E0000
0007F800FC0000
0007FE03FC0000
0003FFFFFC0000
0003FFFFF80000
0001FFFFF80000
0000FFFFF00000
00007FFFE00000
00001FFF800000
000003F8000000
00000000000000
00000000000000
00000000000000
000001F0000000
000001F8000000
000001F8000000
000003FC000000
000003FC000000
000007FE000000
000007FE000000
000007FE000000
00000FFF000000
00000FFF000000
00001FFF800000
00001FFF800000
00001FFFC00000
00003FFFC00000
00003DFFE00000
00007DFFE00000
00007DFFE00000
000078FFF00000
0000F8FFF00000
0000F8FFF80000
0001F07FF80000
0001F07FFC0000
0001E03FFC0000
0003E03FFE0000
0003E03FFE0000
0007C01FFE0000
0007C01FFF0000
000FC00FFF0000
000F800FFF8000
000F8007FF8000
001F0007FFC000
001F0007FFC000
003F0003FFE000
003E0003FFE000
003FFFFFFFE000
007FFFFFFFF000
007FFFFFFFF000
00FFFFFFFFF800
00FF0000FFF800
00F800007FFC00
01F000007FFC00
01F000003FFE00
03F000003FFE00
03E000001FFF00
07E000001FFF00
07E000001FFF80
0FF000001FFF80
1FF000001FFFC0
7FFE0000FFFFF0
7FFE0001FFFFF8
FFFE0001FFFFF8
FFFE0001FFFFF8
FFFF0001FFFFF8
ENDCHAR
STARTCHAR 0103
ENCODING 259
SWIDTH 540 0
DWIDTH 42 0
BBX 37 56 5 -1
BITMAP
7C00007C00
FE0000F800
FE0000F800
7F0000F800
7F0001F800
7FC003F800
7FF00FF800
3FFFFFF000
3FFFFFF000
1FFFFFE000
0FFFFFC000
07FFFF8000
03FFFE0000
007FF80000
0000000000
0000000000
0000000000
0000000000
0000000000
0003FF0000
001FFFE000
007FFFF000
00FFFFF800
03FFFFFC00
07E1FFFC00
0FE07FFC00
1FE03FFE00
3FE01FFE00
7FE01FFE00
FFE01FFE00
FFE00FFE00
FFE00FFE00
FFE00FFE00
00001FFE00
00007FFE00
0001FFFE00
000FFFFE00
003FEFFE00
00FF8FFE00
03FE0FFE00
1FFC0FFE00
3FF00FFE00
7FE00FFE00
7FE00FFE00
7FE00FFE00
FFE00FFE00
FFE00FFF00
FFF00FFF80
FFF00FFFE0
7FF81FFFF8
7FFFFFFFF8
7FFFFFFFF8
3FFFEFFFF0
1FFF87FFE0
07FF03FF00
002000F000
ENDCHAR
STARTCHAR 0104
ENCODING 260
SWIDTH 707 0
DWIDTH 55 0
BBX 53 72 1 -19
BITMAP
000001F0000000
000001F8000000
000001F8000000
000003FC000000
000003FC000000
000007FE000000
000007FE000000
000007FE000000
00000FFF000000
00000FFF000000
00001FFF800000
00001FFF800000
00001FFFC00000
00003FFFC00000
00003DFFE00000
00007DFFE00000
00007DFFE00000
000078FFF00000
0000F8FFF00000
0000F8FFF80000
0001F07FF80000
0001F07FFC0000
0001E03FFC0000
0003E03FFE0000
0003E03FFE0000
0007C01FFE0000
0007C01FFF0000
000FC00FFF0000
000F800FFF8000
000F8007FF8000
001F0007FFC000
001F0007FFC000
003F0003FFE000
003E0003FFE000
003FFFFFFFE000
007FFFFFFFF000
007FFFFFFFF000
00FFFFFFFFF800
00FF0000FFF800
00F800007FFC00
01F000007FFC00
01F000003FFE00
03F000003FFE00
03E000001FFF00
07E000001FFF00
07E000001FFF80
0FF000001FFF80
1FF000001FFFC0
7FFE0000FFFFF0
7FFE0001FFFFF8
FFFE0001FFFFF8
FFFE0001FFFFF8
FFFF0001FFFFF8
0000000003F800
000000000FE000
000000001FC000
000000007F8000
00000000FF0000
00000001FE0000
00000001FE0000
00000003FE0000
00000003FE0000
00000003FF0000
00000007FF8000
00000007FFFF00
00000007FFFF00
00000003FFFF00
00000003FFFF00
00000001FFFF00
00000001FFFC00
000000007FE000
000000003F8000
ENDCHAR
STARTCHAR 0105
ENCODING 261
SWIDTH 540 0
DWIDTH 42 0
BBX 37 55 5 -19
BITMAP
0003FF0000
001FFFE000
007FFFF000
00FFFFF800
03FFFFFC00
07E1FFFC00
0FE07FFC00
1FE03FFE00
3FE01FFE00
7FE01FFE00
FFE01FFE00
FFE00FFE00
FFE00FFE00
FFE00FFE00
00001FFE00
00007FFE00
0001FFFE00
000FFFFE00
003FEFFE00
00FF8FFE00
03FE0FFE00
1FFC0FFE00
3FF00FFE00
7FE00FFE00
7FE00FFE00
7FE00FFE00
FFE00FFE00
FFE00FFF00
FFF00FFF80
FFF00FFFE0
7FF81FFFF8
7FFFFFFFF8
7FFFFFFFF8
3FFFEFFFF0
1FFF87FFE0
07FF03FF00
002001F800
000003F000
00000FE000
00001FE000
00003FC000
00007FC000
00007FC000
00007FC000
0000FFC000
0000FFC000
0000FFF000
0000FFFFC0
0000FFFFE0
0000FFFFE0
00007FFFE0
00007FFFE0
00003FFF80
00001FFC00
000007F000
ENDCHAR
STARTCHAR 0106
ENCODING 262
SWIDTH 642 0
DWIDTH 50 0
BBX 44 69 3 -1
BITMAP
0000003FF000
0000003FE000
0000003FE000
0000007FC000
0000007F8000
000000FF0000
000000FE0000
000001FC0000
000001FC0000
000003F80000
000000F00000
000000000000
000000000000
000000000000
000000000000
00001FFFC000
0000FFFFF800
0003FFFFFF00
000FFFFFFFE0
003FFFCFFFE0
007FF800FFE0
00FFE0007FE0
01FFC0003FE0
03FF80001FE0
07FF00001FE0
0FFE00000FE0
0FFE00000FC0
1FFC00000FC0
3FFC00000FC0
3FF800000FC0
3FF800000FC0
7FF800000F00
7FF800000000
7FF000000000
FFF000000000
FFF000000000
FFF000000000
FFF000000000
FFF000000000
FFF000000000
FFF000000000
FFF000000000
FFF000000000
FFF000000000
FFF000000000
FFF000000000
FFF800000000
FFF800000000
FFF800000000
7FF800000000
7FFC00000000
7FFC00000000
3FFC00000000
3FFE00000000
3FFE00000000
1FFF00000000
1FFF80000000
0FFFC0000000
07FFE0000000
07FFF0000060
03FFF80001F0
01FFFE000FF0
00FFFFF1FFF0
007FFFFFFFE0
001FFFFFFF80
0007FFFFFE00
0003FFFFF800
00007FFFC000
000003F40000
ENDCHAR
STARTCHAR 0107
ENCODING 263
SWIDTH 462 0
DWIDTH 36 0
BBX 31 57 3 -1
BITMAP
000007FC
00001FF8
00001FF0
00003FE0
00003FC0
00003FC0
00007F80
00007F00
0000FE00
0000FE00
0000FC00
0001F800
0001F800
0003F000
00007000
00000000
00000000
00000000
00000000
00000000
000FFF80
007FFFF0
00FFFFFC
03FFFFFE
07FF9FFC
0FFC07FC
1FF803FC
1FF803FC
3FF001FC
3FF001FC
7FF000FC
7FE000FC
7FE000FC
FFE00000
FFE00000
FFE00000
FFE00000
FFE00000
FFE00000
FFE00000
FFE00000
FFE00000
FFE00000
FFF00000
FFF00000
7FF80000
7FF80000
3FFC0000
3FFE0004
1FFF001E
1FFFE0FE
0FFFFFFE
07FFFFFC
01FFFFF8
00FFFFF0
001FFFC0
0001F800
ENDCHAR
STARTCHAR 0108
ENCODING 264
SWIDTH 642 0
DWIDTH 50 0
BBX 44 70 3 -1
BITMAP
000000780000
000001FC0000
000003FE0000
000007FF0000
00001FFFC000
00003FFFE000
0000FFFFF000
0001FFFFF800
0007FE0FFE00
0007F803FF00
0007E001FE00
0003C0007800
000000000000
000000000000
000000000000
000000000000
00001FFFC000
0000FFFFF800
0003FFFFFF00
000FFFFFFFE0
003FFFCFFFE0
007FF800FFE0
00FFE0007FE0
01FFC0003FE0
03FF80001FE0
07FF00001FE0
0FFE00000FE0
0FFE00000FC0
1FFC00000FC0
3FFC00000FC0
3FF800000FC0
3FF800000FC0
7FF800000F00
7FF800000000
7FF000000000
FFF000000000
FFF000000000
FFF000000000
FFF000000000
FFF000000000
FFF000000000
FFF000000000
FFF000000000
FFF000000000
FFF000000000
FFF000000000
FFF000000000
FFF800000000
FFF800000000
FFF800000000
7FF800000000
7FFC00000000
7FFC00000000
3FFC00000000
3FFE00000000
3FFE00000000
1FFF00000000
1FFF80000000
0FFFC0000000
07FFE0000000
07FFF0000060
03FFF80001F0
01FFFE000FF0
00FFFFF1FFF0
007FFFFFFFE0
001FFFFFFF80
0007FFFFFE00
0003FFFFF800
00007FFFC000
000003F40000
ENDCHAR
STARTCHAR 0109
ENCODING 265
SWIDTH 462 0
DWIDTH 36 0
BBX 32 57 3 -1
BITMAP
00003800
0000FC00
0001FE00
0003FE00
0007FF00
000FFF80
001FFFC0
007FFFE0
00FFFFF0
01FF1FF8
03FC0FFC
0FF803FE
0FE001FF
0FC0007F
0700003E
02000000
00000000
00000000
00000000
00000000
000FFF80
007FFFF0
00FFFFFC
03FFFFFE
07FF9FFC
0FFC07FC
1FF803FC
1FF803FC
3FF001FC
3FF001FC
7FF000FC
7FE000FC
7FE000FC
FFE00000
FFE00000
FFE00000
FFE00000
FFE00000
FFE00000
FFE00000
FFE00000
FFE00000
FFE00000
FFF00000
FFF00000
7FF80000
7FF80000
3FFC0000
3FFE0004
1FFF001E
1FFFE0FE
0FFFFFFE
07FFFFFC
01FFFFF8
00FFFFF0
001FFFC0
0001F800
ENDCHAR
STARTCHAR 010A
ENCODING 266
SWIDTH 642 0
DWIDTH 50 0
BBX 44 68 3 -1
BITMAP
000001F80000
000007FE0000
000007FF0000
00000FFF0000
00000FFF8000
00000FFF8000
00000FFF8000
00000FFF0000
00000FFF0000
000007FE0000
000001F80000
000000000000
000000000000
000000000000
00001FFFC000
0000FFFFF800
0003FFFFFF00
000FFFFFFFE0
003FFFCFFFE0
007FF800FFE0
00FFE0007FE0
01FFC0003FE0
03FF80001FE0
07FF00001FE0
0FFE00000FE0
0FFE00000FC0
1FFC00000FC0
3FFC00000FC0
3FF800000FC0
3FF800000FC0
7FF800000F00
7FF800000000
7FF000000000
FFF000000000
FFF000000000
FFF000000000
FFF000000000
FFF000000000
FFF000000000
FFF000000000
FFF000000000
FFF000000000
FFF000000000
FFF000000000
FFF000000000
FFF800000000
FFF800000000
FFF800000000
7FF800000000
7FFC00000000
7FFC00000000
3FFC00000000
3FFE00000000
3FFE00000000
1FFF00000000
1FFF80000000
0FFFC0000000
07FFE0000000
07FFF0000060
03FFF80001F0
01FFFE000FF0
00FFFFF1FFF0
007FFFFFFFE0
001FFFFFFF80
0007FFFFFE00
0003FFFFF800
00007FFFC000
000003F40000
ENDCHAR
STARTCHAR 010B
ENCODING 267
SWIDTH 462 0
DWIDTH 36 0
BBX 31 53 3 -1
BITMAP
0001F000
0007FC00
000FFE00
001FFF00
001FFF00
001FFF00
001FFF00
001FFF00
001FFE00
000FFE00
0007F800
00000000
00000000
00000000
00000000
00000000
000FFF80
007FFFF0
00FFFFFC
03FFFFFE
07FF9FFC
0FFC07FC
1FF803FC
1FF803FC
3FF001FC
3FF001FC
7FF000FC
7FE000FC
7FE000FC
FFE00000
FFE00000
FFE00000
FFE00000
FFE00000
FFE00000
FFE00000
FFE00000
FFE00000
FFE00000
FFF00000
FFF00000
7FF80000
7FF80000
3FFC0000
3FFE0004
1FFF001E
1FFFE0FE
0FFFFFFE
07FFFFFC
01FFFFF8
00FFFFF0
001FFFC0
0001F800
ENDCHAR
STARTCHAR 010C
ENCODING 268
SWIDTH 642 0
DWIDTH 50 0
BBX 44 70 3 -1
BITMAP
0000C0001800
0003F0007C00
0007F801FE00
000FFE07FE00
0003FF9FF800
0001FFFFF000
0000FFFFC000
00003FFF8000
00001FFF0000
00000FFC0000
000007F80000
000003F00000
000000000000
000000000000
000000000000
000000000000
00001FFFC000
0000FFFFF800
0003FFFFFF00
000FFFFFFFE0
003FFFCFFFE0
007FF800FFE0
00FFE0007FE0
01FFC0003FE0
03FF80001FE0
07FF00001FE0
0FFE00000FE0
0FFE00000FC0
1FFC00000FC0
3FFC00000FC0
3FF800000FC0
3FF800000FC0
7FF800000F00
7FF800000000
7FF000000000
FFF000000000
FFF000000000
FFF000000000
FFF000000000
FFF000000000
FFF000000000
FFF000000000
FFF000000000
FFF000000000
FFF000000000
FFF000000000
FFF000000000
FFF800000000
FFF800000000
FFF800000000
7FF800000000
7FFC00000000
7FFC00000000
3FFC00000000
3FFE00000000
3FFE00000000
1FFF00000000
1FFF80000000
0FFFC0000000
07FFE0000000
07FFF0000060
03FFF80001F0
01FFFE000FF0
00FFFFF1FFF0
007FFFFFFFE0
001FFFFFFF80
0007FFFFFE00
0003FFFFF800
00007FFFC000
000003F40000
ENDCHAR
STARTCHAR 010D
ENCODING 269
SWIDTH 462 0
DWIDTH 36 0
BBX 32 56 3 -1
BITMAP
0700001C
0FC0007E
1FE000FF
0FF803FE
07FC07FC
03FF1FF0
01FFFFE0
00FFFFC0
007FFF80
003FFF00
001FFE00
000FFC00
0007F800
0003F000
0003E000
00000000
00000000
00000000
00000000
000FFF80
007FFFF0
00FFFFFC
03FFFFFE
07FF9FFC
0FFC07FC
1FF803FC
1FF803FC
3FF001FC
3FF001FC
7FF000FC
7FE000FC
7FE000FC
FFE00000
FFE00000
FFE00000
FFE00000
FFE00000
FFE00000
FFE00000
FFE00000
FFE00000
FFE00000
FFF00000
FFF00000
7FF80000
7FF80000
3FFC0000
3FFE0004
1FFF001E
1FFFE0FE
0FFFFFFE
07FFFFFC
01FFFFF8
00FFFFF0
001FFFC0
0001F800
ENDCHAR
STARTCHAR 010E
ENCODING 270
SWIDTH 732 0
DWIDTH 57 0
BBX 51 69 3 0
BITMAP
00030000600000
000FC001F00000
001FF003F80000
001FFC0FF80000
000FFF7FF00000
0007FFFFC00000
0001FFFF800000
0000FFFE000000
00007FFC000000
00003FF8000000
00001FE0000000
00000FC0000000
00000000000000
00000000000000
00000000000000
00000000000000
FFFFFFF0000000
FFFFFFFFE00000
FFFFFFFFFC0000
7FFFFFFFFF0000
7FFFFFFFFFC000
0FFFC00FFFE000
07FFC003FFF800
07FFC000FFFC00
03FFC0007FFE00
03FFC0003FFE00
03FFC0001FFF00
03FFC0000FFF00
03FFC0000FFF80
03FFC00007FF80
03FFC00007FFC0
03FFC00003FFC0
03FFC00003FFC0
03FFC00003FFE0
03FFC00001FFE0
03FFC00001FFE0
03FFC00001FFE0
03FFC00001FFE0
03FFC00001FFE0
03FFC00001FFE0
03FFC00001FFE0
03FFC00001FFE0
03FFC00001FFE0
03FFC00001FFE0
03FFC00001FFE0
03FFC00001FFE0
03FFC00001FFE0
03FFC00001FFE0
03FFC00001FFE0
03FFC00001FFE0
03FFC00001FFC0
03FFC00001FFC0
03FFC00003FFC0
03FFC00003FF80
03FFC00003FF80
03FFC00007FF80
03FFC00007FF00
03FFC0000FFE00
03FFC0000FFE00
03FFC0001FFC00
03FFC0003FF800
03FFC0007FF000
07FFE000FFE000
0FFFF007FFC000
7FFFFFFFFF0000
7FFFFFFFFE0000
FFFFFFFFF00000
FFFFFFFF800000
FFFFFFF8000000
ENDCHAR
STARTCHAR 010F
ENCODING 271
SWIDTH 745 0
DWIDTH 58 0
BBX 54 57 3 -1
BITMAP
00000000100070
00000000F803F8
0000003FF83FF8
000007FFFC3FF8
000007FFFC3FFC
000007FFFC7FFC
000007FFFC7FFC
000003FFFC7FFC
0000007FFC7FFC
0000003FFC1FF8
0000003FFC07F8
0000001FFC03F8
0000001FFC03F8
0000001FFC03F0
0000001FFC03F0
0000001FFC07F0
0000001FFC07E0
0000001FFC07C0
0000001FFC0FC0
0000001FFC1F80
0003FFFFFC3F00
001FFFFFFC1E00
007FFFFFFC0000
00FFFFFFFC0000
01FFE1FFFC0000
03FF007FFC0000
07FE003FFC0000
0FFC001FFC0000
1FF8001FFC0000
3FF8001FFC0000
3FF0001FFC0000
7FF0001FFC0000
7FF0001FFC0000
7FF0001FFC0000
FFE0001FFC0000
FFE0001FFC0000
FFE0001FFC0000
FFE0001FFC0000
FFE0001FFC0000
FFE0001FFC0000
FFE0003FFC0000
FFE0003FFC0000
FFE0003FFC0000
FFF0003FFC0000
FFF0003FFC0000
FFF0007FFC0000
FFF8007FFC0000
7FF800FFFC0000
7FFC01FFFE0000
3FFE03FFFFC000
3FFFFFEFFFC000
1FFFFFCFFFC000
0FFFFF8FFFC000
07FFFF0FFFC000
03FFFE0FFC0000
00FFF80F800000
000FC002000000
ENDCHAR
STARTCHAR 0110
ENCODING 272
SWIDTH 732 0
DWIDTH 57 0
BBX 52 53 2 0
BITMAP
7FFFFFF8000000
7FFFFFFFF00000
7FFFFFFFFE0000
3FFFFFFFFF8000
3FFFFFFFFFE000
07FFE007FFF000
03FFE001FFFC00
03FFE0007FFE00
01FFE0003FFF00
01FFE0001FFF00
01FFE0000FFF80
01FFE00007FF80
01FFE00007FFC0
01FFE00003FFC0
01FFE00003FFE0
01FFE00001FFE0
01FFE00001FFE0
01FFE00001FFF0
01FFE00000FFF0
01FFE00000FFF0
01FFE00000FFF0
01FFE00000FFF0
01FFE00000FFF0
01FFE00000FFF0
7FFFFFF800FFF0
7FFFFFF800FFF0
FFFFFFF800FFF0
FFFFFFF800FFF0
FFFFFFF800FFF0
01FFE00000FFF0
01FFE00000FFF0
01FFE00000FFF0
01FFE00000FFF0
01FFE00000FFF0
01FFE00000FFE0
01FFE00000FFE0
01FFE00001FFE0
01FFE00001FFC0
01FFE00001FFC0
01FFE00003FFC0
01FFE00003FF80
01FFE00007FF00
01FFE00007FF00
01FFE0000FFE00
01FFE0001FFC00
01FFE0003FF800
03FFF0007FF000
07FFF803FFE000
3FFFFFFFFF8000
3FFFFFFFFF0000
7FFFFFFFF80000
7FFFFFFFC00000
7FFFFFFC000000
ENDCHAR
STARTCHAR 0111
ENCODING 273
SWIDTH 604 0
DWIDTH 47 0
BBX 42 57 3 -1
BITMAP
000000001000
00000000F800
0000003FF800
000007FFFC00
000007FFFC00
000007FFFC00
000007FFFC00
000001FFFC00
0000007FFC00
0000003FFC00
0000003FFC00
0000001FFC00
00003FFFFFC0
00003FFFFFC0
00007FFFFFC0
00007FFFFF80
0000001FFC00
0000001FFC00
0000001FFC00
0000001FFC00
0003FFFFFC00
001FFFFFFC00
007FFFFFFC00
00FFFFFFFC00
01FFE1FFFC00
07FF007FFC00
07FE003FFC00
0FFC001FFC00
1FF8001FFC00
3FF8001FFC00
3FF0001FFC00
7FF0001FFC00
7FF0001FFC00
7FF0001FFC00
FFE0001FFC00
FFE0001FFC00
FFE0001FFC00
FFE0001FFC00
FFE0001FFC00
FFE0001FFC00
FFE0001FFC00
FFF0001FFC00
FFF0001FFC00
FFF0001FFC00
FFF8001FFC00
FFF8001FFC00
FFFC001FFC00
7FFC001FFC00
7FFE001FFE00
3FFF001FFFC0
3FFFE0FFFFC0
1FFFFFFFFFC0
0FFFFFDFFFC0
07FFFF9FFFC0
03FFFE1FF800
00FFF81E0000
0007C0100000
ENDCHAR
STARTCHAR 0112
ENCODING 274
SWIDTH 617 0
DWIDTH 48 0
BBX 43 64 3 0
BITMAP
03FFFFFFE000
03FFFFFFE000
03FFFFFFE000
03FFFFFFE000
03FFFFFFE000
000000000000
000000000000
000000000000
000000000000
000000000000
000000000000
FFFFFFFFFE00
FFFFFFFFFE00
FFFFFFFFFE00
FFFFFFFFFE00
7FFFFFFFFE00
1FFFC00FFE00
07FFC003FF00
07FFC000FF00
03FFC0007F00
03FFC0007F00
03FFC0003F00
03FFC0003F00
03FFC0003F00
03FFC0001F00
03FFC0001000
03FFC0000000
03FFC0000000
03FFC0000000
03FFC01F8000
03FFC01F8000
03FFC01F8000
03FFC01F8000
03FFC03F8000
03FFC07F8000
03FFFFFF8000
03FFFFFF8000
03FFFFFF8000
03FFFFFF8000
03FFFFFF8000
03FFC0FF8000
03FFC03F8000
03FFC01F8000
03FFC01F8000
03FFC01F8000
03FFC00F8000
03FFC0078000
03FFC0000000
03FFC0000000
03FFC0000300
03FFC00007C0
03FFC00007E0
03FFC0000FE0
03FFC0000FE0
03FFC0001FE0
03FFC0001FC0
03FFC0003FC0
07FFE0007FC0
0FFFF001FFC0
7FFFFFFFFFC0
7FFFFFFFFF80
FFFFFFFFFF80
FFFFFFFFFF80
FFFFFFFFFF80
ENDCHAR
STARTCHAR 0113
ENCODING 275
SWIDTH 501 0
DWIDTH 39 0
BBX 34 50 3 -1
BITMAP
0FFFFFFF00
1FFFFFFF00
1FFFFFFF00
1FFFFFFF00
0000000000
0000000000
0000000000
0000000000
0000000000
0000000000
0000000000
0000000000
0000000000
000FFF0000
007FFFC000
01FFFFF000
03FFFFF800
07FFFFFC00
0FFC0FFE00
1FF807FE00
1FF803FF00
3FF003FF00
7FF001FF80
7FF001FF80
7FE001FF80
FFE001FFC0
FFE001FFC0
FFE001FFC0
FFFFFFFFC0
FFFFFFFFC0
FFFFFFFFC0
FFFFFFFF80
FFFFFFFF00
FFE0000000
FFE0000000
FFF0000000
FFF0000000
FFF0000000
7FF8000000
7FF8000000
3FFC000100
3FFE000380
1FFF000F80
1FFFE07FC0
0FFFFFFF80
07FFFFFF00
03FFFFFE00
00FFFFF800
001FFFE000
0000F80000
ENDCHAR
STARTCHAR 0114
ENCODING 276
SWIDTH 617 0
DWIDTH 48 0
BBX 43 68 3 0
BITMAP
00F8000F8000
01FC000F8000
00FC001F8000
00FE001F8000
00FF807F8000
00FFFFFF0000
007FFFFF0000
007FFFFE0000
003FFFFC0000
000FFFF80000
0007FFE00000
00007E000000
000000000000
000000000000
000000000000
FFFFFFFFFE00
FFFFFFFFFE00
FFFFFFFFFE00
FFFFFFFFFE00
7FFFFFFFFE00
1FFFC00FFE00
07FFC003FF00
07FFC000FF00
03FFC0007F00
03FFC0007F00
03FFC0003F00
03FFC0003F00
03FFC0003F00
03FFC0001F00
03FFC0001000
03FFC0000000
03FFC0000000
03FFC0000000
03FFC01F8000
03FFC01F8000
03FFC01F8000
03FFC01F8000
03FFC03F8000
03FFC07F8000
03FFFFFF8000
03FFFFFF8000
03FFFFFF8000
03FFFFFF8000
03FFFFFF8000
03FFC0FF8000
03FFC03F8000
03FFC01F8000
03FFC01F8000
03FFC01F8000
03FFC00F8000
03FFC0078000
03FFC0000000
03FFC0000000
03FFC0000300
03FFC00007C0
03FFC00007E0
03FFC0000FE0
03FFC0000FE0
03FFC0001FE0
03FFC0001FC0
03FFC0003FC0
07FFE0007FC0
0FFFF001FFC0
7FFFFFFFFFC0
7FFFFFFFFF80
FFFFFFFFFF80
FFFFFFFFFF80
FFFFFFFFFF80
ENDCHAR
STARTCHAR 0115
ENCODING 277
SWIDTH 501 0
DWIDTH 39 0
BBX 34 56 3 -1
BITMAP
0F80001F00
1F80001F00
1FC0001F00
1FC0003F00
1FE0007F00
0FF000FF00
0FFC03FE00
0FFFFFFE00
07FFFFFC00
03FFFFFC00
03FFFFF800
01FFFFF000
007FFFC000
001FFF0000
0000000000
0000000000
0000000000
0000000000
0000000000
000FFF0000
007FFFC000
01FFFFF000
03FFFFF800
07FFFFFC00
0FFC0FFE00
1FF807FE00
1FF803FF00
3FF003FF00
7FF001FF80
7FF001FF80
7FE001FF80
FFE001FFC0
FFE001FFC0
FFE001FFC0
FFFFFFFFC0
FFFFFFFFC0
FFFFFFFFC0
FFFFFFFF80
FFFFFFFF00
FFE0000000
FFE0000000
FFF0000000
FFF0000000
FFF0000000
7FF8000000
7FF8000000
3FFC000100
3FFE000380
1FFF000F80
1FFFE07FC0
0FFFFFFF80
07FFFFFF00
03FFFFFE00
00FFFFF800
001FFFE000
0000F80000
ENDCHAR
STARTCHAR 0116
ENCODING 278
SWIDTH 617 0
DWIDTH 48 0
BBX 43 67 3 0
BITMAP
00007F000000
0000FF800000
0001FFC00000
0003FFE00000
0003FFE00000
0003FFE00000
0003FFE00000
0003FFE00000
0003FFC00000
0001FF800000
00007F000000
000000000000
000000000000
000000000000
FFFFFFFFFE00
FFFFFFFFFE00
FFFFFFFFFE00
FFFFFFFFFE00
7FFFFFFFFE00
1FFFC00FFE00
07FFC003FF00
07FFC000FF00
03FFC0007F00
03FFC0007F00
03FFC0003F00
03FFC0003F00
03FFC0003F00
03FFC0001F00
03FFC0001000
03FFC0000000
03FFC0000000
03FFC0000000
03FFC01F8000
03FFC01F8000
03FFC01F8000
03FFC01F8000
03FFC03F8000
03FFC07F8000
03FFFFFF8000
03FFFFFF8000
03FFFFFF8000
03FFFFFF8000
03FFFFFF8000
03FFC0FF8000
03FFC03F8000
03FFC01F8000
03FFC01F8000
03FFC01F8000
03FFC00F8000
03FFC0078000
03FFC0000000
03FFC0000000
03FFC0000300
03FFC00007C0
03FFC00007E0
03FFC0000FE0
03FFC0000FE0
03FFC0001FE0
03FFC0001FC0
03FFC0003FC0
07FFE0007FC0
0FFFF001FFC0
7FFFFFFFFFC0
7FFFFFFFFF80
FFFFFFFFFF80
FFFFFFFFFF80
FFFFFFFFFF80
ENDCHAR
STARTCHAR 0117
ENCODING 279
SWIDTH 501 0
DWIDTH 39 0
BBX 34 53 3 -1
BITMAP
0001F00000
0007FC0000
000FFE0000
001FFF0000
001FFF0000
001FFF0000
001FFF0000
001FFF0000
000FFE0000
000FFE0000
0003F80000
0000000000
0000000000
0000000000
0000000000
0000000000
000FFF0000
007FFFC000
01FFFFF000
03FFFFF800
07FFFFFC00
0FFC0FFE00
1FF807FE00
1FF803FF00
3FF003FF00
7FF001FF80
7FF001FF80
7FE001FF80
FFE001FFC0
FFE001FFC0
FFE001FFC0
FFFFFFFFC0
FFFFFFFFC0
FFFFFFFFC0
FFFFFFFF80
FFFFFFFF00
FFE0000000
FFE0000000
FFF0000000
FFF0000000
FFF0000000
7FF8000000
7FF8000000
3FFC000100
3FFE000380
1FFF000F80
1FFFE07FC0
0FFFFFFF80
07FFFFFF00
03FFFFFE00
00FFFFF800
001FFFE000
0000F80000
ENDCHAR
STARTCHAR 0118
ENCODING 280
SWIDTH 617 0
DWIDTH 48 0
BBX 43 72 3 -19
BITMAP
FFFFFFFFFE00
FFFFFFFFFE00
FFFFFFFFFE00
FFFFFFFFFE00
7FFFFFFFFE00
1FFFC00FFE00
07FFC003FF00
07FFC000FF00
03FFC0007F00
03FFC0007F00
03FFC0003F00
03FFC0003F00
03FFC0003F00
03FFC0001F00
03FFC0001000
03FFC0000000
03FFC0000000
03FFC0000000
03FFC01F8000
03FFC01F8000
03FFC01F8000
03FFC01F8000
03FFC03F8000
03FFC07F8000
03FFFFFF8000
03FFFFFF8000
03FFFFFF8000
03FFFFFF8000
03FFFFFF8000
03FFC0FF8000
03FFC03F8000
03FFC01F8000
03FFC01F8000
03FFC01F8000
03FFC00F8000
03FFC0078000
03FFC0000000
03FFC0000000
03FFC0000300
03FFC00007C0
03FFC00007E0
03FFC0000FE0
03FFC0000FE0
03FFC0001FE0
03FFC0001FC0
03FFC0003FC0
07FFE0007FC0
0FFFF001FFC0
7FFFFFFFFFC0
7FFFFFFFFF80
FFFFFFFFFF80
FFFFFFFFFF80
FFFFFFFFFF80
00000007F000
0000001FC000
0000007F0000
000000FE0000
000001FC0000
000003FC0000
000007F80000
00000FF80000
00000FF80000
00000FFC0000
00000FFE0000
00000FFFFC00
00000FFFFC00
00000FFFFC00
00000FFFFE00
000007FFFE00
000003FFF000
000001FFC000
0000007F0000
ENDCHAR
STARTCHAR 0119
ENCODING 281
SWIDTH 501 0
DWIDTH 39 0
BBX 34 55 3 -19
BITMAP
000FFF0000
007FFFC000
01FFFFF000
03FFFFF800
07FFFFFC00
0FFC0FFE00
1FF807FE00
1FF803FF00
3FF003FF00
7FF001FF80
7FF001FF80
7FE001FF80
FFE001FFC0
FFE001FFC0
FFE001FFC0
FFFFFFFFC0
FFFFFFFFC0
FFFFFFFFC0
FFFFFFFF80
FFFFFFFF00
FFE0000000
FFE0000000
FFF0000000
FFF0000000
FFF0000000
7FF8000000
7FF8000000
3FFC000100
3FFE000380
1FFF000F80
1FFFE07FC0
0FFFFFFF80
07FFFFFF00
03FFFFFE00
00FFFFF800
001FFFF000
0000FFE000
00001FC000
00003F8000
00007F0000
0000FF0000
0001FF0000
0001FE0000
0003FE0000
0003FF0000
0003FF0000
0003FF8000
0003FFFF00
0003FFFF00
0003FFFF80
0001FFFF80
0001FFFF80
0000FFFC00
00007FF000
00001FC000
ENDCHAR
STARTCHAR 011A
ENCODING 282
SWIDTH 617 0
DWIDTH 48 0
BBX 43 69 3 0
BITMAP
003000060000
00FC000F0000
01FF003F8000
01FFC0FF8000
00FFF3FF0000
007FFFFC0000
001FFFF80000
000FFFE00000
0007FFC00000
0003FF800000
0001FE000000
0000FC000000
000000000000
000000000000
000000000000
000000000000
FFFFFFFFFE00
FFFFFFFFFE00
FFFFFFFFFE00
FFFFFFFFFE00
7FFFFFFFFE00
1FFFC00FFE00
07FFC003FF00
07FFC000FF00
03FFC0007F00
03FFC0007F00
03FFC0003F00
03FFC0003F00
03FFC0003F00
03FFC0001F00
03FFC0001000
03FFC0000000
03FFC0000000
03FFC0000000
03FFC01F8000
03FFC01F8000
03FFC01F8000
03FFC01F8000
03FFC03F8000
03FFC07F8000
03FFFFFF8000
03FFFFFF8000
03FFFFFF8000
03FFFFFF8000
03FFFFFF8000
03FFC0FF8000
03FFC03F8000
03FFC01F8000
03FFC01F8000
03FFC01F8000
03FFC00F8000
03FFC0078000
03FFC0000000
03FFC0000000
03FFC0000300
03FFC00007C0
03FFC00007E0
03FFC0000FE0
03FFC0000FE0
03FFC0001FE0
03FFC0001FC0
03FFC0003FC0
07FFE0007FC0
0FFFF001FFC0
7FFFFFFFFFC0
7FFFFFFFFF80
FFFFFFFFFF80
FFFFFFFFFF80
FFFFFFFFFF80
ENDCHAR
STARTCHAR 011B
ENCODING 283
SWIDTH 501 0
DWIDTH 39 0
BBX 34 56 3 -1
BITMAP
0700001C00
0FC0003E00
0FE000FF00
0FF803FE00
07FE07FC00
03FF1FF800
01FFFFE000
00FFFFC000
007FFF8000
003FFF0000
001FFE0000
000FFC0000
0007F80000
0003F00000
0003C00000
0000000000
0000000000
0000000000
0000000000
000FFF0000
007FFFC000
01FFFFF000
03FFFFF800
07FFFFFC00
0FFC0FFE00
1FF807FE00
1FF803FF00
3FF003FF00
7FF001FF80
7FF001FF80
7FE001FF80
FFE001FFC0
FFE001FFC0
FFE001FFC0
FFFFFFFFC0
FFFFFFFFC0
FFFFFFFFC0
FFFFFFFF80
FFFFFFFF00
FFE0000000
FFE0000000
FFF0000000
FFF0000000
FFF0000000
7FF8000000
7FF8000000
3FFC000100
3FFE000380
1FFF000F80
1FFFE07FC0
0FFFFFFF80
07FFFFFF00
03FFFFFE00
00FFFFF800
001FFFE000
0000F80000
ENDCHAR
STARTCHAR 011C
ENCODING 284
SWIDTH 707 0
DWIDTH 55 0
BBX 49 70 3 -1
BITMAP
0000007C000000
000000FE000000
000003FF000000
000007FF800000
00000FFFC00000
00003FFFE00000
00007FFFF80000
0000FFFFFC0000
0003FF0FFE0000
0007FC03FF0000
0003F000FE0000
0001C0003C0000
00000000000000
00000000000000
00000000000000
00000000000000
00000FFFE00000
0000FFFFFF0000
0003FFFFFFE000
000FFFFFFFF800
003FFFC7FFF800
007FFC007FF800
00FFF0001FF800
01FFC0000FF800
03FF800007F800
07FF000007F800
0FFF000003F800
1FFE000003F800
1FFC000003F800
3FFC000003F800
3FFC000001F800
3FF8000001F800
7FF80000000000
7FF80000000000
7FF00000000000
FFF00000000000
FFF00000000000
FFF00000000000
FFF00000000000
FFF00000000000
FFF00000000000
FFF00000000000
FFF00000000000
FFF00007F01F80
FFF00007FFFF80
FFF00007FFFF80
FFF00007FFFF80
FFF00007FFFF80
FFF80000FFFE00
FFF800003FFC00
7FF800001FFC00
7FF800001FF800
7FFC00001FF800
3FFC00001FF800
3FFC00001FF800
3FFE00001FF800
1FFE00001FF800
1FFF00001FF800
0FFF80001FF800
07FF80001FF800
07FFC0001FFC00
03FFE0001FFC00
01FFF0001FFC00
00FFFC007FFC00
007FFFE3FFF800
001FFFFFFFF000
000FFFFFFFC000
0001FFFFFE0000
00007FFFF00000
000000F8000000
ENDCHAR
STARTCHAR 011D
ENCODING 285
SWIDTH 540 0
DWIDTH 42 0
BBX 39 75 2 -19
BITMAP
0000180000
0000FC0000
0001FE0000
0003FF0000
0007FF8000
000FFF8000
001FFFC000
003FFFE000
00FFFFF000
01FF1FF800
03FE07FC00
07F803FE00
0FE000FF80
0FC0007F00
0700001E00
0200000800
0000000000
0000000000
0000000000
0000000000
001FFFFFFC
00FFFFFFFC
03FFFFFFFC
07FFFFFFFC
0FFE0FFFFE
1FFC07FF1E
1FF803FF80
3FF801FF80
3FF801FFC0
3FF801FFC0
3FF000FFC0
7FF000FFE0
7FF000FFE0
7FF800FFE0
3FF800FFE0
3FF800FFC0
3FF801FFC0
3FFC01FFC0
1FFC01FF80
1FFE03FF00
0FFFFFFF00
07FFFFFC00
01FFFFF800
03FFFFE000
07FFFF0000
07F0000000
0FE0000000
1FE0000000
1FE0000000
1FFC000000
1FFFFFFC00
1FFFFFFF80
1FFFFFFFE0
1FFFFFFFF0
1FFFFFFFF8
0FFFFFFFF8
0FFFFFFFFC
03FFFFFFFC
07FFFFFFFC
1FEFFFFFFC
3FC0007FFC
7FC0001FFC
7F80000FF8
7F80000FF8
FF80000FF8
FFC0000FF0
FFC0001FF0
FFC0003FE0
7FE0007FC0
7FF801FF80
7FFFFFFF00
3FFFFFFC00
1FFFFFF800
07FFFFC000
01FFFE0000
ENDCHAR
STARTCHAR 011E
ENCODING 286
SWIDTH 707 0
DWIDTH 55 0
BBX 49 69 3 -1
BITMAP
0001F0003E0000
0003F0003F0000
0003F8003E0000
0003FC007E0000
0003FF01FE0000
0001FFFFFE0000
0001FFFFFC0000
0000FFFFFC0000
00007FFFF80000
00003FFFE00000
00000FFFC00000
000000FC000000
00000000000000
00000000000000
00000000000000
00000FFFE00000
0000FFFFFF0000
0003FFFFFFE000
000FFFFFFFF800
003FFFC7FFF800
007FFC007FF800
00FFF0001FF800
01FFC0000FF800
03FF800007F800
07FF000007F800
0FFF000003F800
1FFE000003F800
1FFC000003F800
3FFC000003F800
3FFC000001F800
3FF8000001F800
7FF80000000000
7FF80000000000
7FF00000000000
FFF00000000000
FFF00000000000
FFF00000000000
FFF00000000000
FFF00000000000
FFF00000000000
FFF00000000000
FFF00000000000
FFF00007F01F80
FFF00007FFFF80
FFF00007FFFF80
FFF00007FFFF80
FFF00007FFFF80
FFF80000FFFE00
FFF800003FFC00
7FF800001FFC00
7FF800001FF800
7FFC00001FF800
3FFC00001FF800
3FFC00001FF800
3FFE00001FF800
1FFE00001FF800
1FFF00001FF800
0FFF80001FF800
07FF80001FF800
07FFC0001FFC00
03FFE0001FFC00
01FFF0001FFC00
00FFFC007FFC00
007FFFE3FFF800
001FFFFFFFF000
000FFFFFFFC000
0001FFFFFE0000
00007FFFF00000
000000F8000000
ENDCHAR
STARTCHAR 011F
ENCODING 287
SWIDTH 540 0
DWIDTH 42 0
BBX 39 74 2 -19
BITMAP
0F80001F00
1F80001F00
1FC0001F00
1FC0003F00
1FE0003F00
0FF000FF00
0FFE03FE00
0FFFFFFE00
07FFFFFC00
03FFFFFC00
03FFFFF800
01FFFFF000
007FFFC000
001FFF0000
0000000000
0000000000
0000000000
0000000000
0000000000
001FFFFFFC
00FFFFFFFC
03FFFFFFFC
07FFFFFFFC
0FFE0FFFFE
1FFC07FF1E
1FF803FF80
3FF801FF80
3FF801FFC0
3FF801FFC0
3FF000FFC0
7FF000FFE0
7FF000FFE0
7FF800FFE0
3FF800FFE0
3FF800FFC0
3FF801FFC0
3FFC01FFC0
1FFC01FF80
1FFE03FF00
0FFFFFFF00
07FFFFFC00
01FFFFF800
03FFFFE000
07FFFF0000
07F0000000
0FE0000000
1FE0000000
1FE0000000
1FFC000000
1FFFFFFC00
1FFFFFFF80
1FFFFFFFE0
1FFFFFFFF0
1FFFFFFFF8
0FFFFFFFF8
0FFFFFFFFC
03FFFFFFFC
07FFFFFFFC
1FEFFFFFFC
3FC0007FFC
7FC0001FFC
7F80000FF8
7F80000FF8
FF80000FF8
FFC0000FF0
FFC0001FF0
FFC0003FE0
7FE0007FC0
7FF801FF80
7FFFFFFF00
3FFFFFFC00
1FFFFFF800
07FFFFC000
01FFFE0000
ENDCHAR
STARTCHAR 0120
ENCODING 288
SWIDTH 707 0
DWIDTH 55 0
BBX 49 68 3 -1
BITMAP
000000FC000000
000003FF000000
000007FF800000
00000FFF800000
00000FFF800000
00000FFF800000
00000FFF800000
00000FFF800000
000007FF000000
000003FF000000
000001FC000000
00000000000000
00000000000000
00000000000000
00000FFFE00000
0000FFFFFF0000
0003FFFFFFE000
000FFFFFFFF800
003FFFC7FFF800
007FFC007FF800
00FFF0001FF800
01FFC0000FF800
03FF800007F800
07FF000007F800
0FFF000003F800
1FFE000003F800
1FFC000003F800
3FFC000003F800
3FFC000001F800
3FF8000001F800
7FF80000000000
7FF80000000000
7FF00000000000
FFF00000000000
FFF00000000000
FFF00000000000
FFF00000000000
FFF00000000000
FFF00000000000
FFF00000000000
FFF00000000000
FFF00007F01F80
FFF00007FFFF80
FFF00007FFFF80
FFF00007FFFF80
FFF00007FFFF80
FFF80000FFFE00
FFF800003FFC00
7FF800001FFC00
7FF800001FF800
7FFC00001FF800
3FFC00001FF800
3FFC00001FF800
3FFE00001FF800
1FFE00001FF800
1FFF00001FF800
0FFF80001FF800
07FF80001FF800
07FFC0001FFC00
03FFE0001FFC00
01FFF0001FFC00
00FFFC007FFC00
007FFFE3FFF800
001FFFFFFFF000
000FFFFFFFC000
0001FFFFFE0000
00007FFFF00000
000000F8000000
ENDCHAR
STARTCHAR 0121
ENCODING 289
SWIDTH 540 0
DWIDTH 42 0
BBX 39 71 2 -19
BITMAP
0001F00000
0007FC0000
000FFE0000
000FFF0000
001FFF0000
001FFF0000
001FFF0000
001FFF0000
000FFF0000
000FFE0000
0003F80000
0000000000
0000000000
0000000000
0000000000
0000000000
001FFFFFFC
00FFFFFFFC
03FFFFFFFC
07FFFFFFFC
0FFE0FFFFE
1FFC07FF1E
1FF803FF80
3FF801FF80
3FF801FFC0
3FF801FFC0
3FF000FFC0
7FF000FFE0
7FF000FFE0
7FF800FFE0
3FF800FFE0
3FF800FFC0
3FF801FFC0
3FFC01FFC0
1FFC01FF80
1FFE03FF00
0FFFFFFF00
07FFFFFC00
01FFFFF800
03FFFFE000
07FFFF0000
07F0000000
0FE0000000
1FE0000000
1FE0000000
1FFC000000
1FFFFFFC00
1FFFFFFF80
1FFFFFFFE0
1FFFFFFFF0
1FFFFFFFF8
0FFFFFFFF8
0FFFFFFFFC
03FFFFFFFC
07FFFFFFFC
1FEFFFFFFC
3FC0007FFC
7FC0001FFC
7F80000FF8
7F80000FF8
FF80000FF8
FFC0000FF0
FFC0001FF0
FFC0003FE0
7FE0007FC0
7FF801FF80
7FFFFFFF00
3FFFFFFC00
1FFFFFF800
07FFFFC000
01FFFE0000
ENDCHAR
STARTCHAR 0122
ENCODING 290
SWIDTH 707 0
DWIDTH 55 0
BBX 49 76 3 -23
BITMAP
00000FFFE00000
0000FFFFFF0000
0003FFFFFFE000
000FFFFFFFF800
003FFFC7FFF800
007FFC007FF800
00FFF0001FF800
01FFC0000FF800
03FF800007F800
07FF000007F800
0FFF000003F800
1FFE000003F800
1FFC000003F800
3FFC000003F800
3FFC000001F800
3FF8000001F800
7FF80000000000
7FF80000000000
7FF00000000000
FFF00000000000
FFF00000000000
FFF00000000000
FFF00000000000
FFF00000000000
FFF00000000000
FFF00000000000
FFF00000000000
FFF00007F01F80
FFF00007FFFF80
FFF00007FFFF80
FFF00007FFFF80
FFF00007FFFF80
FFF80000FFFE00
FFF800003FFC00
7FF800001FFC00
7FF800001FF800
7FFC00001FF800
3FFC00001FF800
3FFC00001FF800
3FFE00001FF800
1FFE00001FF800
1FFF00001FF800
0FFF80001FF800
07FF80001FF800
07FFC0001FFC00
03FFE0001FFC00
01FFF0001FFC00
00FFFC007FFC00
007FFFE3FFF800
001FFFFFFFF000
000FFFFFFFC000
0001FFFFFE0000
00007FFFF00000
000000F8000000
00000000000000
00000000000000
00000004000000
0000003E000000
000007FF000000
000007FF000000
000007FF800000
00000FFF800000
00000FFF800000
00000FFF800000
00000FFF800000
000001FF000000
000000FF000000
000000FF000000
000000FE000000
000000FE000000
000001FC000000
000001F8000000
000003F0000000
000007F0000000
00000FC0000000
00000780000000
ENDCHAR
STARTCHAR 0123
ENCODING 291
SWIDTH 540 0
DWIDTH 42 0
BBX 39 75 2 -19
BITMAP
00007C0000
0000FE0000
0001FC0000
0003F80000
0007F00000
0007F00000
000FF00000
000FF00000
000FFE0000
001FFF0000
001FFF0000
001FFF0000
001FFE0000
001FFE0000
000FFE0000
000FC00000
0002000000
0000000000
0000000000
0000000000
001FFFFFFC
00FFFFFFFC
03FFFFFFFC
07FFFFFFFC
0FFE0FFFFE
1FFC07FF1E
1FF803FF80
3FF801FF80
3FF801FFC0
3FF801FFC0
3FF000FFC0
7FF000FFE0
7FF000FFE0
7FF800FFE0
3FF800FFE0
3FF800FFC0
3FF801FFC0
3FFC01FFC0
1FFC01FF80
1FFE03FF00
0FFFFFFF00
07FFFFFC00
01FFFFF800
03FFFFE000
07FFFF0000
07F0000000
0FE0000000
1FE0000000
1FE0000000
1FFC000000
1FFFFFFC00
1FFFFFFF80
1FFFFFFFE0
1FFFFFFFF0
1FFFFFFFF8
0FFFFFFFF8
0FFFFFFFFC
03FFFFFFFC
07FFFFFFFC
1FEFFFFFFC
3FC0007FFC
7FC0001FFC
7F80000FF8
7F80000FF8
FF80000FF8
FFC0000FF0
FFC0001FF0
FFC0003FE0
7FE0007FC0
7FF801FF80
7FFFFFFF00
3FFFFFFC00
1FFFFFF800
07FFFFC000
01FFFE0000
ENDCHAR
STARTCHAR 0124
ENCODING 292
SWIDTH 771 0
DWIDTH 60 0
BBX 54 69 3 0
BITMAP
0000003C000000
000000FE000000
000001FF000000
000003FFC00000
00000FFFE00000
00001FFFF00000
00003FFFF80000
0000FFDFFC0000
0001FF07FF0000
0003FC01FF8000
0003F8007F0000
0001E0003C0000
00000000000000
00000000000000
00000000000000
00000000000000
FFFFFE01FFFFFC
FFFFFE01FFFFFC
FFFFFE01FFFFFC
7FFFFE01FFFFFC
7FFFFE00FFFFFC
0FFFF0003FFFE0
07FFE0000FFFC0
07FFC0000FFF80
03FFC00007FF80
03FFC00007FF80
03FFC00007FF80
03FFC00007FF00
03FFC00007FF00
03FFC00007FF00
03FFC00007FF00
03FFC00007FF00
03FFC00007FF00
03FFC00007FF00
03FFC00007FF00
03FFC00007FF00
03FFC00007FF00
03FFC00007FF00
03FFC00007FF00
03FFC00007FF00
03FFFFFFFFFF00
03FFFFFFFFFF00
03FFFFFFFFFF00
03FFFFFFFFFF00
03FFFFC007FF00
03FFC00007FF00
03FFC00007FF00
03FFC00007FF00
03FFC00007FF00
03FFC00007FF00
03FFC00007FF00
03FFC00007FF00
03FFC00007FF00
03FFC00007FF00
03FFC00007FF00
03FFC00007FF00
03FFC00007FF00
03FFC00007FF00
03FFC00007FF80
03FFC00007FF80
03FFC00007FF80
03FFC0000FFF80
07FFE0000FFF80
0FFFE0001FFFC0
7FFFFE00FFFFFC
7FFFFE01FFFFFC
FFFFFE01FFFFFC
FFFFFE01FFFFFC
FFFFFE01FFFFFC
ENDCHAR
STARTCHAR 0125
ENCODING 293
SWIDTH 642 0
DWIDTH 50 0
BBX 46 69 2 0
BITMAP
00000F800000
00003FC00000
00007FE00000
0000FFF00000
0001FFF80000
0007FFFC0000
000FFFFE0000
003FFFFF8000
007FE1FFC000
00FF807FE000
007E001FC000
0038000F0000
000000000000
000200000000
001F00000000
07FF80000000
7FFF80000000
FFFF80000000
FFFF80000000
FFFF80000000
3FFF80000000
07FF80000000
07FF80000000
03FF80000000
03FF80000000
03FF80000000
03FF80000000
03FF80000000
03FF80000000
03FF80000000
03FF80000000
03FF80000000
03FF80000000
03FF803F8000
03FF81FFF000
03FF87FFFC00
03FF9FFFFE00
03FFBFFFFE00
03FFFFFFFF00
03FFFFFFFF00
03FFF81FFF80
03FF8007FF80
03FF8007FF80
03FF8003FF80
03FF8003FFC0
03FF8003FFC0
03FF8003FFC0
03FF8001FFC0
03FF8001FFC0
03FF8001FFC0
03FF8001FFC0
03FF8001FFC0
03FF8001FFC0
03FF8001FFC0
03FF8001FFC0
03FF8001FFC0
03FF8001FFC0
03FF8001FFC0
03FF8001FFC0
03FF8003FFC0
03FF8003FFC0
03FF8003FFC0
07FFC003FFC0
0FFFC007FFE0
7FFFF83FFFFC
FFFFFC3FFFFC
FFFFFC3FFFFC
FFFFFC7FFFFC
FFFFFC7FFFFC
ENDCHAR
STARTCHAR 0126
ENCODING 294
SWIDTH 771 0
DWIDTH 60 0
BBX 54 53 3 0
BITMAP
FFFFFE01FFFFFC
FFFFFE01FFFFFC
FFFFFE01FFFFFC
7FFFFE01FFFFFC
7FFFFE00FFFFFC
0FFFF0003FFFE0
07FFE0000FFFC0
07FFC0000FFF80
03FFC00007FF80
03FFC00007FF80
03FFC00007FF80
03FFC00007FF00
03FFC00007FF00
3FFFFFFFFFFFFC
7FFFFFFFFFFFFC
7FFFFFFFFFFFFC
7FFFFFFFFFFFF8
7FFFFFFFFFFFF8
03FFC00007FF00
03FFC00007FF00
03FFC00007FF00
03FFC00007FF00
03FFC00007FF00
03FFC00007FF00
03FFFFFFFFFF00
03FFFFFFFFFF00
03FFFFFFFFFF00
03FFFFFFFFFF00
03FFFFC007FF00
03FFC00007FF00
03FFC00007FF00
03FFC00007FF00
03FFC00007FF00
03FFC00007FF00
03FFC00007FF00
03FFC00007FF00
03FFC00007FF00
03FFC00007FF00
03FFC00007FF00
03FFC00007FF00
03FFC00007FF00
03FFC00007FF00
03FFC00007FF80
03FFC00007FF80
03FFC00007FF80
03FFC0000FFF80
07FFE0000FFF80
0FFFE0001FFFC0
7FFFFE00FFFFFC
7FFFFE01FFFFFC
FFFFFE01FFFFFC
FFFFFE01FFFFFC
FFFFFE01FFFFFC
ENDCHAR
STARTCHAR 0127
ENCODING 295
SWIDTH 642 0
DWIDTH 50 0
BBX 48 56 0 0
BITMAP
000080000000
0007C0000000
01FFE0000000
1FFFE0000000
3FFFE0000000
3FFFE0000000
3FFFE0000000
0FFFE0000000
01FFE0000000
01FFE0000000
00FFE0000000
00FFE0000000
00FFE0000000
7FFFFFE00000
7FFFFFC00000
7FFFFFC00000
FFFFFFC00000
FFFFFFC00000
00FFE0000000
00FFE0000000
00FFE00FE000
00FFE07FFC00
00FFE1FFFF00
00FFE7FFFF80
00FFEFFFFF80
00FFFFFFFFC0
00FFFFFFFFC0
00FFFE07FFE0
00FFE001FFE0
00FFE001FFE0
00FFE000FFE0
00FFE000FFF0
00FFE000FFF0
00FFE000FFF0
00FFE0007FF0
00FFE0007FF0
00FFE0007FF0
00FFE0007FF0
00FFE0007FF0
00FFE0007FF0
00FFE0007FF0
00FFE0007FF0
00FFE0007FF0
00FFE0007FF0
00FFE0007FF0
00FFE0007FF0
00FFE000FFF0
00FFE000FFF0
00FFE000FFF0
01FFF000FFF0
03FFF001FFF8
1FFFFE0FFFFF
3FFFFF0FFFFF
3FFFFF0FFFFF
3FFFFF1FFFFF
3FFFFF1FFFFF
ENDCHAR
STARTCHAR 0128
ENCODING 296
SWIDTH 372 0
DWIDTH 29 0
BBX 25 67 2 0
BITMAP
03F00200
0FFC0700
1FFF1F80
3FFFFF80
7FFFFF80
7FFFFF00
FFFFFF00
FE7FFE00
701FFC00
6007F800
00000000
00000000
00000000
00000000
7FFFFF00
7FFFFF00
7FFFFF00
3FFFFF00
3FFFFF00
07FFF800
03FFF000
03FFE000
01FFE000
01FFE000
01FFE000
01FFE000
01FFE000
01FFE000
01FFE000
01FFE000
01FFE000
01FFE000
01FFE000
01FFE000
01FFE000
01FFE000
01FFE000
01FFE000
01FFE000
01FFE000
01FFE000
01FFE000
01FFE000
01FFE000
01FFE000
01FFE000
01FFE000
01FFE000
01FFE000
01FFE000
01FFE000
01FFE000
01FFE000
01FFE000
01FFE000
01FFE000
01FFE000
01FFE000
01FFE000
01FFE000
03FFF000
07FFF000
3FFFFF00
3FFFFF00
7FFFFF00
7FFFFF00
7FFFFF00
ENDCHAR
STARTCHAR 0129
ENCODING 297
SWIDTH 347 0
DWIDTH 27 0
BBX 27 52 0 0
BITMAP
01F80000
07FE01C0
0FFF07E0
1FFFFFE0
3FFFFFC0
7FFFFFC0
7FFFFF80
FFFFFF80
FE3FFF00
F80FFE00
6003FC00
00004000
00000000
00000000
00000000
00000000
0001C000
001FE000
1FFFE000
1FFFF000
1FFFF000
1FFFF000
1FFFF000
03FFF000
00FFF000
00FFF000
00FFF000
00FFF000
00FFF000
00FFF000
00FFF000
00FFF000
00FFF000
00FFF000
00FFF000
00FFF000
00FFF000
00FFF000
00FFF000
00FFF000
00FFF000
00FFF000
00FFF000
00FFF000
00FFF000
00FFF000
01FFF800
1FFFFF00
1FFFFF80
1FFFFF80
1FFFFF80
1FFFFF80
ENDCHAR
STARTCHAR 012A
ENCODING 298
SWIDTH 372 0
DWIDTH 29 0
BBX 25 64 2 0
BITMAP
7FFFFF80
7FFFFF80
7FFFFF80
7FFFFF80
FFFFFF80
F8000000
00000000
00000000
00000000
00000000
00000000
7FFFFF00
7FFFFF00
7FFFFF00
3FFFFF00
3FFFFF00
07FFF800
03FFF000
03FFE000
01FFE000
01FFE000
01FFE000
01FFE000
01FFE000
01FFE000
01FFE000
01FFE000
01FFE000
01FFE000
01FFE000
01FFE000
01FFE000
01FFE000
01FFE000
01FFE000
01FFE000
01FFE000
01FFE000
01FFE000
01FFE000
01FFE000
01FFE000
01FFE000
01FFE000
01FFE000
01FFE000
01FFE000
01FFE000
01FFE000
01FFE000
01FFE000
01FFE000
01FFE000
01FFE000
01FFE000
01FFE000
01FFE000
03FFF000
07FFF000
3FFFFF00
3FFFFF00
7FFFFF00
7FFFFF00
7FFFFF00
ENDCHAR
STARTCHAR 012B
ENCODING 299
SWIDTH 347 0
DWIDTH 27 0
BBX 23 49 2 0
BITMAP
7FFFFC
7FFFFC
FFFFF8
FFFFF8
FFFFF8
000000
000000
000000
000000
000000
000000
000000
000000
000700
007F80
7FFF80
7FFFC0
7FFFC0
7FFFC0
7FFFC0
0FFFC0
03FFC0
03FFC0
03FFC0
03FFC0
03FFC0
03FFC0
03FFC0
03FFC0
03FFC0
03FFC0
03FFC0
03FFC0
03FFC0
03FFC0
03FFC0
03FFC0
03FFC0
03FFC0
03FFC0
03FFC0
03FFC0
03FFC0
07FFE0
7FFFFC
7FFFFE
7FFFFE
7FFFFE
7FFFFE
ENDCHAR
STARTCHAR 012C
ENCODING 300
SWIDTH 372 0
DWIDTH 29 0
BBX 24 68 3 0
BITMAP
78000E
F8001F
F8001F
FC003F
FE003E
FF80FE
7FFFFE
7FFFFC
3FFFFC
1FFFF8
0FFFF0
03FFC0
001000
000000
000000
FFFFFE
FFFFFE
FFFFFE
7FFFFE
7FFFFE
0FFFF0
07FFE0
07FFC0
03FFC0
03FFC0
03FFC0
03FFC0
03FFC0
03FFC0
03FFC0
03FFC0
03FFC0
03FFC0
03FFC0
03FFC0
03FFC0
03FFC0
03FFC0
03FFC0
03FFC0
03FFC0
03FFC0
03FFC0
03FFC0
03FFC0
03FFC0
03FFC0
03FFC0
03FFC0
03FFC0
03FFC0
03FFC0
03FFC0
03FFC0
03FFC0
03FFC0
03FFC0
03FFC0
03FFC0
03FFC0
03FFC0
07FFE0
0FFFE0
7FFFFE
7FFFFE
FFFFFE
FFFFFE
FFFFFE
ENDCHAR
STARTCHAR 012D
ENCODING 301
SWIDTH 347 0
DWIDTH 27 0
BBX 25 55 1 0
BITMAP
F8000F80
FC000F80
FC000F80
FE001F80
FE001F80
FF003F00
FFC0FF00
7FFFFF00
7FFFFE00
3FFFFE00
3FFFFC00
1FFFF800
07FFF000
01FFC000
00000000
00000000
00000000
00000000
00000000
00038000
003FC000
3FFFC000
3FFFE000
3FFFE000
3FFFE000
3FFFE000
07FFE000
01FFE000
01FFE000
01FFE000
01FFE000
01FFE000
01FFE000
01FFE000
01FFE000
01FFE000
01FFE000
01FFE000
01FFE000
01FFE000
01FFE000
01FFE000
01FFE000
01FFE000
01FFE000
01FFE000
01FFE000
01FFE000
01FFE000
03FFF000
3FFFFE00
3FFFFF00
3FFFFF00
3FFFFF00
3FFFFF00
ENDCHAR
STARTCHAR 012E
ENCODING 302
SWIDTH 372 0
DWIDTH 29 0
BBX 23 72 3 -19
BITMAP
FFFFFE
FFFFFE
FFFFFE
7FFFFE
7FFFFE
0FFFF0
07FFE0
07FFC0
03FFC0
03FFC0
03FFC0
03FFC0
03FFC0
03FFC0
03FFC0
03FFC0
03FFC0
03FFC0
03FFC0
03FFC0
03FFC0
03FFC0
03FFC0
03FFC0
03FFC0
03FFC0
03FFC0
03FFC0
03FFC0
03FFC0
03FFC0
03FFC0
03FFC0
03FFC0
03FFC0
03FFC0
03FFC0
03FFC0
03FFC0
03FFC0
03FFC0
03FFC0
03FFC0
03FFC0
03FFC0
03FFC0
07FFE0
0FFFE0
7FFFFE
7FFFFE
FFFFFE
FFFFFE
FFFFFE
007F00
00FC00
03F800
07F000
0FF000
1FE000
1FE000
3FE000
3FE000
3FF000
3FF800
3FFFF0
3FFFF0
3FFFF0
3FFFF0
1FFFF0
1FFFC0
07FE00
03F800
ENDCHAR
STARTCHAR 012F
ENCODING 303
SWIDTH 347 0
DWIDTH 27 0
BBX 22 73 3 -19
BITMAP
00F800
03FE00
07FF00
0FFF00
0FFF80
0FFF80
0FFF80
0FFF80
0FFF00
07FE00
03FC00
000000
000000
000000
000000
000000
000000
000000
000E00
00FF00
FFFF00
FFFF80
FFFF80
FFFF80
FFFF80
1FFF80
07FF80
07FF80
07FF80
07FF80
07FF80
07FF80
07FF80
07FF80
07FF80
07FF80
07FF80
07FF80
07FF80
07FF80
07FF80
07FF80
07FF80
07FF80
07FF80
07FF80
07FF80
07FF80
0FFFC0
FFFFF8
FFFFFC
FFFFFC
FFFFFC
FFFFFC
007E00
01FC00
03F800
0FF000
1FE000
1FE000
3FC000
7FC000
7FC000
7FE000
7FF000
7FFFE0
7FFFE0
7FFFF0
7FFFF0
3FFFF0
1FFF80
0FFE00
03F800
ENDCHAR
STARTCHAR 0130
ENCODING 304
SWIDTH 372 0
DWIDTH 29 0
BBX 23 67 3 0
BITMAP
007E00
01FF80
03FFC0
03FFC0
07FFC0
07FFC0
07FFC0
07FFC0
03FFC0
01FF80
00FE00
000000
000000
000000
FFFFFE
FFFFFE
FFFFFE
7FFFFE
7FFFFE
0FFFF0
07FFE0
07FFC0
03FFC0
03FFC0
03FFC0
03FFC0
03FFC0
03FFC0
03FFC0
03FFC0
03FFC0
03FFC0
03FFC0
03FFC0
03FFC0
03FFC0
03FFC0
03FFC0
03FFC0
03FFC0
03FFC0
03FFC0
03FFC0
03FFC0
03FFC0
03FFC0
03FFC0
03FFC0
03FFC0
03FFC0
03FFC0
03FFC0
03FFC0
03FFC0
03FFC0
03FFC0
03FFC0
03FFC0
03FFC0
03FFC0
07FFE0
0FFFE0
7FFFFE
7FFFFE
FFFFFE
FFFFFE
FFFFFE
ENDCHAR
STARTCHAR 0131
ENCODING 305
SWIDTH 347 0
DWIDTH 27 0
BBX 22 36 3 0
BITMAP
000E00
00FF00
FFFF00
FFFF80
FFFF80
FFFF80
FFFF80
1FFF80
07FF80
07FF80
07FF80
07FF80
07FF80
07FF80
07FF80
07FF80
07FF80
07FF80
07FF80
07FF80
07FF80
07FF80
07FF80
07FF80
07FF80
07FF80
07FF80
07FF80
07FF80
07FF80
0FFFC0
FFFFF8
FFFFFC
FFFFFC
FFFFFC
FFFFFC
ENDCHAR
STARTCHAR 0132
ENCODING 306
SWIDTH 681 0
DWIDTH 53 0
BBX 48 72 3 -19
BITMAP
FFFFFE7FFFFF
FFFFFE7FFFFF
FFFFFE7FFFFF
7FFFFE7FFFFF
7FFFFE7FFFFF
0FFFF00FFFF8
07FFE003FFE0
07FFC003FFE0
03FFC003FFE0
03FFC003FFC0
03FFC001FFC0
03FFC001FFC0
03FFC001FFC0
03FFC001FFC0
03FFC001FFC0
03FFC001FFC0
03FFC001FFC0
03FFC001FFC0
03FFC001FFC0
03FFC001FFC0
03FFC001FFC0
03FFC001FFC0
03FFC001FFC0
03FFC001FFC0
03FFC001FFC0
03FFC001FFC0
03FFC001FFC0
03FFC001FFC0
03FFC001FFC0
03FFC001FFC0
03FFC001FFC0
03FFC001FFC0
03FFC001FFC0
03FFC001FFC0
03FFC001FFC0
03FFC001FFC0
03FFC001FFC0
03FFC001FFC0
03FFC001FFC0
03FFC001FFC0
03FFC001FFC0
03FFC001FFC0
03FFC001FFC0
03FFC001FFC0
03FFC001FFC0
03FFC001FFC0
07FFE001FFC0
0FFFE001FFC0
7FFFFE01FFC0
7FFFFE01FFC0
FFFFFE01FFC0
FFFFFE01FFC0
FFFFFE01FFC0
00000003FF80
00000003FF80
00000003FF80
00000003FF80
00000003FF00
00000007FF00
00000007FF00
00000007FE00
0000000FFC00
0000000FFC00
0000001FF800
0000003FF000
0000007FE000
000000FFC000
000001FF8000
000003FE0000
000003FC0000
000001F00000
000001C00000
ENDCHAR
STARTCHAR 0133
ENCODING 307
SWIDTH 591 0
DWIDTH 46 0
BBX 39 73 3 -19
BITMAP
00F80003E0
03FE000FF8
07FF001FFC
0FFF003FFE
0FFF803FFE
0FFF803FFE
0FFF803FFE
0FFF803FFE
0FFF003FFC
07FE001FFC
03FC000FF0
0000000000
0000000000
0000000000
0000000000
0000000000
0000000000
0000000000
000E00003C
00FF0003FC
FFFF01FFFE
FFFF83FFFE
FFFF83FFFE
FFFF83FFFE
FFFF83FFFE
1FFF803FFE
07FF801FFE
07FF801FFE
07FF801FFE
07FF800FFE
07FF800FFE
07FF800FFE
07FF800FFE
07FF800FFE
07FF800FFE
07FF800FFE
07FF800FFE
07FF800FFE
07FF800FFE
07FF800FFE
07FF800FFE
07FF800FFE
07FF800FFE
07FF800FFE
07FF800FFE
07FF800FFE
07FF800FFE
07FF800FFE
0FFFC00FFE
FFFFF80FFE
FFFFFC0FFE
FFFFFC0FFE
FFFFFC0FFC
FFFFFC0FFC
0000001FFC
0000001FFC
0000001FFC
0000001FF8
0000001FF8
0000001FF8
0000003FF0
0000003FF0
0000007FE0
0000007FC0
000000FFC0
000000FF80
000001FF00
000003FE00
000007FC00
00000FF800
000007F000
000007C000
0000038000
ENDCHAR
STARTCHAR 0134
ENCODING 308
SWIDTH 360 0
DWIDTH 28 0
BBX 25 87 0 -19
BITMAP
000F8000
001FC000
003FE000
00FFF000
01FFF800
03FFFC00
07FFFE00
0FFFFE00
1FE3FF00
3FC0FF80
1F807F80
1E001F00
04000800
00000000
00000000
3FFFFF80
3FFFFF80
3FFFFF80
1FFFFF80
1FFFFF80
03FFFC00
01FFF800
01FFF000
00FFF000
00FFF000
00FFF000
00FFF000
00FFF000
00FFF000
00FFF000
00FFF000
00FFF000
00FFF000
00FFF000
00FFF000
00FFF000
00FFF000
00FFF000
00FFF000
00FFF000
00FFF000
00FFF000
00FFF000
00FFF000
00FFF000
00FFF000
00FFF000
00FFF000
00FFF000
00FFF000
00FFF000
00FFF000
00FFF000
00FFF000
00FFF000
00FFF000
00FFF000
00FFF000
00FFF000
00FFF000
00FFF000
00FFF000
00FFF000
00FFE000
00FFE000
00FFE000
00FFE000
00FFE000
00FFE000
00FFE000
00FFC000
01FFC000
01FFC000
01FF8000
01FF8000
03FF0000
03FF0000
07FE0000
07FC0000
0FFC0000
1FF80000
3FE00000
7FC00000
FF800000
FE000000
FC000000
70000000
ENDCHAR
STARTCHAR 0135
ENCODING 309
SWIDTH 308 0
DWIDTH 24 0
BBX 24 75 1 -19
BITMAP
000600
007F00
007F00
00FF80
01FFC0
03FFC0
07FFE0
0FFFF0
0FFFF0
1FCFF8
3F87FC
7F03FE
FE01FF
7C00FF
38007C
100020
000000
000000
000000
000000
000380
003FC0
3FFFC0
3FFFC0
3FFFC0
7FFFC0
7FFFC0
07FFC0
03FFC0
01FFC0
01FFC0
01FFC0
01FFC0
01FFC0
01FFC0
01FFC0
01FFC0
01FFC0
01FFC0
01FFC0
01FFC0
01FFC0
01FFC0
01FFC0
01FFC0
01FFC0
01FFC0
01FFC0
01FFC0
01FFC0
01FFC0
01FFC0
01FFC0
01FFC0
01FFC0
01FFC0
01FFC0
01FFC0
01FF80
01FF80
01FF80
03FF00
03FF00
03FE00
07FE00
07FC00
0FF800
1FF000
3FF000
3FE000
7FC000
FF8000
FE0000
7C0000
300000
ENDCHAR
STARTCHAR 0136
ENCODING 310
SWIDTH 720 0
DWIDTH 56 0
BBX 52 76 3 -23
BITMAP
FFFFFE01FFFF80
FFFFFE01FFFF80
FFFFFE01FFFF80
7FFFFE01FFFF80
7FFFFE01FFFF80
0FFFF0007FFC00
07FFE0007FE000
07FFC0007FC000
03FFC0007F0000
03FFC000FE0000
03FFC001FC0000
03FFC003F80000
03FFC003F00000
03FFC007E00000
03FFC00FC00000
03FFC01F800000
03FFC03F000000
03FFC07F000000
03FFC0FE000000
03FFC1FC000000
03FFC3F8000000
03FFC7F0000000
03FFCFE0000000
03FFDFF0000000
03FFFFF8000000
03FFFFFC000000
03FFFFFE000000
03FFFFFF000000
03FFFFFF000000
03FFFFFF800000
03FFDFFFC00000
03FFCFFFE00000
03FFC7FFE00000
03FFC3FFF00000
03FFC1FFF80000
03FFC1FFFC0000
03FFC0FFFC0000
03FFC07FFE0000
03FFC03FFF0000
03FFC03FFF0000
03FFC01FFF8000
03FFC00FFFC000
03FFC007FFE000
03FFC007FFE000
03FFC003FFF000
03FFC001FFF800
07FFE001FFFE00
0FFFE000FFFF00
7FFFFE00FFFFF0
7FFFFE007FFFF0
FFFFFE003FFFF0
FFFFFE003FFFF0
FFFFFE001FFFF0
00000000180000
00000000000000
00000000000000
00000018000000
0000007C000000
00000FFE000000
00001FFE000000
00001FFE000000
00001FFE000000
00001FFE000000
00001FFE000000
00001FFE000000
000003FE000000
000001FC000000
000001FC000000
000001FC000000
000003F8000000
000003F0000000
000007F0000000
00000FE0000000
00000FC0000000
00001F80000000
00000F00000000
ENDCHAR
STARTCHAR 0137
ENCODING 311
SWIDTH 604 0
DWIDTH 47 0
BBX 45 79 2 -23
BITMAP
000200000000
001F00000000
07FF80000000
7FFF80000000
FFFF80000000
FFFF80000000
FFFF80000000
3FFF80000000
07FF80000000
07FF80000000
03FF80000000
03FF80000000
03FF80000000
03FF80000000
03FF80000000
03FF80000000
03FF80000000
03FF80000000
03FF80000000
03FF80000000
03FF803FFFF0
03FF803FFFF0
03FF803FFFF0
03FF803FFFE0
03FF803FFFE0
03FF800FFF00
03FF800FF800
03FF800FF000
03FF801FC000
03FF803F8000
03FF807F0000
03FF80FE0000
03FF81FC0000
03FF83F80000
03FF87F00000
03FF8FF80000
03FF9FFC0000
03FFBFFE0000
03FF9FFF0000
03FF9FFF0000
03FF8FFF8000
03FF87FFC000
03FF83FFE000
03FF81FFF000
03FF81FFF000
03FF80FFF800
03FF807FFC00
03FF803FFE00
03FF803FFF00
07FFC01FFF80
0FFFC00FFFC0
7FFFF807FFF8
FFFFF803FFF8
FFFFF803FFF8
FFFFF801FFF8
FFFFF800FFF8
000000000000
000000000000
000000000000
000000800000
000007C00000
0000FFE00000
0000FFE00000
0001FFF00000
0001FFF00000
0001FFF00000
0001FFF00000
0001FFE00000
00003FE00000
00001FE00000
00001FE00000
00001FC00000
00001FC00000
00003F800000
00003F000000
00007E000000
0000FC000000
0001F8000000
0000F0000000
ENDCHAR
STARTCHAR 0138
ENCODING 312
SWIDTH 604 0
DWIDTH 47 0
BBX 43 37 3 -1
BITMAP
000E01FFFF80
00FF01FFFF80
FFFF01FFFF80
FFFF81FFFF80
FFFF81FFFF00
FFFF803FF800
FFFF803FC000
1FFF807F8000
07FF80FF0000
07FF81FE0000
07FF83F80000
07FF87F00000
07FF8FE00000
07FF9FC00000
07FFBFC00000
07FFFFE00000
07FFFFF00000
07FFFFF80000
07FFFFFC0000
07FFFFFC0000
07FFFFFE0000
07FFBFFF0000
07FF9FFF8000
07FF8FFFC000
07FF87FFE000
07FF83FFE000
07FF83FFF000
07FF81FFF800
07FF80FFFC00
07FF807FFE00
0FFFC03FFF00
FFFFF83FFFE0
FFFFF81FFFE0
FFFFF80FFFE0
FFFFF807FFE0
FFFFF807FFE0
000000030000
ENDCHAR
STARTCHAR 0139
ENCODING 313
SWIDTH 591 0
DWIDTH 46 0
BBX 43 68 3 0
BITMAP
000FFC000000
000FF8000000
001FF0000000
001FE0000000
003FE0000000
003FC0000000
003F80000000
007F00000000
007E00000000
00FC00000000
007C00000000
000000000000
000000000000
000000000000
000000000000
FFFFFE000000
FFFFFE000000
FFFFFE000000
7FFFFE000000
7FFFFE000000
0FFFF0000000
07FFE0000000
07FFC0000000
03FFC0000000
03FFC0000000
03FFC0000000
03FFC0000000
03FFC0000000
03FFC0000000
03FFC0000000
03FFC0000000
03FFC0000000
03FFC0000000
03FFC0000000
03FFC0000000
03FFC0000000
03FFC0000000
03FFC0000000
03FFC0000000
03FFC0000000
03FFC0000000
03FFC0000000
03FFC0000000
03FFC0000000
03FFC0000000
03FFC0000000
03FFC0000000
03FFC0000000
03FFC0000000
03FFC0000000
03FFC0000000
03FFC0000000
03FFC0000000
03FFC0000600
03FFC0000F80
03FFC0000FE0
03FFC0000FC0
03FFC0001FC0
03FFC0001FC0
03FFC0003FC0
03FFC0007F80
07FFE000FF80
0FFFF003FF80
7FFFFFFFFF80
7FFFFFFFFF80
FFFFFFFFFF80
FFFFFFFFFF00
FFFFFFFFFF00
ENDCHAR
STARTCHAR 013A
ENCODING 314
SWIDTH 334 0
DWIDTH 26 0
BBX 22 71 2 0
BITMAP
0007FC
001FF8
001FF0
001FE0
003FC0
003FC0
007F80
007F00
00FE00
00FC00
01FC00
000000
000000
000000
000000
000200
001F00
07FF80
7FFF80
FFFF80
FFFF80
FFFF80
3FFF80
07FF80
07FF80
03FF80
03FF80
03FF80
03FF80
03FF80
03FF80
03FF80
03FF80
03FF80
03FF80
03FF80
03FF80
03FF80
03FF80
03FF80
03FF80
03FF80
03FF80
03FF80
03FF80
03FF80
03FF80
03FF80
03FF80
03FF80
03FF80
03FF80
03FF80
03FF80
03FF80
03FF80
03FF80
03FF80
03FF80
03FF80
03FF80
03FF80
03FF80
03FF80
07FFC0
0FFFC0
7FFFFC
FFFFFC
FFFFFC
FFFFFC
FFFFFC
ENDCHAR
STARTCHAR 013B
ENCODING 315
SWIDTH 591 0
DWIDTH 46 0
BBX 43 76 3 -23
BITMAP
FFFFFE000000
FFFFFE000000
FFFFFE000000
7FFFFE000000
7FFFFE000000
0FFFF0000000
07FFE0000000
07FFC0000000
03FFC0000000
03FFC0000000
03FFC0000000
03FFC0000000
03FFC0000000
03FFC0000000
03FFC0000000
03FFC0000000
03FFC0000000
03FFC0000000
03FFC0000000
03FFC0000000
03FFC0000000
03FFC0000000
03FFC0000000
03FFC0000000
03FFC0000000
03FFC0000000
03FFC0000000
03FFC0000000
03FFC0000000
03FFC0000000
03FFC0000000
03FFC0000000
03FFC0000000
03FFC0000000
03FFC0000000
03FFC0000000
03FFC0000000
03FFC0000000
03FFC0000600
03FFC0000F80
03FFC0000FE0
03FFC0000FC0
03FFC0001FC0
03FFC0001FC0
03FFC0003FC0
03FFC0007F80
07FFE000FF80
0FFFF003FF80
7FFFFFFFFF80
7FFFFFFFFF80
FFFFFFFFFF80
FFFFFFFFFF00
FFFFFFFFFF00
000000000000
000000000000
000000000000
000001000000
00000FC00000
0001FFC00000
0001FFE00000
0001FFE00000
0003FFE00000
0003FFE00000
0003FFE00000
0003FFE00000
00007FC00000
00003FC00000
00003FC00000
00003F800000
00003F800000
00003F000000
00007E000000
0000FE000000
0001FC000000
0003F8000000
0001E0000000
ENDCHAR
STARTCHAR 013C
ENCODING 316
SWIDTH 334 0
DWIDTH 26 0
BBX 22 79 2 -23
BITMAP
000200
001F00
07FF80
7FFF80
FFFF80
FFFF80
FFFF80
3FFF80
07FF80
07FF80
03FF80
03FF80
03FF80
03FF80
03FF80
03FF80
03FF80
03FF80
03FF80
03FF80
03FF80
03FF80
03FF80
03FF80
03FF80
03FF80
03FF80
03FF80
03FF80
03FF80
03FF80
03FF80
03FF80
03FF80
03FF80
03FF80
03FF80
03FF80
03FF80
03FF80
03FF80
03FF80
03FF80
03FF80
03FF80
03FF80
03FF80
03FF80
03FF80
07FFC0
0FFFC0
7FFFFC
FFFFFC
FFFFFC
FFFFFC
FFFFFC
000000
000000
000000
000600
001F00
03FF80
07FF80
07FF80
07FF80
07FF80
07FF80
07FF80
00FF80
007F80
007F00
007F00
00FE00
00FE00
01FC00
01F800
03F000
07E000
03C000
ENDCHAR
STARTCHAR 013D
ENCODING 317
SWIDTH 591 0
DWIDTH 46 0
BBX 43 56 3 0
BITMAP
000000000700
000000003F80
00000003FF80
FFFFFE03FFC0
FFFFFE03FFC0
FFFFFE03FFC0
7FFFFE03FFC0
7FFFFE07FFC0
0FFFF007FFC0
07FFE000FFC0
07FFC0007FC0
03FFC0003F80
03FFC0003F80
03FFC0003F80
03FFC0003F00
03FFC0003F00
03FFC0007E00
03FFC0007E00
03FFC000FC00
03FFC001F800
03FFC001F000
03FFC000E000
03FFC0000000
03FFC0000000
03FFC0000000
03FFC0000000
03FFC0000000
03FFC0000000
03FFC0000000
03FFC0000000
03FFC0000000
03FFC0000000
03FFC0000000
03FFC0000000
03FFC0000000
03FFC0000000
03FFC0000000
03FFC0000000
03FFC0000000
03FFC0000000
03FFC0000000
03FFC0000600
03FFC0000F80
03FFC0000FE0
03FFC0000FC0
03FFC0001FC0
03FFC0001FC0
03FFC0003FC0
03FFC0007F80
07FFE000FF80
0FFFF003FF80
7FFFFFFFFF80
7FFFFFFFFF80
FFFFFFFFFF80
FFFFFFFFFF00
FFFFFFFFFF00
ENDCHAR
STARTCHAR 013E
ENCODING 318
SWIDTH 488 0
DWIDTH 38 0
BBX 34 56 2 0
BITMAP
0002000700
001F001F80
07FF81FFC0
7FFF83FFC0
FFFF83FFC0
FFFF83FFC0
FFFF83FFC0
3FFF83FFC0
07FF83FFC0
07FF80FFC0
03FF807FC0
03FF803FC0
03FF803F80
03FF803F80
03FF803F80
03FF803F00
03FF803F00
03FF807E00
03FF80FC00
03FF80F800
03FF81F800
03FF80F000
03FF800000
03FF800000
03FF800000
03FF800000
03FF800000
03FF800000
03FF800000
03FF800000
03FF800000
03FF800000
03FF800000
03FF800000
03FF800000
03FF800000
03FF800000
03FF800000
03FF800000
03FF800000
03FF800000
03FF800000
03FF800000
03FF800000
03FF800000
03FF800000
03FF800000
03FF800000
03FF800000
07FFC00000
0FFFC00000
7FFFFC0000
FFFFFC0000
FFFFFC0000
FFFFFC0000
FFFFFC0000
ENDCHAR
STARTCHAR 013F
ENCODING 319
SWIDTH 591 0
DWIDTH 46 0
BBX 43 53 3 0
BITMAP
FFFFFE000000
FFFFFE000000
FFFFFE000000
7FFFFE000000
7FFFFE000000
0FFFF0000000
07FFE0000000
07FFC0000000
03FFC0000000
03FFC0000000
03FFC0000000
03FFC0000000
03FFC0000000
03FFC0000000
03FFC0000000
03FFC0000000
03FFC0000000
03FFC0000000
03FFC0000000
03FFC0000000
03FFC0007C00
03FFC000FE00
03FFC001FF00
03FFC001FF00
03FFC003FF00
03FFC003FF00
03FFC003FF00
03FFC001FF00
03FFC000FE00
03FFC0007800
03FFC0000000
03FFC0000000
03FFC0000000
03FFC0000000
03FFC0000000
03FFC0000000
03FFC0000000
03FFC0000000
03FFC0000600
03FFC0000F80
03FFC0000FE0
03FFC0000FC0
03FFC0001FC0
03FFC0001FC0
03FFC0003FC0
03FFC0007F80
07FFE000FF80
0FFFF003FF80
7FFFFFFFFF80
7FFFFFFFFF80
FFFFFFFFFF80
FFFFFFFFFF00
FFFFFFFFFF00
ENDCHAR
STARTCHAR 0140
ENCODING 320
SWIDTH 334 0
DWIDTH 26 0
BBX 30 56 2 0
BITMAP
00020000
001F0000
07FF8000
7FFF8000
FFFF8000
FFFF8000
FFFF8000
3FFF8000
07FF8000
07FF8000
03FF8000
03FF8000
03FF8000
03FF8000
03FF8000
03FF8000
03FF8000
03FF8000
03FF8000
03FF8000
03FF8000
03FF8000
03FF8000
03FF8000
03FF83F0
03FF87F8
03FF8FFC
03FF8FFC
03FF8FFC
03FF8FFC
03FF8FFC
03FF87F8
03FF87F0
03FF8080
03FF8000
03FF8000
03FF8000
03FF8000
03FF8000
03FF8000
03FF8000
03FF8000
03FF8000
03FF8000
03FF8000
03FF8000
03FF8000
03FF8000
03FF8000
07FFC000
0FFFC000
7FFFFC00
FFFFFC00
FFFFFC00
FFFFFC00
FFFFFC00
ENDCHAR
STARTCHAR 0141
ENCODING 321
SWIDTH 591 0
DWIDTH 46 0
BBX 45 53 1 0
BITMAP
3FFFFF800000
3FFFFF800000
3FFFFF800000
1FFFFF800000
1FFFFF800000
03FFFC000000
01FFF8000000
01FFF0000000
00FFF0000000
00FFF0000000
00FFF0000000
00FFF0000000
00FFF0000000
00FFF0000000
00FFF0000000
00FFF0000000
00FFF0000000
00FFF0000000
00FFF0C00000
00FFF1E00000
00FFF7E00000
00FFFFF00000
00FFFFF00000
00FFFFC00000
00FFFF800000
00FFFE000000
00FFFC000000
00FFF0000000
03FFF0000000
07FFF0000000
1FFFF0000000
3FFFF0000000
FFFFF0000000
7FFFF0000000
7EFFF0000000
7CFFF0000000
30FFF0000000
20FFF0000000
00FFF0000180
00FFF00003E0
00FFF00003F8
00FFF00003F0
00FFF00007F0
00FFF00007F0
00FFF0000FF0
00FFF0001FE0
01FFF8003FE0
03FFFC00FFE0
1FFFFFFFFFE0
1FFFFFFFFFE0
3FFFFFFFFFE0
3FFFFFFFFFC0
3FFFFFFFFFC0
ENDCHAR
STARTCHAR 0142
ENCODING 322
SWIDTH 334 0
DWIDTH 26 0
BBX 27 56 0 0
BITMAP
00008000
0007C000
01FFE000
1FFFE000
3FFFE000
3FFFE000
3FFFE000
0FFFE000
01FFE000
01FFE000
00FFE000
00FFE000
00FFE000
00FFE000
00FFE000
00FFE000
00FFE000
00FFE000
00FFE000
00FFE000
00FFE000
00FFE1C0
00FFE3E0
00FFEFE0
00FFFFE0
00FFFFE0
00FFFFC0
00FFFF00
00FFFE00
00FFF800
01FFE000
07FFE000
0FFFE000
3FFFE000
7FFFE000
FFFFE000
FFFFE000
FCFFE000
78FFE000
60FFE000
00FFE000
00FFE000
00FFE000
00FFE000
00FFE000
00FFE000
00FFE000
00FFE000
00FFE000
01FFF000
03FFF000
1FFFFF00
3FFFFF00
3FFFFF00
3FFFFF00
3FFFFF00
ENDCHAR
STARTCHAR 0143
ENCODING 323
SWIDTH 720 0
DWIDTH 56 0
BBX 51 69 3 -1
BITMAP
0000003FF00000
0000007FE00000
0000007FC00000
0000007F800000
000000FF000000
000000FE000000
000001FE000000
000001FC000000
000003F8000000
000003F0000000
000001E0000000
00000000000000
00000000000000
00000000000000
00000000000000
FFFE00003FFFE0
FFFF00003FFFE0
FFFF80003FFFE0
FFFF80003FFFE0
FFFFC0003FFFC0
1FFFE00007FF00
07FFF00001FE00
07FFF00001FC00
03FFF80000FC00
03FFFC0000FC00
03FFFE0000FC00
03FFFE0000FC00
03FFFF0000FC00
03FFFF8000F800
03FFFFC0007800
03EFFFC0007800
03EFFFE0007800
03E7FFF0007800
03E3FFF8007800
03E1FFF8007800
03E1FFFC007800
03E0FFFE007800
03E07FFF007800
03E03FFF007800
03E03FFF807800
03E01FFFC07800
03E00FFFC07800
03E007FFE07800
03E007FFF07800
03E003FFF87800
03E001FFF87800
03E000FFFC7800
03E000FFFE7800
03E0007FFF7800
03E0003FFF7800
03E0001FFFF800
03E0001FFFF800
03E0000FFFF800
03E00007FFF800
03E00003FFF800
03E00003FFF800
03E00001FFF800
03E00000FFF800
03E000007FF800
07F000007FF800
07F000003FF800
07F000001FF800
0FF800000FF800
FFFF80000FF800
FFFF800007F800
FFFF800003F800
FFFF800001F800
FFFF800001F800
0000000000E000
ENDCHAR
STARTCHAR 0144
ENCODING 324
SWIDTH 655 0
DWIDTH 51 0
BBX 46 56 3 0
BITMAP
0000003FE000
000000FFC000
000000FF8000
000000FF0000
000001FF0000
000001FE0000
000001FC0000
000003F80000
000003F80000
000007F00000
000007E00000
00000FE00000
00000FC00000
00000FC00000
000003800000
000000000000
000000000000
000000000000
000000000000
000000000000
000F007F8000
00FF03FFF000
7FFF07FFF800
FFFF1FFFFC00
FFFF3FFFFE00
FFFF7FFFFE00
FFFFFFFFFF00
1FFFF01FFF00
07FF800FFF80
07FF8007FF80
07FF8007FF80
07FF8003FF80
07FF8003FF80
07FF8003FF80
07FF8003FF80
07FF8003FF80
07FF8003FF80
07FF8003FF80
07FF8003FF80
07FF8003FF80
07FF8003FF80
07FF8003FF80
07FF8003FF80
07FF8003FF80
07FF8003FF80
07FF8003FF80
07FF8003FF80
07FF8003FF80
07FF8003FFC0
07FF8007FFC0
0FFFC00FFFE0
FFFFF83FFFF8
FFFFF87FFFF8
FFFFF87FFFFC
FFFFFC7FFFFC
FFFFFC7FFFFC
ENDCHAR
STARTCHAR 0145
ENCODING 325
SWIDTH 720 0
DWIDTH 56 0
BBX 51 76 3 -23
BITMAP
FFFE00003FFFE0
FFFF00003FFFE0
FFFF80003FFFE0
FFFF80003FFFE0
FFFFC0003FFFC0
1FFFE00007FF00
07FFF00001FE00
07FFF00001FC00
03FFF80000FC00
03FFFC0000FC00
03FFFE0000FC00
03FFFE0000FC00
03FFFF0000FC00
03FFFF8000F800
03FFFFC0007800
03EFFFC0007800
03EFFFE0007800
03E7FFF0007800
03E3FFF8007800
03E1FFF8007800
03E1FFFC007800
03E0FFFE007800
03E07FFF007800
03E03FFF007800
03E03FFF807800
03E01FFFC07800
03E00FFFC07800
03E007FFE07800
03E007FFF07800
03E003FFF87800
03E001FFF87800
03E000FFFC7800
03E000FFFE7800
03E0007FFF7800
03E0003FFF7800
03E0001FFFF800
03E0001FFFF800
03E0000FFFF800
03E00007FFF800
03E00003FFF800
03E00003FFF800
03E00001FFF800
03E00000FFF800
03E000007FF800
07F000007FF800
07F000003FF800
07F000001FF800
0FF800000FF800
FFFF80000FF800
FFFF800007F800
FFFF800003F800
FFFF800001F800
FFFF800001F800
0000000000E000
00000000000000
00000000000000
00000002000000
0000001F000000
000003FF800000
000003FF800000
000007FFC00000
000007FFC00000
000007FFC00000
000007FFC00000
000007FF800000
000000FF800000
0000007F800000
0000007F800000
0000007F000000
0000007F000000
000000FE000000
000000FC000000
000001F8000000
000003F0000000
000007E0000000
000003C0000000
ENDCHAR
STARTCHAR 0146
ENCODING 326
SWIDTH 655 0
DWIDTH 51 0
BBX 46 59 3 -23
BITMAP
000F007F8000
00FF03FFF000
7FFF07FFF800
FFFF1FFFFC00
FFFF3FFFFE00
FFFF7FFFFE00
FFFFFFFFFF00
1FFFF01FFF00
07FF800FFF80
07FF8007FF80
07FF8007FF80
07FF8003FF80
07FF8003FF80
07FF8003FF80
07FF8003FF80
07FF8003FF80
07FF8003FF80
07FF8003FF80
07FF8003FF80
07FF8003FF80
07FF8003FF80
07FF8003FF80
07FF8003FF80
07FF8003FF80
07FF8003FF80
07FF8003FF80
07FF8003FF80
07FF8003FF80
07FF8003FFC0
07FF8007FFC0
0FFFC00FFFE0
FFFFF83FFFF8
FFFFF87FFFF8
FFFFF87FFFFC
FFFFFC7FFFFC
FFFFFC7FFFFC
000000000000
000000000000
000000000000
000000400000
000001F00000
00007FF00000
00007FF80000
00007FF80000
00007FF80000
0000FFF80000
0000FFF80000
0000FFF80000
00001FF80000
00000FF00000
000007F00000
00000FE00000
00000FE00000
00000FC00000
00001F800000
00003F800000
00007F000000
0000FE000000
000038000000
ENDCHAR
STARTCHAR 0147
ENCODING 327
SWIDTH 720 0
DWIDTH 56 0
BBX 51 70 3 -1
BITMAP
00018000300000
0007E000780000
000FF801FC0000
000FFE07FC0000
0007FF9FF80000
0003FFFFE00000
0000FFFFC00000
00007FFF000000
00003FFE000000
00001FFC000000
00000FF8000000
000007E0000000
00000000000000
00000000000000
00000000000000
00000000000000
FFFE00003FFFE0
FFFF00003FFFE0
FFFF80003FFFE0
FFFF80003FFFE0
FFFFC0003FFFC0
1FFFE00007FF00
07FFF00001FE00
07FFF00001FC00
03FFF80000FC00
03FFFC0000FC00
03FFFE0000FC00
03FFFE0000FC00
03FFFF0000FC00
03FFFF8000F800
03FFFFC0007800
03EFFFC0007800
03EFFFE0007800
03E7FFF0007800
03E3FFF8007800
03E1FFF8007800
03E1FFFC007800
03E0FFFE007800
03E07FFF007800
03E03FFF007800
03E03FFF807800
03E01FFFC07800
03E00FFFC07800
03E007FFE07800
03E007FFF07800
03E003FFF87800
03E001FFF87800
03E000FFFC7800
03E000FFFE7800
03E0007FFF7800
03E0003FFF7800
03E0001FFFF800
03E0001FFFF800
03E0000FFFF800
03E00007FFF800
03E00003FFF800
03E00003FFF800
03E00001FFF800
03E00000FFF800
03E000007FF800
07F000007FF800
07F000003FF800
07F000001FF800
0FF800000FF800
FFFF80000FF800
FFFF800007F800
FFFF800003F800
FFFF800001F800
FFFF800001F800
0000000000E000
ENDCHAR
STARTCHAR 0148
ENCODING 328
SWIDTH 655 0
DWIDTH 51 0
BBX 46 55 3 0
BITMAP
001C0000E000
007E0001F000
007F8007F800
007FC00FF000
003FF03FE000
001FFCFFC000
000FFFFF8000
0007FFFF0000
0003FFFC0000
0001FFF80000
0000FFF00000
00007FE00000
00003FC00000
00001FC00000
00000F000000
000000000000
000000000000
000000000000
000000000000
000F007F8000
00FF03FFF000
7FFF07FFF800
FFFF1FFFFC00
FFFF3FFFFE00
FFFF7FFFFE00
FFFFFFFFFF00
1FFFF01FFF00
07FF800FFF80
07FF8007FF80
07FF8007FF80
07FF8003FF80
07FF8003FF80
07FF8003FF80
07FF8003FF80
07FF8003FF80
07FF8003FF80
07FF8003FF80
07FF8003FF80
07FF8003FF80
07FF8003FF80
07FF8003FF80
07FF8003FF80
07FF8003FF80
07FF8003FF80
07FF8003FF80
07FF8003FF80
07FF8003FF80
07FF8003FFC0
07FF8007FFC0
0FFFC00FFFE0
FFFFF83FFFF8
FFFFF87FFFF8
FFFFF87FFFFC
FFFFFC7FFFFC
FFFFFC7FFFFC
ENDCHAR
STARTCHAR 0149
ENCODING 329
SWIDTH 835 0
DWIDTH 65 0
BBX 58 56 5 0
BITMAP
00E0000000000000
07F0000000000000
7FF0000000000000
7FF8000000000000
7FF8000000000000
FFF8000000000000
FFF8000000000000
FFF8000000000000
FFF8000000000000
3FF8000000000000
0FF0000000000000
07F0000000000000
07F0000000000000
07F0000000000000
07E0000000000000
0FE0000000000000
0FC0000000000000
0FC0000000000000
1F80000000000000
3F00000000000000
3F00007003F80000
7E000FF81FFF0000
FC07FFF87FFFC000
7807FFF8FFFFE000
000FFFFBFFFFE000
000FFFFFFFFFF000
000FFFFFFFFFF000
0000FFFF81FFF800
00007FF8007FF800
00003FF8007FF800
00003FF8003FFC00
00003FF8003FFC00
00003FF8003FFC00
00003FF8003FFC00
00003FF8001FFC00
00003FF8001FFC00
00003FF8001FFC00
00003FF8001FFC00
00003FF8001FFC00
00003FF8001FFC00
00003FF8001FFC00
00003FF8001FFC00
00003FF8001FFC00
00003FF8001FFC00
00003FF8001FFC00
00003FF8001FFC00
00003FF8003FFC00
00003FF8003FFC00
00003FF8003FFC00
00007FFC003FFC00
0000FFFC007FFE00
0007FFFFC3FFFFC0
000FFFFFC3FFFFC0
000FFFFFC3FFFFC0
000FFFFFC3FFFFC0
000FFFFFC3FFFFC0
ENDCHAR
STARTCHAR 014A
ENCODING 330
SWIDTH 681 0
DWIDTH 53 0
BBX 47 72 3 -19
BITMAP
00078007F800
007F807FFF00
7FFFC1FFFFC0
7FFFC3FFFFE0
7FFFC7FFFFF0
FFFFCFFFFFF8
FFFFDFFFFFFC
0FFFBFC1FFFC
07FFBE007FFC
03FFFC003FFE
03FFF8003FFE
03FFF0001FFE
03FFF0001FFE
03FFE0001FFE
03FFE0000FFE
03FFE0000FFE
03FFC0000FFE
03FFC0000FFE
03FFC0000FFE
03FFC0000FFE
03FFC0000FFE
03FFC0000FFE
03FFC0000FFE
03FFC0000FFE
03FFC0000FFE
03FFC0000FFE
03FFC0000FFE
03FFC0000FFE
03FFC0000FFE
03FFC0000FFE
03FFC0000FFE
03FFC0000FFE
03FFC0000FFE
03FFC0000FFE
03FFC0000FFE
03FFC0000FFE
03FFC0000FFE
03FFC0000FFE
03FFC0000FFE
03FFC0000FFE
03FFC0000FFE
03FFC0000FFE
03FFC0000FFE
03FFC0000FFE
03FFC0000FFE
03FFC0000FFE
07FFE0000FFE
0FFFE0000FFE
7FFFFE000FFE
7FFFFE000FFE
7FFFFE000FFE
FFFFFE000FFE
FFFFFE000FFE
000000000FFC
000000000FFC
000000000FFC
000000000FFC
000000000FF8
000000001FF8
000000001FF8
000000001FF0
000000003FF0
000003007FE0
000003FFFFE0
000003FFFFC0
000003FFFF80
000003FFFF00
000003FFFF00
000003FFFE00
000003FFF800
000001FFF000
0000007FC000
ENDCHAR
STARTCHAR 014B
ENCODING 331
SWIDTH 630 0
DWIDTH 49 0
BBX 41 55 3 -19
BITMAP
000E007F8000
00FF03FFE000
7FFF07FFF800
FFFF9FFFFC00
FFFF3FFFFE00
FFFF7FFFFF00
FFFF7FFFFF00
1FFFFC1FFF00
07FFF00FFF80
07FFE007FF80
07FFE007FF80
07FFC003FF80
07FFC003FF80
07FF8003FF80
07FF8003FF80
07FF8003FF80
07FF8003FF80
07FF8003FF80
07FF8003FF80
07FF8003FF80
07FF8003FF80
07FF8003FF80
07FF8003FF80
07FF8003FF80
07FF8003FF80
07FF8003FF80
07FF8003FF80
07FF8003FF80
07FF8003FF80
07FF8003FF80
0FFFC003FF80
FFFFF803FF80
FFFFF803FF80
FFFFF803FF80
FFFFFC03FF80
FFFFFC03FF00
00000003FF00
00000003FF00
00000003FF00
00000003FE00
00000003FE00
00000007FE00
00000007FC00
00000007FC00
0000000FF800
0000801FF800
0000FFFFF000
0000FFFFF000
0000FFFFE000
0000FFFFC000
0000FFFF8000
0000FFFF0000
0000FFFE0000
00007FFC0000
00001FF00000
ENDCHAR
STARTCHAR 014C
ENCODING 332
SWIDTH 745 0
DWIDTH 58 0
BBX 52 65 3 -1
BITMAP
000FFFFFFF8000
000FFFFFFF8000
001FFFFFFF8000
001FFFFFFF0000
001FFFFFFF0000
00000000000000
00000000000000
00000000000000
00000000000000
00000000000000
00000000000000
00001FFF800000
0000FFFFF00000
0007FFFFFE0000
000FFFFFFF8000
003FFFFFFFC000
007FF007FFE000
00FFE001FFF800
01FF8000FFFC00
03FF00003FFC00
07FF00001FFE00
0FFE00001FFF00
0FFC00000FFF80
1FFC000007FF80
1FFC000007FFC0
3FF8000003FFC0
3FF8000003FFE0
7FF8000003FFE0
7FF0000001FFE0
7FF0000001FFE0
FFF0000001FFF0
FFF0000001FFF0
FFF0000000FFF0
FFF0000000FFF0
FFF0000000FFF0
FFF0000000FFF0
FFF0000000FFF0
FFF0000000FFF0
FFF0000000FFF0
FFF0000000FFF0
FFF0000000FFF0
FFF0000000FFF0
FFF0000000FFF0
FFF8000000FFF0
FFF8000000FFF0
7FF8000000FFE0
7FF8000001FFE0
7FFC000001FFE0
3FFC000001FFC0
3FFC000001FFC0
3FFE000003FF80
1FFE000003FF80
1FFF000007FF00
0FFF000007FF00
07FF80000FFE00
07FFC0000FFC00
03FFE0001FF800
01FFF0003FF000
00FFFC00FFE000
003FFF87FFC000
001FFFFFFF8000
000FFFFFFE0000
0001FFFFF80000
00007FFFC00000
000001F8000000
ENDCHAR
STARTCHAR 014D
ENCODING 333
SWIDTH 565 0
DWIDTH 44 0
BBX 39 50 3 -1
BITMAP
07FFFFFF80
07FFFFFF80
0FFFFFFF80
0FFFFFFF80
0000000000
0000000000
0000000000
0000000000
0000000000
0000000000
0000000000
0000000000
0000000000
0007FFC000
003FFFF800
00FFFFFE00
01FFFFFF00
07FFDFFFC0
0FFE03FFE0
0FFC01FFE0
1FF800FFF0
3FF8007FF8
3FF0007FF8
7FF0003FFC
7FF0003FFC
7FE0001FFC
FFE0001FFC
FFE0001FFE
FFE0001FFE
FFE0001FFE
FFE0001FFE
FFE0001FFE
FFE0001FFE
FFE0001FFE
FFF0001FFC
FFF0001FFC
FFF0001FFC
FFF0001FFC
7FF8001FF8
7FF8003FF8
3FFC003FF8
3FFC007FF0
1FFE007FE0
1FFF00FFC0
0FFFC3FF80
07FFFFFF00
01FFFFFE00
00FFFFF800
001FFFE000
0000FE0000
ENDCHAR
STARTCHAR 014E
ENCODING 334
SWIDTH 745 0
DWIDTH 58 0
BBX 52 69 3 -1
BITMAP
0003E0003E0000
0007E0003E0000
0007F0007E0000
0007F800FE0000
0003FE03FC0000
0003FFFFFC0000
0003FFFFFC0000
0001FFFFF80000
0000FFFFF00000
00007FFFE00000
00001FFF800000
000001F8000000
00000000000000
00000000000000
00000000000000
00001FFF800000
0000FFFFF00000
0007FFFFFE0000
000FFFFFFF8000
003FFFFFFFC000
007FF007FFE000
00FFE001FFF800
01FF8000FFFC00
03FF00003FFC00
07FF00001FFE00
0FFE00001FFF00
0FFC00000FFF80
1FFC000007FF80
1FFC000007FFC0
3FF8000003FFC0
3FF8000003FFE0
7FF8000003FFE0
7FF0000001FFE0
7FF0000001FFE0
FFF0000001FFF0
FFF0000001FFF0
FFF0000000FFF0
FFF0000000FFF0
FFF0000000FFF0
FFF0000000FFF0
FFF0000000FFF0
FFF0000000FFF0
FFF0000000FFF0
FFF0000000FFF0
FFF0000000FFF0
FFF0000000FFF0
FFF0000000FFF0
FFF8000000FFF0
FFF8000000FFF0
7FF8000000FFE0
7FF8000001FFE0
7FFC000001FFE0
3FFC000001FFC0
3FFC000001FFC0
3FFE000003FF80
1FFE000003FF80
1FFF000007FF00
0FFF000007FF00
07FF80000FFE00
07FFC0000FFC00
03FFE0001FF800
01FFF0003FF000
00FFFC00FFE000
003FFF87FFC000
001FFFFFFF8000
000FFFFFFE0000
0001FFFFF80000
00007FFFC00000
000001F8000000
ENDCHAR
STARTCHAR 014F
ENCODING 335
SWIDTH 565 0
DWIDTH 44 0
BBX 39 56 3 -1
BITMAP
07C0000F80
0FC0000F80
0FE0000F80
0FE0001F80
07F0001F80
07FC003F80
07FF00FF00
03FFFFFF00
03FFFFFF00
01FFFFFE00
00FFFFFC00
007FFFF800
003FFFE000
000FFF8000
0000000000
0000000000
0000000000
0000000000
0000000000
0007FFC000
003FFFF800
00FFFFFE00
01FFFFFF00
07FFDFFFC0
0FFE03FFE0
0FFC01FFE0
1FF800FFF0
3FF8007FF8
3FF0007FF8
7FF0003FFC
7FF0003FFC
7FE0001FFC
FFE0001FFC
FFE0001FFE
FFE0001FFE
FFE0001FFE
FFE0001FFE
FFE0001FFE
FFE0001FFE
FFE0001FFE
FFF0001FFC
FFF0001FFC
FFF0001FFC
FFF0001FFC
7FF8001FF8
7FF8003FF8
3FFC003FF8
3FFC007FF0
1FFE007FE0
1FFF00FFC0
0FFFC3FF80
07FFFFFF00
01FFFFFE00
00FFFFF800
001FFFE000
0000FE0000
ENDCHAR
STARTCHAR 0150
ENCODING 336
SWIDTH 745 0
DWIDTH 58 0
BBX 52 70 3 -1
BITMAP
000000E0038000
00001FF87FE000
00003FF07FC000
00003FE0FF8000
00003FC0FF0000
00007F81FE0000
00007F81FE0000
00007F01FC0000
0000FE03F80000
0000FC03F00000
0001F807F00000
00003800E00000
00000000000000
00000000000000
00000000000000
00000000000000
00001FFF800000
0000FFFFF00000
0007FFFFFE0000
000FFFFFFF8000
003FFFFFFFC000
007FF007FFE000
00FFE001FFF800
01FF8000FFFC00
03FF00003FFC00
07FF00001FFE00
0FFE00001FFF00
0FFC00000FFF80
1FFC000007FF80
1FFC000007FFC0
3FF8000003FFC0
3FF8000003FFE0
7FF8000003FFE0
7FF0000001FFE0
7FF0000001FFE0
FFF0000001FFF0
FFF0000001FFF0
FFF0000000FFF0
FFF0000000FFF0
FFF0000000FFF0
FFF0000000FFF0
FFF0000000FFF0
FFF0000000FFF0
FFF0000000FFF0
FFF0000000FFF0
FFF0000000FFF0
FFF0000000FFF0
FFF0000000FFF0
FFF8000000FFF0
FFF8000000FFF0
7FF8000000FFE0
7FF8000001FFE0
7FFC000001FFE0
3FFC000001FFC0
3FFC000001FFC0
3FFE000003FF80
1FFE000003FF80
1FFF000007FF00
0FFF000007FF00
07FF80000FFE00
07FFC0000FFC00
03FFE0001FF800
01FFF0003FF000
00FFFC00FFE000
003FFF87FFC000
001FFFFFFF8000
000FFFFFFE0000
0001FFFFF80000
00007FFFC00000
000001F8000000
ENDCHAR
STARTCHAR 0151
ENCODING 337
SWIDTH 565 0
DWIDTH 44 0
BBX 39 57 3 -1
BITMAP
0003FE07F8
0007FE1FF8
000FFC1FF0
000FF83FE0
000FF03FC0
001FE03FC0
001FE07F80
001FC07F00
003F80FE00
003F80FE00
007F00FC00
007E01F800
007E01F800
00FC03F000
0018006000
0000000000
0000000000
0000000000
0000000000
0000000000
0007FFC000
003FFFF800
00FFFFFE00
01FFFFFF00
07FFDFFFC0
0FFE03FFE0
0FFC01FFE0
1FF800FFF0
3FF8007FF8
3FF0007FF8
7FF0003FFC
7FF0003FFC
7FE0001FFC
FFE0001FFC
FFE0001FFE
FFE0001FFE
FFE0001FFE
FFE0001FFE
FFE0001FFE
FFE0001FFE
FFE0001FFE
FFF0001FFC
FFF0001FFC
FFF0001FFC
FFF0001FFC
7FF8001FF8
7FF8003FF8
3FFC003FF8
3FFC007FF0
1FFE007FE0
1FFF00FFC0
0FFFC3FF80
07FFFFFF00
01FFFFFE00
00FFFFF800
001FFFE000
0000FE0000
ENDCHAR
STARTCHAR 0152
ENCODING 338
SWIDTH 990 0
DWIDTH 77 0
BBX 72 54 3 -1
BITMAP
00001FFFFFFFFFFFF0
0001FFFFFFFFFFFFF0
0007FFFFFFFFFFFFF0
001FFFFFFFFFFFFFF0
003FFFFFFFFFFFFFF8
00FFF00FFFC0003FF8
01FFC003FFE0000FF8
03FF8001FFF00007F8
07FF0000FFF80003F8
07FE00007FF80001F8
0FFE00003FFC0001F8
1FFC00003FFE0001F8
1FFC00001FFE0000FC
3FF800001FFE0000F8
3FF800000FFF000000
3FF800000FFF000000
7FF0000007FF800000
7FF0000007FF800000
7FF0000007FF803E00
FFF0000007FF807E00
FFF0000007FF807E00
FFF0000003FFC07E00
FFF0000003FFC0FE00
FFF0000003FFC0FE00
FFF0000003FFCFFC00
FFF0000003FFFFFC00
FFF0000003FFFFFC00
FFF0000003FFFFFC00
FFF0000003FFFFFC00
FFF0000003FFCFFE00
FFF0000003FF80FE00
FFF0000003FF80FE00
FFF0000003FF807E00
FFF0000003FF807E00
FFF8000007FF807E00
7FF8000007FF803E00
7FF8000007FF000000
7FF8000007FF000000
3FFC000007FF000030
3FFC00000FFE00003E
3FFC00000FFE00003F
1FFE00000FFC00007F
0FFF00001FFC00007F
0FFF00001FF80000FE
07FF80003FF00000FE
03FFC0007FE00001FE
01FFE000FFE00003FE
00FFF801FFC0000FFE
007FFF8FFFFFFFFFFC
003FFFFFFFFFFFFFFC
000FFFFFFFFFFFFFFC
0003FFFFFFFFFFFFFC
00007FFFFFFFFFFFFC
000003FF0000000000
ENDCHAR
STARTCHAR 0153
ENCODING 339
SWIDTH 822 0
DWIDTH 64 0
BBX 59 37 3 -1
BITMAP
000FFF8007FF8000
007FFFF01FFFE000
00FFFFF87FFFF000
03FFFFFEFFFFFC00
07FFBFFFFFFFFE00
0FFE07FFFF07FE00
1FFC03FFFE03FF00
1FF801FFFC03FF00
3FF000FFFC01FF80
7FF000FFF801FF80
7FF000FFF800FFC0
7FF0007FF800FFC0
FFE0007FF800FFC0
FFE0007FF800FFC0
FFE0007FF800FFC0
FFE0003FF800FFC0
FFE0003FFFFFFFE0
FFE0003FFFFFFFC0
FFE0003FFFFFFFC0
FFE0003FFFFFFF80
FFE0003FF8000000
FFF0003FF8000000
FFF0003FF8000000
FFF0003FF8000000
FFF0007FFC000000
7FF0007FFC000000
7FF8007FFE000000
3FF8007FFF000080
3FFC00FFFF800380
1FFE01FFFFC007C0
0FFF01FFFFF03FC0
0FFFC7FFFFFFFFC0
03FFFFFEFFFFFF80
01FFFFF87FFFFE00
00FFFFF03FFFFC00
001FFFC00FFFE000
0000F800007C0000
ENDCHAR
ENDFONT
